{"glyphs":{"0":{"ha":551,"x_min":47,"x_max":504,"o":"m 210 606 q 297 625 251 625 q 392 602 353 625 q 457 544 432 579 q 493 464 482 508 q 504 378 504 419 q 497 290 504 339 q 475 192 490 242 q 437 97 460 143 q 381 14 414 50 q 307 -44 349 -22 q 213 -67 265 -67 q 127 -40 160 -67 q 77 23 94 -14 q 53 99 60 60 q 47 167 47 139 q 59 276 47 228 q 85 356 71 324 q 113 407 100 389 q 125 428 125 425 q 126 431 125 429 q 132 435 131 435 q 137 432 135 435 q 139 426 139 429 q 130 401 139 421 q 109 351 121 382 q 88 276 97 319 q 79 182 79 233 q 85 118 79 153 q 107 53 92 83 q 147 2 122 22 q 210 -18 172 -18 q 303 18 263 -18 q 372 108 344 54 q 414 226 400 163 q 428 346 428 290 q 418 437 428 400 q 392 495 408 474 q 353 526 375 517 q 306 535 331 535 q 269 530 285 535 q 246 521 253 525 q 227 510 235 514 q 213 506 219 506 q 188 517 200 506 q 166 541 175 528 q 151 566 157 554 q 146 579 146 578 q 163 585 153 581 q 184 594 174 590 q 202 602 194 599 q 210 606 210 606 z "},"1":{"ha":411,"x_min":32,"x_max":367,"o":"m 343 628 q 365 608 363 628 q 361 561 367 589 q 347 474 354 517 q 331 392 339 432 q 250 57 281 163 q 217 -49 219 -49 q 211 -46 213 -49 q 210 -42 210 -43 q 217 9 210 -29 q 234 104 224 47 q 257 233 244 161 q 281 385 269 306 q 242 299 261 339 q 205 226 222 258 q 173 170 188 193 q 150 139 158 147 l 151 138 q 122 116 135 119 q 106 113 110 113 q 82 119 94 113 q 58 133 69 125 q 40 149 47 142 q 32 157 32 156 q 85 203 58 169 q 138 282 111 236 q 190 381 164 328 q 244 483 217 433 l 292 571 q 299 584 293 575 q 312 603 304 593 q 327 620 319 613 q 343 628 335 628 z "},"2":{"ha":613,"x_min":50,"x_max":542,"o":"m 443 357 q 470 342 453 356 q 503 305 488 329 q 530 249 518 281 q 542 178 542 217 q 526 88 542 138 q 477 -3 510 39 q 394 -74 444 -46 q 274 -103 343 -103 q 200 -89 238 -103 q 131 -48 163 -75 q 81 18 100 -21 q 61 107 61 57 q 81 206 61 161 q 131 288 101 251 q 192 352 160 324 q 247 403 224 381 q 359 504 311 461 q 431 565 407 547 q 375 576 406 576 q 299 561 336 576 q 228 527 261 546 q 165 493 194 508 q 115 478 136 478 q 91 488 103 478 q 70 510 79 497 q 56 533 61 522 q 50 546 50 543 q 92 560 67 549 q 205 602 139 582 q 335 622 271 622 q 403 611 372 622 q 457 583 435 600 q 492 547 479 567 q 504 510 504 528 q 503 504 504 506 l 501 504 q 432 449 469 479 q 353 387 394 419 q 272 319 313 354 q 192 247 231 285 q 142 177 161 218 q 122 96 122 136 q 135 37 122 64 q 170 -10 149 10 q 220 -42 192 -31 q 281 -54 249 -54 q 383 -31 339 -54 q 456 30 426 -7 q 499 109 485 67 q 514 189 514 151 q 501 261 514 232 q 474 308 489 290 q 448 333 460 325 q 436 343 436 342 l 433 346 q 431 351 431 349 q 436 358 431 358 q 439 358 438 358 q 442 357 440 357 l 443 357 l 443 357 z "},"3":{"ha":629,"x_min":71,"x_max":563,"o":"m 381 422 q 438 413 407 422 q 497 379 469 403 q 544 317 525 356 q 563 221 563 279 q 543 124 563 172 q 489 38 524 76 q 404 -24 454 0 q 294 -47 354 -47 q 197 -26 239 -47 q 127 26 156 -6 q 85 94 99 57 q 71 165 71 132 q 74 214 71 197 q 79 242 76 231 q 85 266 82 254 q 88 300 88 278 q 87 309 88 306 q 86 315 86 313 q 103 311 89 313 q 134 305 118 310 q 163 288 150 300 q 176 249 176 275 q 175 232 176 238 l 174 232 q 160 157 160 193 q 167 109 160 133 q 192 65 175 85 q 238 32 210 44 q 308 19 267 19 q 390 36 351 19 q 458 83 429 53 q 504 153 488 113 q 521 240 521 193 q 485 353 521 308 q 383 399 450 399 q 339 392 356 399 q 319 385 322 385 q 313 385 318 385 q 308 393 308 386 q 314 403 308 401 q 336 415 319 404 q 383 456 353 426 q 461 549 413 485 l 465 554 q 379 528 422 544 q 301 495 336 511 q 243 467 267 479 q 215 453 219 454 l 215 451 q 190 440 200 443 q 174 438 181 438 q 149 447 161 438 q 127 468 136 457 q 112 490 118 479 q 106 501 106 500 q 124 508 113 503 q 147 519 136 513 q 175 535 161 526 l 176 535 q 249 566 210 550 q 333 594 289 582 q 422 615 376 607 q 513 624 468 624 q 520 623 514 624 q 533 619 526 622 q 547 610 540 617 q 557 594 554 604 q 513 538 536 564 q 465 490 489 511 q 419 451 442 468 q 381 422 397 433 z "},"4":{"ha":538,"x_min":49,"x_max":499,"o":"m 493 8 q 496 7 494 8 q 499 0 499 4 q 463 -11 499 -10 q 365 -15 428 -12 q 350 -62 356 -44 q 342 -90 344 -81 q 336 -102 339 -99 q 329 -106 333 -106 q 321 -99 322 -104 q 319 -81 319 -93 q 319 -52 319 -68 q 321 -17 319 -36 q 172 -21 254 -21 q 151 -20 171 -21 q 109 -10 132 -19 q 67 19 86 -1 q 49 81 49 40 q 51 108 49 96 q 56 129 53 119 q 124 288 85 215 q 200 415 164 360 q 265 508 236 471 q 300 558 293 544 q 317 587 306 567 q 331 619 328 607 q 342 613 332 619 q 363 597 351 607 q 383 574 374 586 q 393 549 393 561 q 382 515 393 533 q 297 409 342 465 q 208 289 253 353 q 173 238 192 265 q 138 183 154 211 q 112 126 122 154 q 101 74 101 99 q 133 31 101 40 q 233 20 186 24 q 322 14 281 17 q 327 93 324 61 q 333 148 331 125 q 338 190 336 171 q 340 229 340 208 q 340 238 340 233 q 339 244 339 242 q 355 242 340 243 q 386 234 369 240 q 416 216 403 228 q 429 182 429 204 q 428 167 429 172 l 429 167 q 401 94 414 138 q 374 13 388 51 q 461 8 428 8 l 493 8 l 493 8 z "},"5":{"ha":615,"x_min":58,"x_max":553,"o":"m 378 407 q 415 404 386 407 q 474 385 443 401 q 528 333 504 368 q 553 232 553 297 q 535 140 553 189 q 485 51 518 92 q 405 -17 453 10 q 296 -44 357 -44 q 190 -22 235 -44 q 115 38 144 1 q 72 119 86 74 q 58 211 58 165 q 65 274 58 253 q 78 309 71 294 q 93 341 86 324 q 103 393 100 358 q 117 388 106 393 q 142 374 129 382 q 166 353 156 365 q 176 325 176 340 q 175 310 176 318 q 169 290 174 301 l 168 290 q 151 244 158 271 q 143 186 143 217 q 154 124 143 154 q 185 72 165 94 q 235 34 206 49 q 303 19 265 19 q 388 40 349 19 q 455 92 426 60 q 500 165 483 124 q 517 249 517 207 q 499 322 517 294 q 459 364 482 349 q 413 384 436 379 q 381 389 390 389 q 341 385 367 389 q 271 382 315 382 q 243 385 263 382 q 203 397 224 388 q 168 425 183 407 q 153 474 153 443 q 160 510 153 494 q 171 542 168 526 q 199 595 183 578 q 228 619 214 613 q 255 624 243 625 q 269 625 267 624 q 336 622 307 622 q 392 621 365 621 q 446 621 419 621 q 504 621 472 621 q 528 622 522 621 q 524 603 524 618 q 521 572 525 589 q 502 542 517 556 q 454 529 488 529 l 453 529 q 416 533 436 529 q 375 542 396 538 q 333 551 354 547 q 292 556 311 556 q 231 537 256 556 q 203 465 206 518 q 222 433 207 443 q 256 418 238 422 q 293 414 275 414 q 322 411 311 414 q 378 407 365 407 z "},"6":{"ha":593,"x_min":71,"x_max":535,"o":"m 301 424 q 318 428 310 426 q 338 429 326 429 q 409 415 374 429 q 472 374 444 401 q 517 308 500 347 q 535 219 535 269 q 515 122 535 169 q 461 36 496 74 q 378 -24 426 -1 q 274 -46 331 -46 q 197 -31 233 -46 q 132 10 160 -17 q 88 76 104 38 q 71 160 71 114 q 85 246 71 206 q 111 318 99 286 q 187 447 154 397 q 243 527 219 496 q 282 578 267 558 q 304 619 297 599 q 315 613 304 619 q 336 597 325 607 q 357 574 347 586 q 367 549 367 561 q 338 493 367 525 q 278 421 310 461 q 290 423 285 422 q 301 424 294 424 m 485 183 q 489 226 489 204 q 447 347 489 301 q 321 393 404 393 q 247 382 283 393 q 176 266 207 328 q 146 133 146 204 q 157 87 146 108 q 187 49 168 65 q 231 24 206 33 q 283 15 256 15 q 352 28 318 15 q 413 65 386 42 q 460 118 440 88 q 485 183 479 149 z "},"7":{"ha":543,"x_min":40,"x_max":504,"o":"m 446 633 q 463 624 453 629 q 482 613 472 619 q 498 597 492 607 q 504 572 504 586 q 498 544 504 560 q 483 513 492 528 q 465 482 475 497 q 449 456 456 467 q 300 228 364 322 q 192 76 236 135 q 126 -12 149 17 q 104 -43 104 -40 q 97 -39 99 -43 q 96 -35 96 -37 q 122 17 96 -26 q 189 128 149 61 q 278 276 229 194 q 371 439 326 357 q 405 501 389 471 q 432 561 421 532 q 400 569 421 565 q 357 572 379 572 q 339 572 347 572 q 324 569 331 571 q 233 555 269 564 q 171 537 196 546 q 131 522 146 528 q 108 515 117 515 q 78 527 90 515 q 58 553 65 539 q 46 581 50 568 q 40 596 42 593 q 60 598 47 596 q 85 603 74 600 q 114 611 99 607 q 213 638 160 625 q 326 650 267 650 q 446 633 383 650 z "},"8":{"ha":564,"x_min":81,"x_max":510,"o":"m 357 442 q 407 403 381 425 q 456 354 433 382 q 494 292 479 326 q 510 214 510 257 q 492 103 510 151 q 445 22 475 54 q 374 -26 415 -10 q 283 -43 332 -43 q 195 -24 233 -43 q 131 24 157 -6 q 93 88 106 53 q 81 156 81 124 q 98 246 81 204 q 135 315 115 288 q 171 354 153 340 q 203 376 189 368 q 227 385 218 383 q 238 386 236 386 q 243 379 243 386 q 230 370 243 375 q 199 351 217 365 q 160 309 181 336 q 128 236 140 282 q 115 176 115 207 q 126 117 115 146 q 156 65 136 88 q 205 28 176 42 q 269 14 233 14 q 344 29 313 14 q 395 69 375 44 q 424 128 415 94 q 433 199 433 161 q 414 270 433 240 q 369 321 394 300 q 321 356 344 342 q 289 378 297 369 l 288 378 q 241 429 264 401 q 218 499 218 457 q 232 555 218 532 q 267 592 246 578 q 312 614 288 607 q 357 621 336 621 q 406 612 386 621 q 438 589 425 603 q 456 560 450 575 q 461 531 461 544 q 456 499 461 510 q 446 483 451 488 q 435 477 440 478 q 431 475 431 476 q 432 474 431 474 q 428 479 431 474 q 425 486 425 485 l 425 488 q 428 494 426 489 q 431 504 429 499 q 432 518 432 510 q 420 552 432 536 q 374 568 408 568 q 338 562 353 568 q 313 547 322 556 q 299 528 303 538 q 294 513 294 518 q 316 472 294 489 q 357 442 338 454 z "},"9":{"ha":549,"x_min":31,"x_max":501,"o":"m 314 618 q 382 604 349 617 q 442 568 415 592 q 485 510 468 544 q 501 432 501 476 q 487 340 501 383 q 451 257 472 296 q 406 186 431 218 q 360 129 381 154 q 226 -18 283 40 q 147 -96 169 -76 l 146 -97 q 142 -100 144 -97 q 119 -113 129 -111 q 106 -115 110 -115 q 80 -108 93 -115 q 56 -91 67 -100 q 38 -74 44 -82 q 31 -65 31 -67 q 47 -55 38 -62 q 67 -40 57 -47 q 90 -22 78 -32 q 183 63 133 18 q 281 161 232 108 q 266 160 274 160 q 250 160 258 160 q 160 176 197 160 q 97 218 122 192 q 60 279 72 244 q 49 350 49 314 q 67 450 49 401 q 121 536 86 499 q 205 596 156 574 q 314 618 254 618 m 400 318 q 425 376 415 346 q 435 438 435 407 q 399 525 435 489 q 297 561 364 561 q 215 544 253 561 q 150 497 178 526 q 106 428 122 467 q 90 347 90 389 q 106 269 90 300 q 147 221 122 239 q 201 195 172 203 q 257 188 231 188 q 277 188 268 188 q 296 190 286 189 q 325 210 310 194 q 354 244 340 225 q 380 283 368 264 q 400 318 392 303 z "},"N":{"ha":844,"x_min":13,"x_max":931,"o":"m 924 540 q 928 515 931 529 q 921 488 926 500 q 889 424 908 467 q 847 326 869 381 q 803 210 825 271 q 762 95 781 150 q 732 -3 743 40 q 721 -68 721 -47 q 617 -2 658 -67 q 553 172 575 63 q 499 66 528 114 q 432 -16 469 18 q 347 -69 394 -50 q 240 -87 300 -87 q 75 -26 138 -87 q 13 160 13 36 q 34 288 13 226 q 93 398 56 350 q 181 476 131 446 q 290 508 232 506 q 339 501 318 508 q 376 485 360 494 q 405 465 392 475 q 431 449 418 454 q 420 430 431 438 q 395 417 410 422 q 366 410 381 413 q 344 406 351 407 q 282 440 326 440 q 194 417 242 440 q 115 356 147 394 q 61 266 75 307 q 47 171 47 225 q 57 93 47 131 q 88 26 67 56 q 142 -20 108 -3 q 224 -37 175 -37 q 335 -13 289 -37 q 415 49 382 11 q 468 135 447 88 q 504 228 489 182 q 528 302 517 265 q 549 370 539 339 q 568 426 560 401 q 581 465 576 451 l 581 467 q 589 500 585 485 q 594 528 592 514 q 599 553 597 543 q 613 546 599 553 q 642 529 626 539 q 670 509 657 519 q 683 493 683 499 q 678 472 683 485 q 671 449 674 458 q 672 447 672 449 q 628 328 649 399 q 607 183 607 258 q 624 70 607 117 q 664 -8 640 24 q 676 58 664 11 q 708 165 689 106 q 749 286 726 224 q 789 401 771 349 q 819 485 807 453 q 829 514 831 517 l 839 543 q 850 589 847 569 q 882 575 867 582 q 907 560 894 568 q 924 540 919 551 z "},"L":{"ha":278,"x_min":-239,"x_max":1514,"o":"m 1508 -22 q 1514 -56 1514 -39 q 1506 -95 1514 -78 q 1486 -124 1497 -112 q 1458 -149 1474 -139 q 1348 -204 1411 -185 q 1225 -233 1285 -224 q 1118 -245 1165 -243 q 1054 -247 1071 -247 q 836 -228 944 -247 q 642 -185 728 -208 q 502 -141 556 -161 q 449 -121 449 -121 q 307 -76 368 -93 q 201 -50 246 -60 q 125 -37 156 -40 q 76 -35 94 -35 q 61 -35 67 -35 q 51 -36 56 -36 q 43 -37 46 -37 l 42 -31 q -28 -90 4 -67 q -87 -125 -60 -112 q -138 -142 -115 -137 q -178 -147 -161 -147 q -228 -137 -218 -147 q -239 -117 -239 -128 q -221 -72 -239 -92 q -174 -36 -203 -51 q -113 -10 -146 -21 q -51 7 -81 0 q -1 17 -22 14 q 24 19 19 19 l 26 19 q 29 21 29 19 l 28 19 q 110 138 71 65 q 184 292 150 211 q 247 453 218 374 q 294 592 275 533 q 310 585 297 590 q 335 572 322 581 q 360 551 349 564 q 371 522 371 539 q 369 508 371 515 q 364 490 368 500 q 320 399 344 450 q 267 295 296 349 q 210 190 239 242 q 151 100 181 139 q 117 58 133 76 q 88 19 101 39 q 213 6 147 17 q 336 -18 279 -6 q 465 -50 403 -33 q 757 -115 608 -85 q 1061 -144 906 -144 q 1274 -126 1189 -144 q 1411 -83 1358 -107 q 1508 -22 1472 -57 m -208 -112 q -163 -116 -189 -121 q -112 -99 -137 -111 q -63 -69 -86 -86 q -25 -39 -40 -53 q -112 -53 -74 -43 q -175 -75 -146 -61 q -208 -112 -204 -89 z "},"A":{"ha":822,"x_min":22,"x_max":854,"o":"m 128 -8 q 51 79 79 25 q 22 189 22 133 q 38 261 22 231 q 81 314 54 292 q 139 349 107 336 q 204 365 171 361 q 333 376 250 371 q 517 382 417 382 q 594 482 553 440 q 677 551 636 524 q 753 591 718 578 q 808 604 788 604 q 835 595 825 604 q 844 550 844 586 q 834 519 844 539 q 808 474 824 499 q 776 424 793 450 q 746 372 758 397 q 803 369 782 372 q 836 359 825 365 q 851 345 847 353 q 854 329 854 338 q 853 306 854 318 q 851 285 853 294 q 850 263 850 274 q 818 276 836 272 q 781 282 800 281 q 742 283 761 283 q 704 285 722 283 q 666 191 685 242 q 647 101 647 140 q 664 52 647 74 q 717 31 681 31 q 745 35 732 31 q 769 42 758 39 q 829 72 817 61 q 844 83 842 83 q 851 81 847 83 q 854 75 854 78 l 854 76 q 847 67 853 76 q 826 46 840 58 q 786 20 811 33 q 724 0 761 7 q 707 -3 713 -3 q 672 5 690 -3 q 639 25 654 13 q 613 55 624 38 q 603 93 603 72 q 613 197 603 149 q 638 290 624 246 q 597 294 621 290 q 547 300 572 297 q 490 208 519 254 q 435 115 461 161 q 397 61 419 89 q 345 11 374 33 q 284 -26 317 -11 q 217 -40 251 -40 q 128 -8 169 -40 m 715 490 q 604 381 658 451 q 637 379 621 379 q 668 378 653 379 q 692 438 679 410 q 715 490 704 467 m 167 322 q 92 276 118 315 q 65 190 65 236 q 79 124 65 156 q 115 69 93 93 q 163 30 136 44 q 217 15 190 15 q 296 45 260 15 q 363 119 332 75 q 422 214 394 163 q 474 308 449 265 q 363 321 418 315 q 249 326 307 326 q 167 322 208 326 z "},"B":{"ha":619,"x_min":24,"x_max":606,"o":"m 443 60 q 474 103 457 78 q 504 156 490 129 q 527 208 518 183 q 536 250 536 233 q 510 274 536 265 q 436 283 485 283 q 340 275 386 283 q 260 260 294 267 q 220 164 240 213 q 186 83 200 115 q 178 58 182 72 q 172 29 175 46 q 169 -10 169 13 q 158 -7 167 -10 q 139 2 149 -4 q 121 19 129 8 q 113 50 113 31 q 117 87 113 64 q 128 137 121 110 q 142 190 135 164 q 157 236 150 217 q 147 245 153 236 q 134 267 140 254 q 123 292 128 279 q 118 311 118 304 q 126 321 118 317 q 147 328 135 325 q 172 333 158 331 q 194 336 185 335 q 209 372 201 356 q 224 407 217 389 l 233 436 q 241 461 238 449 q 244 482 244 474 q 260 476 247 481 q 286 464 272 472 q 311 443 300 456 q 322 414 322 431 q 320 393 322 401 q 304 357 318 385 q 346 361 325 360 q 389 363 367 363 q 431 361 410 363 q 475 356 453 360 q 498 394 489 372 q 507 439 507 417 q 496 478 507 463 q 468 504 485 494 q 432 518 451 514 q 396 522 413 522 q 303 505 343 522 q 232 476 263 488 q 153 426 183 450 q 104 383 122 401 q 78 353 86 364 q 68 342 71 342 q 32 381 40 361 q 24 417 24 400 q 26 440 24 429 q 31 450 28 446 q 53 475 33 456 q 108 517 72 494 q 194 563 143 540 q 311 596 244 585 l 310 594 q 364 599 335 599 q 438 589 401 599 q 501 560 474 579 q 544 511 528 540 q 561 444 561 482 q 549 391 561 419 q 521 346 536 363 q 586 310 567 331 q 606 249 606 289 q 596 200 606 226 q 572 147 586 174 q 541 96 558 121 q 510 53 524 71 q 526 49 522 49 q 528 50 528 49 q 531 49 529 50 q 535 43 535 44 q 533 38 535 39 q 531 35 532 36 q 526 33 528 33 q 514 34 521 33 q 496 36 507 35 q 416 -33 461 -4 q 322 -62 371 -62 q 286 -58 304 -62 q 253 -46 268 -54 q 230 -26 239 -37 q 221 -3 221 -15 q 240 34 221 21 q 286 53 260 47 q 338 61 313 60 q 376 63 364 63 q 412 62 396 63 q 443 60 428 61 m 300 -17 q 363 -3 332 -17 q 424 39 393 10 q 376 35 404 39 q 321 27 347 32 q 275 15 294 22 q 256 0 256 8 q 300 -17 256 -4 z "},"D":{"ha":686,"x_min":13,"x_max":668,"o":"m 58 342 q 22 381 31 361 q 13 417 13 401 q 15 442 13 432 q 25 461 17 451 q 49 483 33 471 q 90 513 64 494 l 92 513 q 153 547 119 529 q 223 580 186 565 q 301 604 260 594 q 383 614 342 614 q 492 594 440 614 q 583 536 544 574 q 645 447 622 499 q 668 332 668 394 q 631 168 668 243 q 535 39 593 93 q 405 -45 476 -15 q 267 -75 333 -75 q 206 -70 239 -75 q 144 -56 172 -65 q 96 -30 115 -46 q 76 8 76 -14 q 83 26 76 19 q 101 38 90 33 q 122 44 111 42 q 140 46 132 46 q 156 137 140 82 q 191 246 171 192 q 229 345 211 300 q 251 407 247 390 l 261 436 q 269 461 265 449 q 272 482 272 474 q 289 476 276 481 q 315 464 301 472 q 340 442 329 456 q 351 413 351 429 q 350 398 351 406 q 344 381 349 390 q 324 340 336 367 q 296 279 311 313 q 265 209 281 246 q 237 139 250 172 q 214 78 224 106 q 203 39 204 51 q 240 24 225 32 q 258 17 256 17 l 258 18 l 261 15 q 265 10 265 11 q 263 3 265 6 q 257 1 260 1 q 236 7 251 1 q 200 18 221 13 q 199 4 199 11 q 199 -10 199 -3 q 176 -3 188 -8 q 158 7 167 1 q 144 24 149 13 q 114 19 125 22 q 103 10 103 17 q 117 -8 103 0 q 153 -23 132 -17 q 199 -33 175 -29 q 243 -36 224 -36 q 331 -24 286 -36 q 418 11 376 -12 q 494 70 460 35 q 554 154 529 106 q 590 233 578 192 q 601 317 601 275 q 585 406 601 367 q 542 473 569 446 q 481 515 515 500 q 407 529 446 529 q 347 524 375 529 q 293 511 318 519 q 176 450 221 481 q 107 396 132 419 q 72 357 82 372 q 58 342 61 342 z "},"E":{"ha":824,"x_min":17,"x_max":936,"o":"m 921 608 q 936 556 936 579 q 931 528 936 540 q 921 510 926 517 q 907 494 915 501 q 858 477 897 488 q 753 467 819 467 q 688 470 722 467 q 617 479 653 474 q 619 470 618 474 q 619 464 619 467 q 574 442 596 453 q 535 420 554 432 q 504 397 517 408 q 572 383 538 390 q 632 369 606 376 q 675 358 658 363 q 692 351 692 353 l 693 351 q 696 343 696 349 q 692 333 696 338 l 689 332 l 689 333 q 667 331 686 332 q 608 331 649 331 q 530 331 572 331 q 447 332 488 332 q 397 246 419 296 q 375 143 375 196 q 406 35 375 83 q 504 -19 438 -14 q 612 2 564 -17 q 697 47 660 21 q 760 104 733 74 q 803 162 786 135 q 827 207 819 189 q 835 228 835 225 q 836 231 835 229 q 843 233 839 233 q 851 226 851 233 q 837 163 851 197 q 798 96 822 129 q 740 32 774 63 q 669 -22 707 1 q 592 -59 632 -46 q 515 -72 553 -72 q 428 -53 467 -72 q 362 -1 389 -33 q 320 72 335 31 q 306 160 306 114 q 319 252 306 208 q 351 333 332 296 q 315 347 321 333 q 308 376 308 361 l 308 406 q 310 419 308 413 q 326 413 315 415 q 347 409 336 411 q 368 406 358 407 q 382 406 378 406 l 382 404 q 388 405 385 404 q 393 406 390 406 q 440 463 415 438 q 488 504 464 488 q 414 517 451 513 q 339 522 376 522 q 234 508 285 522 q 144 462 183 493 q 80 381 104 431 q 56 261 56 331 q 71 173 56 211 q 110 110 86 135 q 166 72 135 85 q 231 58 197 58 q 260 61 249 58 q 274 64 271 64 q 278 63 272 64 q 283 56 283 63 q 270 46 283 53 q 213 39 257 39 q 153 49 188 39 q 90 87 119 60 q 38 160 60 114 q 17 279 17 207 q 47 417 17 349 q 144 533 76 485 q 258 579 201 567 q 369 592 315 592 q 467 585 421 592 q 553 574 513 579 q 640 563 601 567 q 707 560 679 560 q 804 568 765 560 q 868 585 843 576 q 905 602 893 594 q 921 608 917 610 z "},"F":{"ha":533,"x_min":19,"x_max":938,"o":"m 758 551 q 830 563 800 556 q 879 578 860 571 q 908 592 899 586 q 921 597 918 597 q 928 589 925 597 q 933 571 931 581 q 938 544 936 558 q 933 517 938 529 q 922 499 928 506 q 908 483 917 490 q 860 466 899 476 q 754 456 821 456 q 678 460 719 456 q 596 472 636 465 q 590 462 593 467 q 583 450 586 457 q 627 439 606 444 q 666 428 649 433 q 695 418 683 422 q 710 413 707 414 l 711 413 l 713 411 q 714 403 714 408 q 711 394 714 397 l 708 392 l 707 393 q 693 393 707 393 q 658 392 679 393 q 610 392 636 392 q 557 392 583 392 q 524 308 540 351 q 488 219 507 264 q 449 128 471 178 q 398 35 428 78 q 328 -37 368 -8 q 235 -65 289 -65 q 181 -56 206 -65 q 137 -31 156 -46 q 107 2 118 -17 q 96 40 96 21 q 97 56 96 49 q 100 69 99 63 q 41 153 63 100 q 19 269 19 207 q 49 406 19 339 q 147 522 79 474 q 260 567 204 556 q 371 579 317 579 q 478 574 428 579 q 572 564 529 569 q 649 553 614 558 q 708 549 683 549 q 738 549 725 549 q 758 551 750 549 m 490 464 q 495 478 493 471 q 500 492 497 485 q 422 505 463 499 q 342 511 382 511 q 236 497 288 511 q 145 451 185 482 q 82 369 106 419 q 58 250 58 319 q 72 165 58 206 q 111 97 86 125 q 137 134 128 131 q 143 138 146 138 q 149 134 146 138 q 151 128 151 131 q 143 113 151 125 q 128 82 135 101 q 154 64 139 71 q 184 53 169 57 q 211 49 199 50 q 232 49 224 49 q 261 51 250 49 q 275 53 272 53 l 274 53 l 275 53 q 286 47 285 53 q 285 42 286 44 q 276 36 283 39 q 256 31 269 33 q 215 29 242 29 q 171 33 194 29 q 124 53 147 38 q 152 -1 124 21 q 221 -22 181 -22 q 286 -4 254 -22 q 340 54 318 14 q 415 227 385 136 q 468 393 444 318 q 419 396 438 393 q 392 403 401 399 q 381 416 383 408 q 379 433 379 424 l 379 463 q 381 479 379 471 q 420 465 397 468 q 463 463 443 463 q 481 463 474 463 q 490 464 489 464 z "},"G":{"ha":796,"x_min":19,"x_max":1022,"o":"m 153 411 q 131 403 146 408 q 98 390 115 397 q 65 375 81 383 q 40 360 49 367 q 37 368 40 360 q 29 389 33 376 q 22 415 25 401 q 19 439 19 428 q 28 457 19 446 q 68 479 38 468 q 84 485 68 481 q 124 494 100 489 q 178 503 149 499 q 233 507 207 507 q 297 502 265 507 q 360 490 328 497 q 485 573 422 547 q 606 599 547 599 q 645 596 626 599 q 681 590 664 593 q 706 583 689 588 q 739 566 722 578 q 768 534 756 554 q 781 483 781 514 q 763 424 781 447 q 721 386 746 400 q 669 367 696 372 q 622 361 642 361 q 556 367 586 361 q 497 381 525 372 q 444 398 469 389 q 397 413 419 407 q 292 277 335 356 q 249 113 249 199 q 278 8 249 42 q 361 -26 307 -26 q 442 -7 404 -26 q 512 40 481 13 q 565 95 543 67 q 596 142 586 124 q 624 222 610 182 q 651 292 639 261 q 672 341 663 322 q 688 360 682 360 q 735 340 715 360 q 754 301 754 321 q 751 288 754 293 q 724 238 739 264 q 695 183 708 211 q 674 126 682 154 q 665 74 665 99 q 669 49 665 58 q 689 40 674 40 q 748 69 713 40 q 811 161 783 97 l 811 163 l 813 163 q 815 164 813 163 q 824 160 819 164 q 825 157 825 158 q 819 132 825 157 q 796 78 813 107 q 751 24 779 49 q 679 -1 724 -1 q 653 3 667 -1 q 626 22 639 8 q 572 -89 600 -37 q 638 -98 604 -94 q 701 -101 671 -101 q 816 -85 765 -101 q 896 -53 867 -69 q 913 -42 900 -51 q 942 -23 926 -33 q 971 -1 957 -12 q 990 17 985 10 q 997 8 992 17 q 1008 -12 1003 0 q 1018 -40 1014 -25 q 1022 -65 1022 -54 q 991 -112 1022 -93 q 917 -144 960 -132 q 830 -162 875 -157 q 757 -167 785 -167 q 647 -155 699 -165 q 547 -132 596 -144 q 491 -190 526 -174 q 428 -207 456 -207 q 412 -206 425 -207 q 384 -199 399 -206 q 358 -180 369 -193 q 346 -142 346 -167 q 363 -91 346 -110 q 397 -67 379 -72 q 356 -71 376 -71 q 273 -52 306 -71 q 222 -4 240 -33 q 195 58 203 25 q 188 121 188 92 q 222 283 188 204 q 301 425 256 363 q 218 422 256 425 q 153 411 181 418 m 369 -140 q 383 -167 369 -158 q 417 -175 396 -175 q 455 -162 435 -175 q 494 -115 475 -150 q 460 -103 476 -108 q 425 -97 443 -97 q 388 -106 407 -97 q 369 -140 369 -115 m 522 4 q 470 -37 501 -17 q 400 -65 439 -57 q 414 -64 404 -64 q 463 -69 440 -64 q 511 -78 486 -74 q 535 -19 524 -51 q 558 42 546 13 q 541 23 550 32 q 522 4 532 14 m 689 476 q 601 507 653 507 q 529 494 567 507 q 456 457 492 481 q 540 423 497 439 q 624 407 582 407 q 646 413 633 408 q 669 425 658 418 q 688 440 681 432 q 696 457 696 449 q 689 476 696 465 z "},"H":{"ha":1004,"x_min":29,"x_max":1057,"o":"m 689 203 q 630 100 661 150 q 556 11 599 50 q 458 -52 514 -28 q 328 -76 403 -76 q 217 -61 271 -76 q 121 -13 163 -46 q 54 71 79 19 q 29 193 29 122 q 44 306 29 253 q 90 398 60 358 q 167 460 121 438 q 278 483 214 483 q 370 464 325 483 q 459 415 415 444 q 546 349 503 385 q 632 282 589 314 q 687 417 665 357 q 724 511 708 476 q 731 533 725 518 q 743 567 738 549 q 753 602 749 585 q 758 631 758 619 q 776 625 763 629 q 803 613 789 621 q 829 592 818 604 q 840 563 840 579 q 837 540 840 551 q 826 513 833 528 q 768 378 797 450 q 703 231 739 307 q 783 188 742 203 q 860 165 825 172 q 892 294 871 219 q 950 463 914 368 q 958 488 954 475 q 964 510 961 499 q 967 529 967 521 q 965 538 967 536 q 983 531 968 536 q 1014 518 997 526 q 1044 498 1031 510 q 1057 471 1057 486 q 1050 435 1057 454 q 1010 344 1031 390 q 972 256 992 304 q 933 158 951 207 q 978 162 963 160 q 999 165 993 164 q 1008 168 1006 167 q 1013 169 1010 169 q 1024 165 1022 169 q 999 150 1024 158 q 926 139 975 142 q 903 56 911 93 q 894 -6 894 18 q 869 3 881 -3 q 851 15 860 7 q 839 35 842 22 q 842 63 839 47 q 854 143 844 92 q 774 163 819 143 q 690 206 729 182 q 689 203 689 204 m 301 442 q 208 424 249 442 q 140 373 168 406 q 99 296 113 340 q 85 199 85 251 q 103 109 85 147 q 153 46 121 71 q 227 8 185 21 q 319 -4 269 -4 q 425 18 379 -4 q 506 77 471 40 q 568 160 542 114 q 618 253 594 206 q 550 304 589 272 q 469 367 511 336 q 383 419 426 397 q 301 442 340 442 z "},"I":{"ha":583,"x_min":19,"x_max":832,"o":"m 817 596 q 832 544 832 569 q 827 517 832 529 q 817 499 822 506 q 803 483 811 489 q 751 466 792 476 q 640 456 711 456 q 629 456 635 456 q 618 457 624 456 q 629 446 625 450 q 633 419 633 442 q 626 388 633 403 q 598 330 614 364 q 565 257 582 296 q 530 176 547 218 q 499 98 513 135 q 476 32 485 61 q 465 -14 467 3 q 540 -34 508 -21 q 579 -51 572 -47 q 574 -72 579 -58 q 562 -100 568 -86 q 550 -125 556 -114 q 543 -136 544 -136 q 472 -90 518 -108 q 378 -61 426 -72 q 288 -45 331 -50 q 226 -40 246 -40 q 214 -42 214 -40 q 211 -40 213 -42 q 208 -29 208 -37 q 226 -21 208 -25 q 274 -13 244 -17 q 339 -8 303 -10 q 413 -6 375 -6 q 410 -3 411 -3 q 409 -1 410 -3 q 408 8 408 1 q 408 26 408 14 q 411 49 408 36 q 418 81 414 63 q 453 193 433 139 q 492 296 474 247 q 527 387 511 344 q 551 465 543 429 q 438 485 493 472 q 321 499 382 499 q 229 488 276 499 q 144 455 182 478 q 81 397 106 432 q 57 311 57 361 q 90 228 57 257 q 181 199 122 199 q 215 202 203 199 q 231 206 228 206 q 234 204 229 206 q 239 196 239 203 q 222 185 239 192 q 169 176 206 179 q 129 181 154 176 q 80 201 104 186 q 38 244 56 217 q 19 319 19 272 q 52 433 19 386 q 135 510 85 481 q 247 552 186 539 q 365 565 308 565 q 433 563 390 565 q 524 559 475 561 q 624 557 574 557 q 716 560 674 557 q 785 572 758 564 q 817 596 813 581 z "},"J":{"ha":1157,"x_min":17,"x_max":1503,"o":"m 104 181 q 75 168 89 174 q 51 157 64 163 q 33 147 39 151 q 25 169 29 158 q 19 190 22 179 q 17 213 17 201 q 17 224 17 218 q 19 235 17 231 q 46 256 24 244 q 99 276 68 267 q 168 292 131 286 q 242 297 206 297 q 358 280 301 297 q 469 238 415 263 q 502 335 478 293 q 558 406 526 378 q 626 447 590 433 q 690 461 661 461 q 703 461 697 461 q 715 460 708 461 q 778 530 740 503 q 858 573 815 557 q 947 594 901 589 q 1035 600 993 600 q 1155 592 1104 600 q 1254 583 1206 583 q 1358 591 1315 583 q 1427 607 1400 599 q 1469 623 1454 615 q 1488 631 1483 631 q 1494 623 1492 631 q 1499 606 1497 615 q 1502 588 1501 596 q 1503 579 1503 579 q 1498 552 1503 564 q 1488 533 1493 540 q 1474 518 1482 525 q 1421 500 1463 511 q 1307 489 1379 489 q 1206 500 1258 489 q 1215 488 1215 494 q 1171 388 1192 443 q 1125 275 1150 333 q 1067 156 1100 217 q 988 39 1033 96 q 881 -40 943 -14 q 750 -67 818 -67 q 647 -51 696 -67 q 559 -4 597 -35 q 497 70 521 26 q 468 169 472 114 q 365 203 411 189 q 274 217 319 217 q 167 203 210 217 q 104 181 124 189 m 760 449 q 832 391 808 433 q 856 292 856 349 q 839 229 856 263 q 877 232 863 229 q 894 235 892 235 q 900 234 896 235 q 904 226 904 233 q 885 215 904 222 q 826 207 867 207 q 747 143 799 161 q 644 125 694 125 q 579 132 610 125 q 517 150 549 139 q 591 36 536 79 q 738 -7 646 -7 q 833 13 789 -7 q 911 66 876 33 q 972 141 946 99 q 1014 228 997 183 q 1084 408 1057 331 q 1124 510 1111 485 l 1124 511 l 1128 515 q 1058 527 1092 522 q 986 532 1024 532 q 873 517 928 532 q 776 465 818 501 l 760 449 m 747 432 q 722 343 722 390 q 741 274 722 299 q 799 236 760 249 q 819 277 813 256 q 825 319 825 299 q 817 365 825 346 q 796 399 808 385 q 770 421 783 413 q 747 432 757 429 m 701 440 q 626 419 661 439 q 565 370 590 400 q 524 302 539 340 q 508 224 508 264 q 528 205 508 214 q 573 190 547 196 q 623 179 599 183 q 657 175 647 175 q 728 183 700 175 q 781 214 757 190 q 713 260 744 224 q 682 351 682 297 q 688 394 682 372 q 703 438 693 417 q 701 440 703 438 z "},"K":{"ha":586,"x_min":10,"x_max":825,"o":"m 11 390 q 10 392 10 390 l 10 397 q 24 406 10 404 q 60 409 38 407 q 113 418 83 411 q 172 444 142 425 q 231 485 208 464 q 267 527 254 507 q 285 565 281 547 q 290 597 290 583 q 306 591 293 596 q 333 578 319 586 q 358 556 347 569 q 369 526 369 543 q 369 515 369 519 q 367 506 369 511 q 361 492 365 500 q 349 467 357 483 q 326 417 340 451 q 294 340 313 383 q 257 249 276 297 q 220 158 238 201 q 189 79 203 114 q 168 28 175 44 q 158 3 167 28 q 150 -65 150 -21 q 138 -62 147 -65 q 119 -53 129 -60 q 101 -36 110 -47 q 93 -6 93 -25 q 106 62 93 14 q 138 171 118 110 q 182 298 158 232 q 228 418 206 364 q 149 392 188 399 q 81 385 111 385 q 34 388 53 385 q 13 390 15 390 l 11 390 m 332 289 q 403 348 368 321 q 469 399 438 375 l 469 400 q 567 490 532 449 q 619 560 601 531 q 644 606 638 589 q 653 624 650 624 q 688 606 675 617 q 708 583 701 594 q 717 561 715 572 q 719 542 719 550 q 694 481 719 514 q 635 419 669 449 q 563 364 600 389 q 503 325 526 339 q 451 292 486 314 q 379 244 415 271 q 316 185 343 217 q 289 119 289 153 q 311 59 289 89 q 368 3 333 29 q 446 -46 403 -24 q 530 -84 489 -68 q 606 -109 571 -100 q 660 -118 640 -118 q 728 -109 699 -118 q 775 -90 757 -100 q 802 -70 793 -79 q 811 -62 811 -61 l 813 -62 q 815 -62 814 -62 q 817 -61 815 -61 q 825 -68 825 -61 q 814 -82 825 -69 q 780 -109 803 -94 q 723 -135 757 -124 q 644 -147 689 -147 q 540 -131 596 -147 q 428 -85 483 -114 q 324 -17 372 -56 q 246 64 276 21 q 229 122 229 90 q 240 176 229 151 q 266 222 250 201 q 299 260 282 243 q 332 289 317 276 z "},"P":{"ha":613,"x_min":14,"x_max":675,"o":"m 131 167 q 74 199 96 182 q 39 231 51 217 q 22 255 26 246 q 17 264 17 264 q 15 265 15 264 q 14 269 14 267 q 17 274 14 272 q 22 275 19 275 q 31 266 24 275 q 53 244 39 257 q 92 215 68 231 q 153 186 117 199 q 192 296 172 247 q 226 376 213 344 l 236 406 q 244 431 240 418 q 247 451 247 443 q 263 445 250 450 q 289 432 275 440 q 314 412 303 424 q 325 383 325 400 q 323 367 325 374 q 313 342 321 361 q 286 283 304 322 q 238 167 268 243 q 256 165 247 165 q 274 164 264 164 q 359 175 315 164 q 443 209 403 186 q 518 267 483 232 q 576 347 553 301 q 602 405 592 378 q 613 451 613 432 q 595 483 613 469 q 553 506 578 497 q 500 518 528 514 q 451 522 472 522 q 376 515 411 522 q 311 497 342 507 q 198 442 242 469 q 129 393 154 415 q 94 357 104 371 q 81 343 83 343 q 47 382 56 363 q 38 417 38 401 q 42 443 38 432 q 47 453 44 449 q 78 481 50 457 q 155 530 106 504 q 273 577 204 556 q 425 599 342 599 q 486 595 444 599 q 569 577 528 592 q 643 534 611 563 q 675 456 675 506 q 670 417 675 436 q 658 382 665 397 q 590 273 631 319 q 501 194 549 226 q 401 147 453 163 q 299 131 349 131 q 225 138 264 131 q 199 76 211 106 q 179 28 188 47 q 171 3 175 17 q 165 -26 168 -10 q 163 -65 163 -43 q 151 -62 160 -65 q 132 -53 142 -60 q 114 -36 122 -47 q 106 -6 106 -25 q 109 25 106 6 q 118 67 113 44 q 131 115 124 90 q 144 161 138 140 q 137 164 140 163 q 131 167 133 165 z "},"Q":{"ha":647,"x_min":36,"x_max":675,"o":"m 604 -31 q 634 -15 615 -24 q 663 1 653 -6 q 668 -19 665 -10 q 673 -39 671 -29 q 675 -60 675 -49 q 669 -85 675 -75 q 654 -106 665 -97 q 626 -119 644 -112 q 578 -125 608 -125 q 479 -103 528 -125 q 390 -51 431 -82 q 276 -72 336 -72 q 181 -56 225 -72 q 105 -10 138 -40 q 54 64 72 19 q 36 165 36 108 q 60 282 36 226 q 119 381 83 338 q 197 452 154 424 q 276 488 239 481 q 309 492 293 490 q 339 494 325 494 q 402 487 375 494 q 448 469 429 479 q 477 452 467 460 q 489 444 488 444 q 493 442 490 443 q 497 435 497 438 q 494 431 497 432 q 489 429 492 429 q 477 435 488 429 q 449 450 467 442 q 406 465 432 458 q 349 471 381 471 q 267 456 311 471 q 181 399 222 440 q 108 299 140 358 q 76 172 76 239 q 126 37 76 90 q 263 -17 175 -17 q 303 -16 282 -17 q 340 -8 324 -15 q 258 48 297 35 q 183 61 218 61 q 169 60 175 61 q 158 60 163 60 q 149 58 153 58 q 144 58 146 57 q 142 68 142 61 q 161 79 142 71 q 217 88 181 88 q 313 65 268 88 q 396 15 357 42 q 460 72 432 38 q 506 147 488 106 q 535 231 525 188 q 544 315 544 275 q 523 415 544 376 q 470 474 501 453 q 405 503 439 496 q 344 511 371 511 q 256 498 293 511 q 208 481 218 485 q 183 469 199 471 q 165 467 168 467 q 142 476 154 467 q 119 496 129 485 q 101 517 108 507 q 94 528 94 526 q 122 538 106 531 q 151 553 139 546 q 238 586 197 572 q 328 600 278 600 q 447 579 393 600 q 540 522 501 558 q 601 434 579 485 q 622 322 622 383 q 611 236 622 283 q 579 142 600 189 q 527 52 558 94 q 457 -18 496 10 q 510 -35 485 -31 q 554 -40 535 -40 q 588 -35 575 -40 q 604 -31 601 -31 z "},"R":{"ha":593,"x_min":1,"x_max":760,"o":"m 86 53 q 94 110 86 82 q 108 171 101 139 q 56 203 76 186 q 24 233 36 219 q 8 256 13 247 q 3 264 3 264 q 1 265 1 264 l 1 268 q 10 275 1 275 q 19 265 13 275 q 37 242 25 256 q 67 217 49 229 q 115 199 86 204 q 128 247 121 225 q 144 289 136 269 q 159 328 151 308 q 174 374 167 349 l 183 403 q 191 428 188 415 q 194 449 194 440 q 135 408 158 428 q 97 374 111 389 q 76 351 83 360 q 68 343 69 343 q 34 382 43 363 q 25 417 25 401 q 27 442 25 433 q 35 458 29 451 q 51 472 42 465 q 75 492 60 479 l 76 492 q 131 524 96 506 q 210 560 165 543 q 307 588 256 576 q 413 599 358 599 q 472 595 431 599 q 556 577 514 592 q 631 535 599 563 q 663 457 663 507 q 657 417 663 438 q 644 382 651 397 q 578 272 618 319 q 489 193 538 225 q 388 145 440 161 q 285 129 335 129 q 274 130 279 129 q 263 131 268 131 q 337 61 293 93 q 429 6 381 29 q 529 -29 478 -17 q 626 -42 581 -42 q 689 -38 663 -42 q 743 -14 715 -35 q 758 -47 757 -28 q 749 -85 760 -67 q 711 -116 738 -103 q 642 -131 685 -129 q 497 -111 561 -133 q 376 -51 432 -89 q 273 38 321 -12 q 178 142 225 89 q 172 131 175 139 q 167 115 169 124 q 163 100 165 107 q 161 89 161 93 q 158 77 161 89 q 152 50 156 65 q 146 19 149 35 q 143 -4 143 4 q 131 -1 140 -4 q 113 8 122 1 q 94 24 103 14 q 86 53 86 35 m 253 319 q 235 284 243 300 q 220 252 228 268 q 206 218 213 236 q 189 175 199 200 q 223 167 200 168 q 263 165 246 165 q 420 210 346 165 q 542 347 494 256 q 567 406 557 378 q 578 453 578 433 q 564 484 578 471 q 529 506 550 497 q 484 518 508 514 q 438 522 460 522 q 365 515 400 522 q 298 497 329 508 q 241 473 267 486 q 196 449 215 460 q 213 444 200 449 q 240 429 226 439 q 263 407 253 419 q 274 379 274 394 q 274 368 274 372 q 272 358 274 364 q 265 344 269 353 q 253 319 261 336 z "},"S":{"ha":610,"x_min":8,"x_max":664,"o":"m 657 33 q 627 10 651 22 q 571 -1 603 -1 q 533 3 556 -1 q 499 19 510 7 q 399 -49 458 -29 q 282 -69 340 -69 q 173 -52 224 -69 q 86 -3 122 -35 q 29 71 50 28 q 8 164 8 114 q 17 221 8 190 q 42 276 26 251 q 81 318 58 301 q 131 335 103 335 q 187 320 160 335 q 235 290 214 306 q 373 477 326 396 q 424 608 419 558 q 440 600 428 607 q 464 583 451 593 q 486 558 476 572 q 496 531 496 544 q 489 509 496 521 q 482 482 482 497 q 493 420 482 456 q 517 344 504 385 q 542 260 531 304 q 553 171 553 215 q 544 101 553 135 q 513 36 535 68 q 544 22 529 28 q 576 17 560 17 q 622 22 608 17 q 640 33 635 26 q 648 44 646 39 q 658 50 650 50 q 664 44 664 50 q 660 36 664 40 q 657 33 658 33 m 119 290 q 76 240 92 275 q 60 164 60 204 q 61 147 60 153 q 122 190 82 161 q 207 263 163 219 q 168 285 188 276 q 133 293 149 293 q 119 290 128 293 m 267 -3 q 358 10 311 -3 q 438 60 406 24 q 345 142 389 96 q 239 239 301 188 q 132 166 181 192 q 64 132 83 140 q 92 72 72 97 q 138 31 111 47 q 198 6 165 14 q 267 -3 231 -3 m 453 79 q 472 154 472 114 q 464 226 472 192 q 444 292 456 260 q 420 352 432 324 q 403 406 408 381 q 337 331 371 367 q 267 263 303 294 q 366 163 322 211 q 453 79 410 114 z "},"T":{"ha":426,"x_min":-79,"x_max":839,"o":"m -79 275 q -51 408 -79 350 q 26 503 -22 465 q 138 562 74 542 q 274 582 203 582 q 372 576 325 582 q 458 564 418 569 q 549 553 510 557 q 615 550 588 550 q 707 558 669 550 q 769 575 744 565 q 806 592 793 585 q 822 600 818 600 q 829 592 826 600 q 834 574 832 583 q 838 556 836 564 q 839 547 839 547 q 834 520 839 532 q 824 501 829 508 q 810 486 818 493 q 761 468 800 479 q 658 457 722 457 q 574 463 619 457 q 481 478 528 468 q 479 462 481 471 q 474 442 478 453 q 458 410 472 442 q 426 331 444 379 q 385 223 407 282 q 346 108 364 164 q 316 5 328 51 q 304 -65 304 -42 q 279 -57 290 -62 q 260 -44 269 -53 q 249 -24 251 -36 q 272 121 257 43 q 310 277 286 188 q 374 468 333 367 q 376 476 375 471 q 378 485 378 481 q 382 497 379 490 q 313 509 347 504 q 242 514 278 514 q 134 497 185 514 q 44 448 83 481 q -19 368 4 415 q -42 260 -42 321 q -27 178 -42 213 q 12 120 -12 143 q 67 85 36 97 q 132 74 99 74 q 163 76 151 74 q 176 79 174 79 q 182 78 179 79 q 188 72 186 76 q 176 63 185 67 q 153 56 169 58 q 108 53 138 53 q 54 63 86 53 q -8 97 22 72 q -58 165 -37 122 q -79 275 -79 208 z "},"U":{"ha":744,"x_min":8,"x_max":775,"o":"m 718 64 q 702 44 711 56 q 681 23 693 33 q 651 6 668 13 q 614 -1 635 -1 q 579 6 594 -1 q 549 38 564 14 q 476 -21 521 1 q 378 -43 432 -43 q 307 -31 343 -43 q 242 6 271 -18 q 194 65 213 31 q 176 144 176 100 q 194 254 176 206 q 224 339 213 303 q 148 314 186 322 q 79 306 110 306 q 24 309 39 306 q 8 319 8 313 q 22 326 8 325 q 59 331 36 328 q 111 340 82 333 q 169 367 140 347 q 219 399 199 381 q 255 435 240 418 q 276 465 269 453 q 285 482 283 478 q 288 491 285 482 q 296 512 292 500 q 303 535 300 524 q 306 556 306 547 q 320 550 308 554 q 346 538 332 546 q 370 517 360 529 q 381 489 381 506 q 379 474 381 482 q 375 456 378 465 q 338 383 358 422 q 299 301 318 343 q 267 213 281 258 q 251 121 253 167 q 264 81 251 100 q 297 47 276 61 q 343 24 318 32 q 393 15 368 15 q 478 44 439 15 q 542 113 518 72 q 543 117 542 115 q 567 232 549 168 q 608 356 586 296 q 649 460 629 415 q 675 518 668 506 q 685 549 679 533 q 692 574 689 561 q 696 594 696 586 q 711 588 699 593 q 738 575 724 583 q 764 554 753 567 q 775 525 775 542 q 768 492 775 507 q 746 447 761 476 q 712 378 731 417 q 673 294 693 339 q 637 208 653 250 q 610 129 621 165 q 600 69 600 93 q 624 40 600 40 q 682 69 647 40 q 744 161 717 97 q 747 163 744 161 q 757 160 754 163 q 760 156 760 157 q 751 124 760 151 q 718 64 742 97 z "},"V":{"ha":618,"x_min":11,"x_max":628,"o":"m 628 453 q 619 376 628 422 q 592 277 610 329 q 550 174 575 225 q 493 81 525 122 q 422 15 461 40 q 339 -11 383 -11 q 270 17 296 -11 q 231 91 244 46 q 216 190 218 136 q 219 295 214 244 q 235 387 225 346 q 258 447 246 428 q 178 477 207 465 q 130 497 150 489 q 90 507 110 504 q 38 510 71 510 q 11 507 25 510 q 15 525 15 510 q 18 557 14 540 q 35 587 22 574 q 75 600 47 600 q 132 590 104 600 q 186 564 160 579 q 237 532 213 549 q 285 503 261 515 q 330 551 301 533 q 385 570 358 568 q 433 557 413 572 q 453 506 453 542 q 426 447 453 471 q 358 424 399 424 q 319 428 339 424 q 286 438 300 432 q 268 401 275 432 q 259 326 261 369 q 260 233 257 282 q 271 143 263 185 q 292 74 279 101 q 326 47 306 47 q 408 82 372 47 q 469 171 443 117 q 512 290 496 225 q 534 413 528 354 q 536 518 540 472 q 517 581 532 564 q 528 582 522 581 q 540 583 533 582 q 554 583 547 583 q 581 581 565 583 q 604 571 597 578 q 610 565 606 567 q 618 553 614 563 q 625 521 622 543 q 628 453 628 499 m 414 507 q 399 544 414 536 q 364 546 383 551 q 328 525 344 540 q 308 492 311 510 q 346 476 324 483 q 383 468 368 468 q 406 480 399 468 q 414 507 414 492 z "},"X":{"ha":1032,"x_min":28,"x_max":1065,"o":"m 1061 238 q 1065 231 1065 235 q 1044 179 1064 224 q 990 81 1025 135 q 967 44 982 67 q 933 1 953 22 q 885 -36 913 -21 q 824 -51 858 -51 q 770 -38 792 -51 q 735 -7 749 -25 q 714 30 722 11 q 700 60 706 49 q 621 -17 664 18 q 529 -78 578 -53 q 426 -119 481 -104 q 314 -135 372 -135 q 208 -117 260 -135 q 117 -67 157 -100 q 52 17 76 -33 q 28 132 28 67 q 58 271 28 213 q 131 366 88 329 q 220 420 174 403 q 300 438 267 438 q 381 428 349 438 q 415 419 413 419 l 418 417 q 422 410 422 413 q 419 406 422 407 q 414 404 417 404 q 381 410 410 404 q 311 415 351 415 q 240 401 282 415 q 161 355 199 386 q 97 274 124 324 q 69 151 69 224 q 84 60 69 101 q 128 -12 99 18 q 205 -60 158 -43 q 315 -76 251 -76 q 422 -57 371 -76 q 519 -6 474 -37 q 604 66 564 25 q 678 149 644 107 q 656 273 663 214 q 646 381 649 332 q 552 301 599 325 q 475 278 506 278 q 446 282 449 278 q 443 285 443 286 q 444 289 443 288 q 445 292 444 292 q 446 294 446 293 q 447 296 446 296 q 449 294 447 294 l 451 294 q 472 298 458 294 q 501 310 485 301 q 537 335 518 319 q 572 374 556 350 q 618 451 604 411 q 638 513 632 490 q 624 592 638 551 q 633 593 628 592 q 644 594 638 593 q 657 594 650 594 q 678 594 665 594 q 701 588 690 593 q 719 573 711 583 q 726 543 726 563 l 728 543 q 731 387 733 465 q 735 222 728 308 q 743 236 738 228 q 863 433 819 347 q 921 549 906 518 q 924 562 921 553 q 932 581 928 571 q 940 601 936 592 q 944 614 944 610 q 957 608 946 614 q 981 594 968 603 q 1003 574 993 586 q 1014 549 1014 563 q 1013 535 1014 546 q 1010 521 1013 524 q 899 319 963 426 q 746 110 835 213 q 768 42 753 72 q 815 -3 783 13 q 882 15 854 -3 q 931 56 910 32 q 967 106 951 81 q 997 147 983 131 q 1027 196 1017 178 q 1043 224 1038 214 q 1051 236 1049 233 q 1054 239 1053 239 q 1057 238 1056 239 q 1061 238 1058 238 z "},"Y":{"ha":607,"x_min":17,"x_max":801,"o":"m 739 -33 q 753 -43 743 -33 q 774 -64 764 -53 q 793 -86 785 -75 q 801 -99 801 -97 l 800 -100 l 800 -101 q 694 -153 756 -137 q 568 -168 633 -168 q 456 -158 510 -168 q 356 -135 403 -147 q 299 -192 328 -175 q 238 -210 269 -210 q 219 -209 233 -210 q 190 -202 206 -208 q 161 -182 174 -196 q 149 -143 149 -168 q 158 -106 149 -121 q 178 -82 167 -90 q 203 -70 190 -74 q 222 -65 215 -67 q 272 -68 249 -62 q 319 -81 294 -74 q 338 -37 328 -61 q 354 11 347 -12 q 293 -29 329 -15 q 217 -43 257 -43 q 135 -31 172 -43 q 72 7 99 -18 q 31 69 46 32 q 18 154 17 106 q 30 231 18 186 q 58 324 42 276 q 94 417 75 372 q 125 492 113 461 l 135 521 q 142 546 139 533 q 146 567 146 558 q 164 560 150 565 q 192 544 178 554 q 217 521 206 535 q 228 489 228 507 l 228 488 q 209 452 219 472 q 189 414 199 432 q 154 349 174 385 q 118 274 135 313 q 90 199 101 236 q 79 129 79 161 q 92 76 79 100 q 125 34 104 51 q 174 8 146 17 q 231 -1 201 -1 q 316 20 282 -1 q 371 73 350 42 q 403 138 392 104 q 425 194 415 171 q 442 251 433 226 q 456 298 450 276 q 467 341 463 319 q 472 388 471 363 q 487 382 475 388 q 512 368 499 376 q 535 347 525 360 q 546 321 546 335 q 544 306 546 314 q 539 286 543 297 q 529 262 539 285 q 507 207 519 239 q 484 138 494 175 q 474 74 474 101 q 478 49 474 58 q 497 39 482 39 q 556 67 521 39 q 619 160 592 96 l 621 160 q 624 161 621 160 q 633 156 633 161 l 633 158 q 626 133 632 158 q 606 78 621 108 q 562 22 590 47 q 488 -3 533 -3 q 461 2 475 -3 q 435 21 447 7 q 381 -90 408 -39 q 444 -100 413 -96 q 507 -104 476 -104 q 592 -95 553 -104 q 662 -75 632 -86 q 711 -52 692 -64 q 736 -33 731 -40 l 739 -33 m 178 -142 q 192 -168 178 -160 q 225 -176 207 -176 q 263 -164 243 -176 q 303 -117 283 -151 q 267 -105 283 -110 q 232 -100 250 -100 q 196 -109 214 -100 q 178 -142 178 -118 z "},"Z":{"ha":656,"x_min":28,"x_max":993,"o":"m 425 593 q 574 560 508 576 q 690 529 639 543 q 781 507 740 515 q 854 499 821 499 q 947 508 917 499 q 985 518 978 518 q 989 513 988 518 q 992 499 990 507 q 993 485 993 492 q 993 478 993 479 q 987 445 993 458 q 974 424 981 432 q 954 408 965 414 q 906 397 935 399 q 847 398 878 394 q 788 408 817 401 q 738 419 758 414 q 610 376 672 418 q 488 273 549 335 q 369 138 428 211 q 251 0 310 64 q 340 -12 297 -7 q 424 -18 383 -18 q 545 1 496 -18 q 625 42 594 19 q 668 82 656 64 q 681 99 681 100 l 683 101 q 690 104 686 104 q 697 97 697 104 q 679 67 697 90 q 626 17 661 43 q 536 -28 590 -8 q 411 -49 482 -49 q 317 -46 365 -49 q 218 -36 268 -43 q 197 -57 208 -46 q 171 -78 185 -68 q 142 -94 157 -87 q 110 -100 126 -100 q 83 -92 97 -100 q 56 -72 68 -85 q 36 -44 44 -60 q 28 -11 28 -28 q 53 24 28 14 q 113 22 79 29 q 176 11 146 15 q 283 138 233 71 q 383 268 333 206 q 487 384 433 331 q 604 471 540 438 q 459 525 531 500 q 311 550 388 550 q 201 524 246 550 q 127 466 156 497 q 86 408 99 435 q 74 382 74 382 l 74 383 q 72 381 74 382 q 68 379 71 379 q 60 382 63 379 q 58 386 58 385 q 63 401 58 389 q 76 433 67 414 q 103 476 86 453 q 143 525 119 500 q 239 581 182 564 q 357 599 296 599 q 391 597 374 599 q 425 593 408 596 m 107 -46 q 124 -39 115 -46 q 139 -25 132 -32 q 110 -23 124 -25 q 85 -21 96 -21 q 97 -39 90 -32 q 107 -46 103 -46 z "},"t":{"ha":161,"x_min":-78,"x_max":557,"o":"m 410 375 q 356 379 386 378 q 290 381 326 381 q 231 378 263 381 q 163 374 199 376 q 120 288 143 335 q 78 196 97 242 q 46 110 58 150 q 33 46 33 71 q 56 19 33 19 q 115 47 79 19 q 181 136 151 74 q 183 138 181 136 q 192 133 188 138 l 194 131 q 188 107 194 131 q 164 55 181 83 q 119 2 147 26 q 47 -22 90 -22 q 24 -19 36 -22 q 0 -6 11 -15 q -19 20 -11 4 q -26 61 -26 36 q -18 128 -26 90 q 3 206 -10 165 q 31 288 15 247 q 61 364 46 328 q 35 357 47 358 q 11 356 22 356 q -53 375 -29 356 q -78 418 -78 394 q -36 472 -78 450 q -18 468 -24 472 q -12 461 -12 464 q -17 457 -12 457 q -22 459 -19 457 q -29 461 -24 461 q -44 456 -36 461 q -53 433 -53 450 q -15 406 -53 406 q 28 412 4 406 q 90 428 53 418 q 108 470 99 446 q 126 516 118 494 q 140 553 135 538 q 144 568 144 568 q 163 562 150 568 q 189 546 176 556 q 211 523 201 536 q 221 496 221 510 q 217 475 221 485 q 206 453 213 465 q 301 465 257 461 q 381 468 344 468 q 463 463 431 468 q 506 456 494 458 q 531 440 519 450 q 549 419 540 432 q 557 385 557 406 q 556 377 557 383 q 555 364 556 371 q 552 351 554 357 q 547 346 550 346 q 536 349 543 346 q 515 358 529 353 q 475 367 500 363 q 410 375 450 372 z "},"k":{"ha":301,"x_min":-1194,"x_max":560,"o":"m 521 -53 q 560 -131 560 -85 q 551 -151 560 -140 q 507 -162 543 -162 q 470 -159 492 -162 q 420 -143 449 -156 q 356 -108 392 -131 q 279 -49 321 -86 q 272 -44 275 -46 q 263 -43 269 -43 q 229 -47 250 -43 q 169 -61 208 -51 q 70 -87 131 -71 q -82 -126 10 -103 q -115 -138 -82 -128 q -203 -163 -149 -149 q -326 -194 -257 -178 q -469 -223 -396 -210 q -612 -245 -542 -236 q -740 -254 -683 -254 q -818 -251 -769 -254 q -923 -238 -867 -249 q -1035 -208 -979 -228 q -1137 -154 -1092 -187 q -1167 -129 -1154 -144 q -1186 -100 -1178 -117 q -1194 -60 -1194 -83 q -1189 -26 -1194 -43 q -1092 -87 -1153 -61 q -953 -130 -1039 -111 q -739 -149 -868 -149 q -581 -140 -667 -149 q -424 -121 -506 -133 q -267 -94 -353 -110 q -97 -54 -182 -78 q -60 -44 -89 -53 q 10 -26 -32 -36 q 103 -5 51 -15 q 207 13 154 6 q 153 72 175 43 q 118 125 132 101 q 85 67 97 92 q 65 28 74 43 q 48 5 57 13 q 21 -3 39 -3 q 6 -1 14 -3 q -9 6 -1 0 q -22 26 -17 13 q -26 64 -26 40 q -10 175 -26 110 q 28 306 7 240 q 72 425 50 371 q 103 500 93 479 q 108 510 104 501 q 115 532 111 519 q 123 558 119 544 q 126 582 126 572 q 142 576 129 582 q 168 562 154 571 q 193 540 182 553 q 204 514 204 528 q 192 479 204 507 q 160 413 179 451 q 119 326 142 374 q 78 232 97 279 q 47 142 60 185 q 33 69 33 100 q 118 201 75 146 q 196 292 161 256 q 252 345 231 328 q 274 363 274 363 q 281 358 276 361 q 289 350 289 353 q 276 338 289 350 q 247 305 264 325 q 210 260 229 285 q 178 213 192 236 q 216 115 183 167 q 289 14 249 63 l 299 14 q 383 1 342 10 q 456 -19 419 -6 q 521 -53 493 -32 m 479 -131 q 504 -136 492 -136 q 526 -129 519 -136 q 533 -121 531 -125 q 499 -82 528 -97 q 436 -58 469 -67 q 347 -44 397 -49 q 389 -83 365 -67 q 432 -110 413 -99 q 479 -131 456 -122 z "},"u":{"ha":343,"x_min":-18,"x_max":371,"o":"m 364 161 q 371 156 371 157 q 362 121 371 150 q 336 58 353 92 q 295 -2 319 25 q 240 -29 271 -29 q 188 1 213 -29 q 164 79 164 31 q 144 51 156 65 q 119 24 133 36 q 89 5 106 13 q 54 -3 72 -3 q 5 24 28 -3 q -18 100 -18 50 q -9 171 -18 133 q 13 242 0 208 q 38 303 25 276 q 57 346 50 331 l 56 346 q 71 374 64 360 q 83 397 78 385 q 90 417 88 408 q 102 410 92 417 q 124 394 113 404 q 144 371 135 383 q 154 346 154 358 q 138 299 154 331 q 100 228 121 267 q 63 149 79 190 q 46 74 46 108 q 51 46 46 57 q 72 35 56 35 q 119 58 92 35 q 169 136 146 81 q 197 228 179 185 q 224 290 214 271 q 236 318 231 304 q 246 341 242 329 q 253 361 250 353 q 265 355 254 361 q 289 338 276 349 q 311 315 301 328 q 321 290 321 303 q 307 247 321 274 q 276 187 293 219 q 244 119 258 154 q 231 51 231 83 q 250 6 231 6 q 300 44 269 6 q 356 160 331 82 q 358 161 356 161 q 364 161 361 161 z "},"h":{"ha":319,"x_min":-43,"x_max":351,"o":"m 344 161 q 351 156 351 157 q 342 126 351 151 q 315 72 332 101 q 273 20 297 43 q 219 -3 249 -3 q 165 30 188 -3 q 143 107 143 63 q 147 151 143 132 q 157 193 150 169 q 125 133 142 165 q 93 71 108 101 q 66 14 78 40 q 50 -28 54 -12 q 31 -54 44 -44 q 3 -64 18 -64 q -28 -50 -14 -64 q -43 0 -43 -36 q -33 83 -43 33 q -6 187 -22 132 q 28 297 10 242 q 65 399 47 353 q 96 479 82 446 q 114 524 110 513 q 124 554 118 539 q 131 579 128 567 q 135 600 135 592 q 149 594 136 599 q 176 581 161 589 q 201 560 190 572 q 213 533 213 549 q 206 497 213 517 q 183 449 199 483 q 146 369 167 414 q 102 272 125 324 q 60 170 79 219 q 29 79 42 121 q 17 13 17 38 q 18 14 17 14 q 118 183 76 119 q 185 284 160 247 q 222 337 211 321 q 229 363 233 353 q 241 356 231 363 q 263 340 251 350 q 283 317 274 329 q 293 293 293 306 q 289 274 293 286 q 267 228 281 251 q 241 182 254 206 q 219 133 228 158 q 210 81 210 107 q 213 52 210 65 q 231 39 217 39 q 279 67 250 39 q 336 160 308 96 q 339 161 336 161 q 344 161 342 161 z "},"a":{"ha":367,"x_min":-19,"x_max":388,"o":"m 381 161 q 388 156 388 157 q 378 121 388 150 q 353 58 369 92 q 312 -2 336 25 q 257 -29 288 -29 q 215 -12 236 -29 q 183 49 193 6 q 170 33 178 42 q 151 16 163 24 q 123 3 139 8 q 83 -3 107 -3 q 31 13 51 -3 q 0 50 11 28 q -15 95 -11 72 q -19 135 -19 118 q -4 216 -19 174 q 38 293 11 258 q 102 350 65 328 q 183 372 139 372 q 231 363 214 372 q 264 344 249 354 q 267 353 267 349 q 269 361 268 358 q 282 355 271 361 q 306 338 293 349 q 328 316 318 328 q 338 292 338 304 q 333 270 338 281 q 324 249 329 260 l 322 249 q 298 203 311 228 q 274 154 285 179 q 255 103 263 129 q 247 51 247 76 q 267 6 247 6 q 317 44 286 6 q 372 160 347 82 q 375 161 372 161 q 381 161 378 161 m 181 75 q 196 172 181 122 q 226 258 211 222 q 200 281 214 272 q 169 290 186 290 q 122 275 146 290 q 76 235 97 260 q 42 181 56 211 q 29 119 29 150 q 31 89 29 104 q 41 60 33 74 q 62 38 49 46 q 99 29 75 29 q 143 42 122 29 q 181 75 164 54 z "},"b":{"ha":307,"x_min":-28,"x_max":329,"o":"m 326 150 q 329 144 329 147 q 319 128 329 143 q 288 97 308 114 q 239 64 268 79 q 172 46 210 49 q 148 31 160 39 q 123 15 136 22 q 92 1 110 7 q 49 -4 74 -4 q -6 13 15 -4 q -28 81 -28 29 q -10 194 -28 128 q 28 322 7 260 q 72 435 50 385 q 101 504 93 486 l 111 533 q 119 558 115 546 q 122 579 122 571 q 138 573 125 578 q 164 560 150 568 q 189 540 178 551 q 200 511 200 528 q 185 460 200 492 q 138 361 169 428 q 178 367 154 367 q 228 356 208 367 q 260 328 249 344 q 277 292 272 311 q 282 256 282 272 q 261 157 282 197 q 221 92 240 117 q 269 110 250 100 q 299 131 288 121 q 316 147 311 140 q 321 153 321 153 q 326 150 321 153 m 32 50 q 56 35 33 35 q 111 51 79 35 q 66 74 85 51 q 40 114 47 97 q 33 77 35 93 q 32 50 32 61 m 157 85 q 203 145 182 106 q 224 225 224 185 q 221 263 224 249 q 214 283 218 276 q 205 292 210 290 q 194 294 200 294 q 150 280 169 294 q 118 244 131 265 q 99 199 106 224 q 92 157 92 175 q 106 109 92 129 q 157 85 121 89 z "},"c":{"ha":299,"x_min":-18,"x_max":325,"o":"m 321 165 q 325 160 325 164 q 294 99 318 129 q 239 44 271 68 q 172 4 207 19 q 106 -11 136 -11 q 51 2 74 -11 q 13 35 28 15 q -10 81 -3 56 q -18 129 -18 106 q 22 285 -18 215 q 147 383 61 354 q 172 388 160 388 q 221 372 203 388 q 249 335 239 356 q 261 297 258 315 q 264 274 264 278 q 260 240 264 258 q 250 204 257 221 q 231 176 243 188 q 201 165 218 165 q 179 168 190 165 q 158 174 168 171 q 136 182 147 178 q 160 219 151 201 q 171 251 168 238 q 175 279 175 267 q 158 301 175 301 q 123 286 143 301 q 83 247 103 271 q 51 191 64 222 q 38 128 38 160 q 63 57 38 85 q 125 29 88 29 q 163 36 144 29 q 197 52 181 43 q 228 72 214 61 q 251 90 242 82 q 289 125 278 111 q 304 148 300 139 q 310 161 308 157 q 321 165 313 165 z "},"l":{"ha":122,"x_min":-40,"x_max":235,"o":"m 156 651 q 171 646 158 651 q 198 631 183 640 q 224 610 213 622 q 235 583 235 597 q 230 558 235 571 q 219 533 225 544 q 191 472 210 513 q 150 380 172 431 q 104 274 128 329 q 62 167 81 218 q 31 74 43 117 q 19 8 19 32 q 20 1 19 6 q 24 -3 21 -3 q 59 22 31 -3 q 132 119 88 47 q 147 131 143 131 q 150 124 150 129 q 133 81 150 111 q 94 19 117 50 q 47 -36 71 -12 q 7 -60 22 -60 q -6 -59 1 -60 q -22 -53 -14 -58 q -35 -35 -29 -47 q -40 -3 -40 -24 q -31 71 -40 26 q -8 167 -22 115 q 26 276 7 219 q 64 388 44 333 q 101 490 83 442 q 135 575 119 539 q 144 606 139 590 q 152 631 149 618 q 156 651 156 643 z "},"e":{"ha":296,"x_min":-17,"x_max":307,"o":"m 304 125 q 307 119 307 122 q 258 51 286 81 q 198 6 235 26 q 113 -15 161 -15 q 51 0 76 -15 q 11 38 26 15 q -10 88 -4 61 q -17 135 -17 114 q -1 226 -17 182 q 40 304 14 269 q 100 360 67 339 q 169 381 133 381 q 238 356 214 381 q 263 301 263 331 q 250 246 263 272 q 216 199 238 219 q 165 167 194 179 q 104 156 136 156 q 67 160 82 156 q 44 172 51 165 q 36 122 36 147 q 60 52 36 83 q 125 21 85 21 q 187 38 156 21 q 236 67 218 54 q 269 93 257 82 q 286 112 281 104 q 294 123 292 119 q 299 126 296 126 q 304 125 301 126 m 85 254 q 50 193 65 226 q 68 192 54 192 q 108 201 89 192 q 142 225 128 211 q 166 255 157 239 q 175 282 175 271 q 156 300 175 300 q 123 290 142 300 q 85 254 104 279 z "},"-":{"ha":344,"x_min":44,"x_max":296,"o":"m 90 296 q 188 297 143 296 q 258 301 225 299 q 294 308 290 303 l 294 296 q 295 284 294 290 q 296 271 296 278 q 291 256 296 263 q 267 250 286 250 q 222 253 246 251 q 178 255 203 254 q 131 256 154 256 q 80 253 103 256 q 49 247 57 251 l 46 256 q 44 272 44 260 q 52 288 44 279 q 90 296 60 296 z "},".":{"ha":149,"x_min":46,"x_max":106,"o":"m 103 22 q 104 19 103 21 q 105 17 104 18 q 106 13 106 15 q 95 -5 106 6 q 85 -46 85 -15 q 86 -56 85 -53 l 78 -56 q 58 -53 71 -56 q 46 -33 46 -51 q 53 -15 46 -24 q 60 22 60 -7 q 57 32 60 26 q 76 31 67 32 q 92 27 83 29 q 103 22 100 25 z "},"/":{"ha":314,"x_min":38,"x_max":283,"o":"m 274 514 q 229 383 254 450 q 179 253 204 317 q 131 132 154 189 q 88 33 107 75 q 59 -35 69 -10 q 50 -60 49 -60 q 44 -58 47 -60 q 39 -56 42 -58 q 38 -53 38 -54 q 52 3 40 -42 q 80 110 64 49 q 115 242 96 172 q 149 375 133 313 q 175 483 164 438 q 188 539 186 528 q 190 569 189 551 q 192 599 192 588 q 222 588 204 592 q 256 577 240 585 q 277 556 271 569 q 274 514 283 542 z "}," ":{"ha":167,"x_min":0,"x_max":0,"o":""},"!":{"ha":333,"x_min":42,"x_max":296,"o":"m 97 71 q 99 68 97 69 q 101 58 101 63 q 90 42 101 53 q 79 0 79 31 q 81 -8 79 -6 q 70 -8 76 -8 q 58 -6 64 -8 q 47 0 51 -4 q 42 14 42 4 q 48 31 42 24 q 54 68 54 38 q 51 79 54 74 q 71 78 61 79 q 86 75 78 76 q 97 71 94 74 m 207 694 q 231 692 214 696 q 263 675 247 688 q 287 642 278 663 q 288 593 296 622 l 275 550 q 194 335 231 424 q 133 192 158 247 q 94 113 108 138 q 82 88 81 88 q 75 89 76 88 q 74 92 74 90 q 81 133 74 100 q 101 213 89 165 q 128 315 114 260 q 157 424 143 371 q 182 524 171 478 q 199 600 193 571 q 204 628 201 611 q 207 694 207 646 z "},"+":{"ha":331,"x_min":40,"x_max":290,"o":"m 196 299 q 258 302 231 300 q 289 308 285 304 l 289 296 q 290 285 289 290 q 290 272 290 279 q 286 257 290 264 q 264 250 282 250 q 242 251 254 250 q 215 253 231 253 q 179 254 199 253 q 158 185 167 215 q 149 147 149 154 q 138 149 146 147 q 121 156 129 151 q 106 166 113 160 q 100 183 100 172 q 100 185 100 186 q 102 189 100 185 q 111 208 104 193 q 132 256 118 222 q 76 254 101 256 q 43 247 51 253 q 42 253 42 250 q 40 264 40 256 q 46 283 40 276 q 51 289 51 288 q 58 292 51 290 q 85 294 65 293 q 150 297 104 294 q 173 358 164 331 q 182 399 182 385 q 189 395 183 396 q 201 392 194 394 q 213 381 207 389 q 218 358 218 374 q 217 353 218 356 q 215 346 217 351 q 208 329 213 340 q 196 299 203 318 z "},"?":{"ha":493,"x_min":65,"x_max":446,"o":"m 119 79 q 129 78 121 79 q 147 76 138 78 q 163 71 156 75 q 169 60 169 67 q 158 41 169 53 q 146 -1 146 29 q 147 -10 146 -7 l 139 -10 q 119 -6 129 -10 q 108 13 108 -3 q 115 31 108 22 q 122 69 122 39 q 119 79 122 74 m 210 663 q 272 672 238 672 q 340 660 308 672 q 396 624 372 647 q 433 571 419 601 q 446 504 446 540 q 418 404 446 449 q 353 324 390 360 q 277 261 315 289 q 219 210 239 233 q 176 148 188 172 q 160 110 164 124 q 157 92 157 97 q 149 86 157 86 q 142 89 143 86 q 140 94 140 92 q 146 122 140 101 q 165 169 151 142 q 199 226 178 196 q 253 285 221 257 q 303 331 278 306 q 348 383 328 356 q 381 438 368 410 q 393 496 393 467 q 359 577 393 551 q 286 603 325 603 q 222 588 247 603 q 181 551 196 572 q 159 504 165 529 q 153 458 153 479 q 171 374 153 406 q 213 322 189 342 q 204 317 213 322 q 184 307 196 313 q 158 297 172 301 q 133 293 144 293 q 117 299 126 293 q 93 328 107 306 l 93 329 q 83 343 88 329 q 74 376 78 357 q 67 413 69 394 q 65 443 65 432 q 74 510 65 476 q 99 574 82 544 q 144 627 117 604 q 210 663 171 650 z "},"C":{"ha":497,"x_min":15,"x_max":596,"o":"m 182 -68 q 115 -53 146 -68 q 63 -12 85 -37 q 29 49 42 14 q 17 125 17 85 q 49 292 15 207 q 140 444 83 376 q 274 556 197 513 q 433 599 350 599 q 553 575 513 599 q 596 524 593 551 q 594 515 596 518 q 549 431 564 467 q 528 370 535 394 q 521 333 522 346 q 515 315 519 319 l 513 314 q 463 328 481 317 q 438 354 446 340 q 425 390 428 369 q 434 431 425 401 q 468 504 443 461 q 432 508 451 508 q 315 475 376 508 q 202 388 254 442 q 116 263 150 333 q 82 119 82 193 q 87 64 82 90 q 104 19 92 38 q 139 -11 117 0 q 196 -22 161 -22 q 265 -12 231 -22 q 332 14 300 -3 q 391 52 364 31 q 438 97 418 74 q 488 166 472 139 q 509 209 503 193 q 517 231 515 225 q 529 236 519 236 q 535 233 533 236 q 536 228 536 231 q 528 194 536 218 q 503 141 521 171 q 458 76 486 111 q 389 11 429 42 q 349 -15 372 -1 q 300 -41 326 -29 q 243 -60 274 -53 q 182 -68 213 -68 z "},"O":{"ha":614,"x_min":6,"x_max":643,"o":"m 178 -47 q 52 31 93 -31 q 8 175 11 92 q 23 292 6 233 q 71 404 40 351 q 141 499 101 457 q 222 567 181 542 q 250 583 236 575 q 272 597 261 590 q 288 610 282 604 q 292 601 288 610 q 302 579 297 592 q 310 553 307 567 q 313 529 314 539 q 307 517 313 525 q 286 497 301 508 q 213 451 250 482 q 144 377 175 419 q 92 284 114 335 q 67 178 71 233 q 74 91 63 128 q 106 30 85 54 q 155 -7 126 6 q 215 -22 183 -19 q 311 -13 268 -26 q 393 40 354 0 l 376 49 q 319 94 340 65 q 285 157 297 124 q 271 226 274 190 q 271 294 268 263 q 290 390 275 340 q 330 480 304 439 q 392 546 356 521 q 474 567 428 571 q 532 541 510 564 q 565 485 554 518 q 579 416 576 453 q 581 349 582 379 q 565 267 576 307 q 537 189 553 226 q 501 120 521 151 q 464 67 482 89 q 526 76 501 64 q 572 107 551 88 q 604 142 593 128 q 621 167 615 157 q 628 181 626 176 q 635 185 631 185 q 642 181 640 185 q 643 176 643 178 q 633 147 643 172 q 599 94 622 122 q 539 44 576 65 q 444 28 501 24 q 428 31 439 28 q 376 -9 403 8 q 319 -37 350 -26 q 254 -51 289 -49 q 178 -47 219 -54 m 329 254 q 344 149 324 200 q 421 75 365 99 q 448 122 433 94 q 475 180 463 149 q 496 243 488 211 q 507 304 504 275 q 507 392 511 357 q 494 447 503 426 q 476 475 486 467 q 458 483 467 483 q 416 463 438 485 q 376 407 394 442 q 344 331 357 372 q 329 254 332 290 z "},"W":{"ha":788,"x_min":21,"x_max":1146,"o":"m 1056 604 q 1088 600 1072 604 q 1117 587 1104 596 q 1138 563 1129 578 q 1146 525 1146 547 q 1142 493 1146 511 l 1140 492 q 1135 489 1138 489 q 1125 492 1131 489 q 1110 499 1119 496 q 1085 504 1101 501 q 1043 507 1069 507 q 973 502 1006 507 q 910 490 940 497 q 849 476 881 483 q 782 465 818 469 q 782 383 785 433 q 768 275 779 332 q 738 161 757 218 q 688 58 718 104 q 617 -17 658 11 q 521 -46 575 -46 q 478 -33 497 -46 q 445 -3 460 -21 q 420 32 431 14 q 403 61 410 50 q 385 44 396 54 q 362 26 375 35 q 333 10 349 17 q 299 3 317 3 q 253 16 272 3 q 221 49 233 29 q 203 93 208 69 q 197 139 197 117 q 215 239 197 188 q 257 337 232 290 q 310 422 282 383 q 360 486 338 461 q 289 459 332 479 q 206 408 246 439 q 136 334 165 376 q 107 239 107 292 q 108 224 107 228 q 118 220 110 218 q 136 228 126 222 q 156 244 146 235 q 169 263 165 254 q 178 271 172 268 q 188 274 183 274 q 196 269 193 274 q 194 254 199 265 q 184 228 190 246 q 167 194 178 211 q 138 164 156 176 q 96 151 121 151 q 63 160 76 151 q 39 183 49 169 q 25 214 29 197 q 21 246 21 231 q 58 361 21 310 q 151 449 94 413 q 274 503 207 485 q 401 522 340 522 q 416 516 410 522 q 419 506 422 510 q 388 464 413 494 q 335 389 363 433 q 283 288 307 344 q 256 169 260 232 q 258 117 253 138 q 272 86 264 97 q 289 70 281 75 q 300 65 297 65 l 303 65 q 331 72 318 65 q 355 88 344 79 q 373 107 365 97 q 385 122 381 117 q 376 265 365 193 q 413 394 386 336 q 478 488 440 451 q 551 524 515 524 q 583 515 569 524 q 604 494 596 507 q 617 467 613 482 q 621 439 621 451 q 607 347 621 394 q 572 257 593 300 q 523 178 550 214 q 471 121 496 143 q 477 99 472 113 q 488 73 482 86 q 502 49 494 60 q 518 36 510 38 q 576 47 547 28 q 632 101 606 65 q 681 186 658 138 q 718 285 703 235 q 740 383 733 335 q 743 465 747 431 q 694 488 710 469 q 679 525 679 507 q 698 575 679 558 q 732 589 717 592 q 761 560 753 585 q 774 518 769 535 q 908 576 840 550 q 1056 604 976 601 m 718 533 q 725 519 718 524 q 740 513 732 514 q 742 519 742 513 q 741 535 742 526 q 738 550 740 543 q 729 556 735 557 q 719 547 721 551 q 718 533 718 543 m 460 214 q 460 203 460 203 q 461 193 460 204 q 492 253 474 215 q 526 328 511 290 q 548 394 542 365 q 542 426 554 422 q 512 400 526 424 q 486 344 497 376 q 467 276 475 311 q 460 214 460 240 z "},"d":{"ha":375,"x_min":-17,"x_max":413,"o":"m 361 63 q 347 43 356 54 q 324 22 338 32 q 294 4 311 11 q 257 -3 278 -3 q 220 6 242 -3 q 192 42 199 15 q 154 13 181 31 q 92 -6 128 -6 q 40 9 61 -6 q 7 44 19 24 q -11 90 -6 65 q -17 135 -17 114 q -3 209 -17 168 q 38 286 11 250 q 101 347 64 322 q 185 371 139 371 q 223 367 206 371 q 253 356 240 363 q 290 447 274 408 q 314 504 306 485 l 324 533 q 331 558 328 546 q 335 579 335 571 q 350 573 338 578 q 376 560 363 568 q 401 540 390 551 q 413 513 413 528 q 411 497 413 506 q 406 478 410 489 q 369 402 396 456 q 315 286 343 349 q 265 163 286 224 q 243 68 243 103 q 267 39 243 39 q 325 67 290 39 q 388 160 360 96 q 390 161 388 160 q 400 157 396 161 l 403 154 q 394 122 403 149 q 361 63 385 96 m 186 67 q 185 86 185 72 q 196 174 185 125 q 224 271 207 222 q 172 289 201 289 q 119 272 144 289 q 74 227 93 254 q 42 168 54 200 q 31 106 31 136 q 55 47 31 65 q 110 28 79 28 q 152 38 132 28 q 186 67 172 47 z "},"f":{"ha":203,"x_min":-61,"x_max":244,"o":"m 22 -212 q 8 -214 17 -214 q -31 -204 -17 -214 q -51 -181 -44 -194 q -60 -151 -58 -167 q -61 -122 -61 -135 q -49 -21 -61 -76 q -21 90 -37 35 q 14 197 -4 146 q 44 286 32 249 q 5 351 18 331 q -8 375 -8 371 q -6 380 -8 378 q 0 382 -3 382 q 36 377 17 379 q 75 372 56 375 q 104 447 93 418 q 126 504 115 476 l 136 533 q 144 558 140 546 q 147 579 147 571 q 163 573 150 578 q 189 560 175 568 q 214 540 203 551 q 225 513 225 528 q 219 483 225 500 q 203 446 213 465 q 184 405 194 426 q 165 363 174 383 q 228 356 213 358 q 244 351 244 354 q 219 347 244 347 q 157 344 193 346 q 133 288 144 317 q 108 228 121 260 q 131 184 118 208 q 156 132 144 160 q 174 72 167 104 q 182 1 182 39 q 163 -92 182 -53 q 117 -158 143 -132 q 65 -197 92 -183 q 22 -212 38 -211 m 38 336 q 46 326 42 331 q 54 314 50 321 q 59 328 57 321 q 64 343 61 336 q 40 343 46 343 q 35 340 35 343 q 38 336 35 339 m 10 -92 q 8 -109 8 -100 q 7 -128 7 -118 q 10 -149 7 -140 q 25 -158 14 -158 q 76 -138 54 -158 q 112 -90 97 -118 q 133 -31 126 -61 q 140 21 140 0 q 126 112 140 68 q 94 192 111 156 q 44 52 68 125 q 10 -92 21 -21 z "},"g":{"ha":332,"x_min":-56,"x_max":354,"o":"m 344 346 q 346 336 346 343 q 340 313 346 325 q 268 157 307 242 q 200 -14 229 72 q 254 -18 226 -15 q 304 -28 282 -21 q 340 -51 326 -36 q 354 -89 354 -65 q 346 -125 354 -107 q 323 -157 338 -143 q 290 -180 308 -171 q 250 -189 271 -189 q 182 -161 214 -189 q 143 -89 150 -133 q 85 -97 118 -92 q 21 -107 51 -101 q -31 -119 -10 -112 q -51 -132 -51 -126 q -56 -101 -56 -115 q -49 -67 -56 -81 q -33 -44 -42 -53 q -15 -32 -24 -36 q -1 -26 -6 -28 q 68 -19 32 -21 q 149 -14 104 -17 q 151 -2 150 -7 q 154 10 153 3 q 128 -1 142 4 q 93 -7 114 -7 q 39 8 60 -7 q 6 43 18 22 q -10 88 -6 64 q -17 129 -15 111 q -3 209 -17 167 q 37 287 11 251 q 99 346 63 322 q 181 372 135 369 q 228 367 208 372 q 263 354 247 361 q 276 376 269 365 q 283 400 282 388 q 311 383 299 392 q 332 367 322 376 q 344 346 342 357 m 281 -72 q 230 -78 257 -72 q 161 -86 203 -83 q 171 -87 165 -87 q 178 -89 175 -89 q 185 -90 182 -89 q 212 -139 192 -118 q 258 -160 232 -160 q 299 -144 276 -160 q 322 -97 322 -129 q 313 -79 322 -86 q 281 -72 304 -72 m 163 49 q 197 168 178 111 q 232 269 217 225 q 176 289 208 289 q 126 274 151 289 q 81 236 101 260 q 47 183 60 213 q 33 121 33 153 q 36 88 33 104 q 46 58 39 71 q 67 35 53 44 q 104 26 81 26 q 121 28 111 26 q 140 33 131 31 q 156 40 150 36 q 163 49 163 44 z "},"i":{"ha":171,"x_min":-25,"x_max":199,"o":"m 53 -3 q -6 28 13 -3 q -25 99 -25 60 q -12 183 -25 140 q 15 264 0 226 q 44 331 31 301 q 60 374 57 360 q 69 367 58 371 q 92 354 79 363 q 115 333 104 346 q 126 299 126 319 q 111 263 126 282 q 63 168 88 218 q 39 74 39 118 q 43 49 39 58 q 63 39 47 39 q 121 67 86 39 q 183 160 156 96 q 186 161 183 160 q 196 157 192 161 l 199 154 q 192 131 199 156 q 169 77 186 107 q 124 22 153 47 q 53 -3 96 -3 m 179 415 q 158 390 172 400 q 129 381 144 381 q 101 394 110 381 q 93 426 93 408 q 106 463 93 449 q 139 476 119 476 q 171 464 158 476 q 183 433 183 451 q 179 415 183 424 z "},"j":{"ha":176,"x_min":-257,"x_max":206,"o":"m 0 200 q 35 290 19 250 q 68 374 50 329 q 77 367 67 371 q 100 354 88 363 q 124 333 113 346 q 135 301 135 319 q 132 285 135 293 q 105 235 119 261 q 78 181 90 208 q 56 127 65 154 q 47 75 47 100 q 51 49 47 58 q 71 39 56 39 q 129 67 94 39 q 192 160 164 96 q 194 161 192 160 q 203 157 199 161 l 206 154 q 199 130 206 154 q 176 76 192 106 q 132 22 160 46 q 61 -3 104 -3 q 33 3 47 -3 q 6 24 18 8 q -4 3 0 13 q -14 -17 -8 -7 q 76 -28 50 -25 q 103 -53 103 -31 q 100 -103 103 -82 q 94 -125 97 -125 q 27 -104 64 -117 q -49 -81 -10 -92 q -109 -146 -81 -126 q -174 -165 -137 -165 q -201 -162 -186 -165 q -228 -150 -215 -158 q -249 -128 -240 -142 q -257 -93 -257 -114 q -243 -50 -257 -67 q -212 -24 -229 -33 q -176 -11 -194 -14 q -150 -8 -158 -8 q -118 -8 -135 -8 q -82 -11 -101 -8 l -82 -10 q -38 100 -58 46 q 0 200 -18 154 m -107 -74 q -90 -73 -97 -74 q -71 -75 -82 -72 l -104 -65 l -103 -65 q -136 -56 -119 -60 q -168 -53 -153 -53 q -210 -65 -192 -53 q -229 -101 -229 -78 q -216 -127 -229 -121 q -186 -133 -203 -133 q -147 -121 -167 -133 q -107 -74 -126 -108 m 106 450 q 147 476 117 476 q 178 463 167 476 q 190 432 190 450 q 173 397 190 413 q 136 381 156 381 q 109 394 118 381 q 100 425 100 408 q 101 438 100 432 q 106 450 103 443 z "},"m":{"ha":476,"x_min":-29,"x_max":508,"o":"m 226 28 q 206 1 219 6 q 186 -4 192 -4 q 141 21 153 -4 q 129 88 129 46 q 135 148 129 117 q 150 210 140 179 q 113 126 129 165 q 81 59 96 88 q 53 14 67 31 q 26 -3 40 -3 q -17 19 -6 -3 q -29 85 -29 42 q -15 191 -29 138 q 19 288 0 244 q 53 360 38 332 q 71 388 68 388 q 96 382 82 388 q 124 369 110 376 q 156 353 139 363 q 124 297 144 331 q 85 224 104 263 q 50 144 65 185 q 35 69 35 104 q 144 258 100 189 q 206 344 189 328 q 221 372 214 358 q 239 414 233 396 q 251 408 240 414 q 272 391 261 401 q 293 369 283 381 q 303 344 303 357 q 286 294 303 325 q 250 228 269 264 q 213 151 231 192 q 194 68 196 110 q 291 230 253 174 q 353 317 329 286 q 391 367 378 349 q 411 414 404 385 q 422 408 411 414 q 443 392 432 401 q 464 370 454 382 q 474 347 474 358 q 458 295 474 328 q 422 225 442 263 q 385 149 401 188 q 369 75 369 110 q 373 49 369 60 q 388 39 376 39 q 436 67 407 39 q 493 160 465 96 q 496 161 493 160 q 506 157 501 161 l 508 154 q 499 126 508 151 q 473 73 490 101 q 431 21 456 44 q 376 -3 407 -3 q 327 23 350 -3 q 304 99 304 49 q 315 176 304 135 q 340 256 326 218 q 306 191 325 228 q 270 119 288 154 q 240 59 253 85 q 226 28 228 33 z "},"n":{"ha":339,"x_min":-33,"x_max":364,"o":"m 181 47 q 161 121 161 75 q 169 188 161 158 q 192 256 178 218 q 160 198 179 232 q 124 128 142 164 q 91 62 106 93 q 72 15 76 31 q 69 6 72 15 q 58 -12 65 -3 q 42 -31 51 -22 q 22 -39 33 -39 q -22 -13 -11 -39 q -33 54 -33 13 q -22 144 -33 100 q 3 225 -11 189 q 29 285 17 261 q 44 315 42 310 q 61 355 53 332 q 72 388 69 378 q 88 381 76 388 q 109 363 99 374 q 128 340 119 353 q 136 317 136 328 q 119 264 136 293 q 83 201 103 235 q 46 129 63 167 q 29 50 29 92 q 31 33 29 39 q 110 178 76 121 q 169 272 144 236 q 211 327 194 307 q 238 360 228 347 q 254 384 249 374 q 264 414 260 394 q 276 408 265 414 q 297 391 286 401 q 318 369 308 381 q 328 344 328 357 q 326 329 328 340 q 318 313 324 318 q 291 263 307 289 q 260 210 275 238 q 235 153 246 182 q 225 97 225 125 q 228 72 225 82 q 244 61 232 61 q 292 90 263 61 q 350 182 322 118 q 353 183 350 182 q 361 179 357 183 l 364 176 q 355 149 364 174 q 329 96 346 125 q 288 43 313 67 q 233 19 264 19 q 207 25 221 19 q 181 47 193 31 z "},"o":{"ha":300,"x_min":-17,"x_max":313,"o":"m 283 272 q 285 259 285 265 q 285 246 285 253 q 263 151 285 196 q 219 78 242 106 q 236 75 225 75 q 260 80 249 75 q 281 91 271 85 q 297 102 290 97 q 308 107 304 107 q 313 100 313 107 q 308 84 313 94 q 292 63 303 74 q 263 45 282 53 q 218 38 244 38 q 183 44 201 38 q 151 16 176 35 q 90 -3 125 -3 q 41 10 61 -3 q 8 42 21 22 q -10 83 -4 61 q -17 126 -17 106 q 1 223 -17 181 q 42 296 19 265 q 88 344 65 326 q 118 364 110 361 q 126 360 121 364 q 142 339 131 357 q 167 354 153 347 q 203 361 181 361 q 240 351 225 361 q 265 326 256 340 q 278 297 274 313 q 283 272 283 282 m 94 32 q 115 38 101 32 q 149 61 129 43 q 101 122 113 83 q 89 199 89 161 q 90 216 89 207 q 92 233 90 225 q 52 176 68 208 q 36 107 36 144 q 51 52 36 69 q 94 32 67 35 m 213 175 q 217 193 215 183 q 218 213 218 203 q 217 251 218 233 q 207 272 215 269 q 186 261 196 272 q 169 234 176 250 q 156 199 161 218 q 151 164 151 181 q 157 125 151 149 q 179 96 163 101 q 199 131 190 111 q 213 175 207 150 z "},"p":{"ha":318,"x_min":-125,"x_max":339,"o":"m 183 119 q 197 153 190 133 q 210 194 204 174 q 221 232 217 214 q 225 261 225 250 q 218 276 225 276 q 153 261 178 272 q 112 238 128 250 q 88 212 96 225 q 74 190 79 199 q 0 38 33 110 q -58 -87 -33 -33 q -98 -174 -83 -142 q -112 -206 -112 -206 q -122 -202 -119 -206 q -124 -199 -125 -199 q -106 -128 -121 -179 q -72 -14 -92 -78 q -28 120 -51 50 q 14 249 -6 190 q 47 349 33 308 q 60 394 60 389 q 74 390 63 394 q 97 376 85 385 q 120 355 110 367 q 133 331 131 343 q 163 346 138 333 q 217 358 188 358 q 276 334 260 358 q 293 274 293 310 q 277 183 293 229 q 249 110 261 136 q 300 98 282 103 q 327 90 318 93 q 338 85 336 88 q 339 82 339 83 q 332 74 339 74 q 298 79 324 74 q 236 88 272 85 q 175 18 215 46 q 92 -10 135 -10 q 40 7 56 -10 q 24 43 24 24 q 39 85 24 69 q 75 109 54 101 q 118 119 96 117 q 156 121 140 121 q 169 121 163 121 q 183 119 176 121 m 68 49 q 82 38 68 38 q 128 54 100 38 q 167 90 156 71 q 133 87 150 90 q 101 78 115 83 q 77 65 86 72 q 68 49 68 57 z "},"q":{"ha":350,"x_min":-18,"x_max":357,"o":"m 306 -111 q 267 -192 296 -172 q 199 -212 238 -212 q 138 -187 154 -212 q 118 -112 122 -162 q 106 -113 111 -112 q 97 -114 100 -114 q 89 -108 90 -114 q 88 -81 88 -103 q 89 -74 88 -74 q 103 -76 96 -75 q 119 -78 111 -76 q 126 -35 122 -57 q 138 8 131 -14 q 113 0 126 3 q 83 -3 100 -3 q 32 13 51 -3 q 1 50 13 28 q -14 96 -10 72 q -18 136 -18 119 q -5 206 -18 165 q 33 283 8 247 q 94 345 58 319 q 178 371 131 371 q 225 365 206 371 q 260 350 244 358 q 278 381 268 363 q 290 414 288 399 q 303 407 293 414 q 326 389 314 400 q 347 365 338 378 q 357 339 357 351 q 351 324 357 333 q 340 303 346 314 q 299 215 318 258 q 260 117 281 172 q 296 28 282 72 q 310 -69 310 -15 q 309 -85 310 -78 q 307 -99 308 -92 q 339 -101 335 -101 q 343 -106 343 -101 q 333 -110 343 -110 q 306 -111 324 -110 m 247 83 q 224 27 233 50 q 209 -14 215 4 q 199 -49 203 -32 q 190 -86 194 -65 q 233 -91 213 -89 q 274 -96 254 -93 q 275 -81 275 -89 q 275 -62 275 -72 q 267 13 275 -26 q 247 83 260 51 m 143 40 q 149 43 149 43 q 168 100 157 69 q 190 160 179 131 q 210 215 200 189 q 226 263 219 242 q 201 281 215 274 q 169 289 188 289 q 122 274 146 289 q 77 234 97 258 q 44 180 57 210 q 32 119 32 150 q 34 88 32 104 q 43 60 36 72 q 63 39 50 47 q 100 31 76 31 q 123 33 113 31 q 143 40 133 36 m 214 -175 q 251 -157 238 -175 q 271 -111 265 -139 q 229 -112 251 -112 q 186 -112 207 -112 q 184 -129 185 -121 q 183 -144 183 -137 q 189 -167 183 -158 q 214 -175 194 -175 z "},"r":{"ha":294,"x_min":-10,"x_max":325,"o":"m 318 160 q 325 154 325 156 q 316 126 325 151 q 290 73 307 101 q 248 21 272 44 q 193 -3 224 -3 q 144 23 167 -3 q 121 99 121 49 q 133 182 121 139 q 160 263 144 225 q 131 258 144 260 q 101 257 117 257 q 89 257 94 257 q 78 258 83 257 q 38 173 51 204 q 17 126 24 142 q 8 105 11 110 q 1 100 6 100 q -10 107 -10 100 l -10 111 q -8 113 -10 113 q 19 187 3 140 q 43 274 35 233 q 11 310 19 289 q 3 347 3 332 q 6 370 3 363 q 19 378 8 378 q 28 378 22 378 q 40 375 33 378 q 81 365 64 369 q 99 360 99 361 q 93 348 94 350 q 89 343 92 346 q 95 339 89 340 q 110 336 101 338 q 131 334 119 335 q 151 333 142 333 l 190 333 q 207 363 200 347 q 219 389 214 375 q 228 414 225 403 q 239 408 229 414 q 260 392 249 401 q 282 370 272 382 q 292 346 292 358 q 275 293 292 325 q 239 224 258 261 q 203 149 219 188 q 186 75 186 110 q 190 49 186 60 q 204 39 193 39 q 253 67 224 39 q 310 160 282 96 q 313 161 310 160 q 318 160 315 161 z "},"s":{"ha":272,"x_min":-32,"x_max":247,"o":"m 213 354 q 214 343 214 350 q 213 338 214 340 q 211 331 213 335 q 226 247 213 297 q 247 133 240 197 q 233 72 247 99 q 197 26 219 44 q 147 -1 175 8 q 92 -10 119 -10 q 37 1 60 -10 q -1 27 14 11 q -24 62 -17 43 q -32 97 -32 81 q -22 134 -32 118 q 8 153 -11 150 q 37 201 21 174 q 68 258 53 229 q 97 312 83 286 q 122 357 111 338 q 124 372 122 363 q 131 392 126 382 q 140 408 135 401 q 149 414 144 414 l 147 414 q 156 408 147 413 q 176 396 165 403 q 198 378 188 389 q 213 354 208 368 m 82 42 q 115 47 99 42 q 144 63 131 53 q 167 89 158 74 q 175 122 175 104 q 169 161 175 139 q 154 208 163 183 q 138 255 146 232 q 126 296 131 278 q 76 224 103 261 q 29 158 50 188 q 74 165 57 165 q 90 167 92 165 q 93 165 92 167 q 96 157 96 163 q 81 150 96 153 q 49 142 67 147 q 16 128 31 136 q 1 103 1 119 q 8 84 1 94 q 24 65 14 74 q 50 49 35 56 q 82 42 65 42 z "},"":{"ha":388,"x_min":42,"x_max":349,"o":"m 344 407 q 347 403 344 404 q 349 400 349 401 q 341 394 349 397 q 307 392 333 392 q 250 403 282 392 q 197 446 218 414 q 165 431 182 435 q 132 426 149 426 q 98 431 114 426 q 69 440 82 435 q 49 451 57 446 q 42 458 42 456 l 47 467 q 68 460 50 465 q 110 456 86 456 q 149 463 133 456 q 176 478 165 469 q 192 493 186 486 q 206 500 199 500 q 226 492 221 500 q 235 472 231 483 q 246 447 239 460 q 274 425 253 433 q 318 412 297 414 q 344 408 339 410 l 344 407 z "},"":{"ha":253,"x_min":49,"x_max":206,"o":"m 154 513 q 164 511 156 511 q 181 509 172 511 q 198 503 190 507 q 206 490 206 499 q 195 472 206 483 q 185 425 185 460 q 186 413 185 417 l 178 413 q 158 417 169 413 q 146 440 146 421 q 147 448 146 444 q 151 458 149 451 q 155 474 153 464 q 157 500 157 483 q 154 513 157 507 m 57 513 q 67 511 58 511 q 85 510 75 511 q 101 503 94 508 q 108 489 108 499 q 107 479 108 482 q 97 461 101 471 q 88 424 88 442 q 89 413 88 415 l 81 413 q 60 417 72 413 q 49 439 49 421 q 50 447 49 444 q 53 455 51 450 q 58 469 56 460 q 60 499 60 479 q 57 513 60 507 z "},"":{"ha":349,"x_min":36,"x_max":299,"o":"m 128 475 q 101 484 113 479 q 75 489 89 489 q 53 479 57 489 q 49 465 49 469 q 49 458 49 461 q 50 454 50 456 q 49 452 49 454 q 43 450 49 450 q 39 454 40 451 q 36 467 36 460 q 49 497 36 486 q 76 508 61 508 q 145 500 110 508 q 203 492 181 492 q 235 497 221 492 q 253 535 250 503 q 265 534 257 535 q 280 530 272 533 q 293 521 288 526 q 299 504 299 515 q 283 468 299 489 q 226 447 267 447 q 174 458 200 447 q 128 475 147 468 z "},"":{"ha":228,"x_min":43,"x_max":186,"o":"m 143 58 q 143 47 143 51 q 146 37 143 42 q 156 26 149 32 q 178 8 163 19 q 185 -3 185 1 q 186 -15 186 -8 q 161 -60 181 -50 q 122 -71 142 -71 q 78 -62 94 -71 q 55 -44 63 -54 q 45 -24 47 -33 q 43 -14 43 -15 q 49 2 43 -4 q 63 11 56 8 q 78 15 71 14 q 89 17 86 15 q 96 -8 92 0 q 107 -21 100 -17 q 122 -26 113 -26 l 121 -26 q 138 -29 132 -29 q 154 -12 154 -29 q 150 -2 154 -8 q 140 11 146 4 q 131 25 135 18 q 126 38 126 32 q 131 55 126 49 q 135 63 135 61 q 136 61 135 61 q 138 60 138 61 q 139 60 138 60 q 143 58 140 58 z "},"":{"ha":310,"x_min":38,"x_max":272,"o":"m 242 540 q 248 535 243 540 q 258 522 253 529 q 268 506 264 515 q 272 492 272 497 q 258 462 272 474 q 226 442 244 450 q 186 431 207 435 q 151 428 165 428 q 109 432 129 428 q 73 441 89 436 q 47 451 57 446 q 38 458 38 456 l 40 464 q 41 465 40 465 q 42 467 42 465 l 43 468 q 67 462 47 467 q 110 457 86 457 q 153 463 135 457 q 183 476 171 468 q 203 492 196 485 q 215 504 211 500 q 228 522 219 510 q 242 540 238 533 z "},"":{"ha":332,"x_min":39,"x_max":290,"o":"m 83 296 q 181 297 136 296 q 251 301 218 299 q 288 308 283 303 q 289 300 288 306 q 290 291 289 296 q 290 282 290 286 q 288 260 290 271 q 261 250 285 250 q 217 253 240 251 q 173 255 197 254 q 125 256 149 256 q 74 253 97 256 q 43 247 51 251 q 42 253 42 250 q 40 264 40 256 q 40 271 40 265 q 42 282 39 276 q 55 292 46 288 q 83 296 64 296 m 169 322 q 167 325 168 322 q 164 336 164 331 q 166 344 164 340 q 170 353 168 347 q 174 368 172 358 q 176 393 176 378 q 175 403 176 400 q 184 401 176 401 q 201 400 192 401 q 217 394 210 399 q 224 382 224 390 q 222 372 224 376 q 213 356 217 364 q 203 324 203 339 q 204 314 203 317 q 188 315 200 314 q 169 322 176 315 m 183 226 q 185 224 183 225 q 188 215 188 221 q 186 207 188 210 q 175 190 181 199 q 165 157 165 174 q 167 149 165 151 q 157 148 164 149 q 144 149 150 147 q 133 156 138 151 q 128 171 128 160 q 134 188 128 181 q 140 225 140 194 q 138 236 140 231 q 157 235 147 236 q 172 231 164 233 q 183 226 181 229 z "},"v":{"ha":311,"x_min":-17,"x_max":322,"o":"m 319 144 q 321 143 319 143 q 322 142 321 142 q 322 140 322 142 q 317 135 322 139 q 293 132 311 132 q 269 134 282 132 q 244 142 257 136 q 224 97 238 122 q 191 49 210 71 q 148 11 172 26 q 97 -4 124 -4 q 10 33 36 -4 q -17 121 -17 69 q -10 194 -17 160 q 8 258 -3 229 q 28 309 18 288 q 47 343 39 331 q 65 377 54 356 q 81 414 75 399 q 92 408 82 414 q 113 392 101 401 q 133 370 124 382 q 142 347 142 358 q 128 299 142 325 q 97 242 114 272 q 65 179 79 213 q 51 108 51 146 q 60 67 51 83 q 93 51 69 51 q 132 63 114 51 q 165 90 150 74 q 192 126 181 107 q 214 163 204 146 q 190 201 199 178 q 181 251 181 224 q 183 280 181 260 q 194 321 186 300 q 216 358 201 342 q 256 376 231 374 q 281 361 274 376 q 289 322 289 346 q 284 276 289 301 q 273 228 279 251 q 260 187 267 206 q 250 158 254 168 q 277 146 263 149 q 303 143 292 143 q 314 144 310 143 q 319 144 318 144 m 224 181 q 247 246 235 208 q 260 307 260 283 q 247 328 260 328 q 232 317 239 328 q 219 291 225 306 q 211 260 214 276 q 208 236 208 244 q 213 208 208 221 q 224 181 217 196 z "},"w":{"ha":489,"x_min":-18,"x_max":510,"o":"m 508 135 q 486 131 506 131 q 461 133 475 131 q 432 142 447 135 q 412 97 425 122 q 380 49 399 71 q 338 11 361 26 q 285 -4 314 -4 q 213 18 243 -4 q 174 96 183 40 q 153 64 165 81 q 127 32 142 47 q 94 7 113 17 q 56 -3 76 -3 q 6 23 29 -3 q -18 99 -18 49 q -3 203 -18 157 q 29 286 11 249 q 65 354 47 324 q 88 413 82 385 q 99 406 89 413 q 122 390 110 400 q 143 369 133 381 q 153 346 153 357 q 136 293 153 325 q 100 224 119 261 q 64 149 81 188 q 47 75 47 110 q 52 45 47 57 q 74 33 57 33 q 120 57 93 33 q 171 139 147 81 q 186 232 174 190 q 213 303 199 274 q 240 348 228 332 q 251 364 251 364 q 273 358 260 364 q 299 344 286 351 q 319 331 311 338 q 328 324 328 324 l 328 322 q 300 278 315 303 q 272 225 285 253 q 249 167 258 197 q 240 107 240 138 q 249 67 240 82 q 282 51 258 51 q 321 63 303 51 q 354 92 339 75 q 381 128 369 108 q 401 163 393 147 q 378 199 386 176 q 369 250 369 222 q 375 285 369 263 q 390 328 381 307 q 414 365 400 350 q 444 381 428 381 q 471 366 464 381 q 478 328 478 351 q 473 282 478 307 q 462 233 468 257 q 448 188 456 208 q 436 157 440 168 q 461 146 446 150 q 492 142 476 142 q 507 143 503 142 l 508 143 l 508 142 q 510 139 508 140 q 509 138 510 138 q 508 136 508 138 l 508 135 m 407 188 q 409 184 408 185 q 411 181 410 183 q 421 205 415 189 q 432 240 426 221 q 442 276 438 258 q 446 307 446 294 q 435 328 446 328 q 419 317 426 328 q 407 291 413 306 q 399 260 401 276 q 396 236 396 244 q 407 188 396 208 z "},"x":{"ha":378,"x_min":-101,"x_max":393,"o":"m 389 160 q 393 154 393 157 q 380 123 392 150 q 343 64 368 96 q 328 45 338 57 q 307 22 319 33 q 277 1 294 10 q 239 -7 260 -7 q 197 4 215 -7 q 163 33 178 15 q 138 73 149 51 q 121 114 128 94 q 36 29 75 68 q -31 -37 -3 -10 q -76 -81 -60 -65 q -93 -99 -93 -97 q -99 -97 -96 -99 q -101 -92 -101 -94 q -82 -62 -101 -87 q -33 1 -62 -36 q 31 83 -4 39 q 100 169 67 128 q 86 222 92 197 q 76 268 81 247 q 22 211 53 231 q -31 192 -10 192 q -44 192 -42 192 q -46 194 -46 193 q -40 199 -46 199 q -24 201 -35 199 q 0 214 -14 204 q 29 247 14 224 q 58 299 50 274 q 68 336 65 325 q 67 340 68 339 q 67 342 67 340 q 78 347 67 343 q 103 356 89 351 q 131 363 117 360 q 151 367 144 367 q 156 352 154 367 q 158 317 157 338 q 160 277 160 297 q 161 246 160 257 q 208 303 189 279 q 235 336 228 328 q 256 360 246 349 q 272 380 264 369 q 282 397 279 390 q 301 378 293 388 q 315 360 308 369 q 322 339 322 350 q 320 325 322 336 q 299 293 318 314 l 299 292 l 172 165 q 181 129 175 150 q 194 88 186 108 q 214 54 203 68 q 240 40 225 40 q 273 48 257 40 q 302 67 289 56 q 326 91 315 79 q 343 111 336 103 q 374 152 369 143 q 383 161 379 161 q 389 160 386 161 z "},"y":{"ha":382,"x_min":-64,"x_max":401,"o":"m 396 160 q 401 154 401 156 l 401 156 q 394 131 400 156 q 373 76 389 106 q 329 22 357 47 q 257 -3 301 -3 q 227 3 242 -3 q 200 24 213 8 q 190 3 196 13 q 181 -17 185 -7 q 272 -35 231 -28 q 350 -42 314 -42 q 371 -40 364 -42 q 353 -92 371 -68 q 303 -117 336 -117 q 231 -104 274 -117 q 147 -79 189 -92 q 88 -147 119 -128 q 22 -165 56 -165 q 3 -164 17 -165 q -26 -156 -11 -162 q -52 -134 -40 -149 q -64 -93 -64 -119 q -50 -50 -64 -67 q -17 -24 -36 -33 q 19 -12 1 -15 q 46 -10 38 -10 q 66 -10 57 -10 q 85 -11 75 -11 q 118 1 113 -11 q 132 35 124 14 q 97 8 117 19 q 56 -3 78 -3 q 7 23 31 -3 q -17 99 -17 49 q -8 167 -17 131 q 12 236 0 203 q 36 297 24 269 q 57 340 49 325 l 88 413 q 100 406 89 413 q 122 390 111 400 q 143 369 133 381 q 153 344 153 357 q 137 298 153 329 q 101 228 121 267 q 65 149 81 190 q 49 75 49 108 q 53 45 49 57 q 75 33 58 33 q 132 69 99 33 q 193 194 165 106 q 215 262 206 236 q 232 303 225 288 q 243 328 239 318 q 249 346 247 338 q 290 318 268 336 q 311 272 311 300 q 301 239 311 257 q 259 158 276 194 q 242 74 242 121 q 246 48 242 57 q 265 39 250 39 q 324 67 289 39 q 388 160 360 96 q 390 161 388 160 q 396 160 393 161 m 88 -74 q 103 -72 92 -72 q 111 -73 107 -72 q 118 -74 115 -74 l 125 -74 l 90 -65 q 59 -59 75 -62 q 28 -54 43 -56 q -16 -65 4 -54 q -36 -100 -36 -75 q -22 -126 -36 -118 q 10 -135 -7 -135 q 48 -122 28 -135 q 88 -74 68 -108 z "},"z":{"ha":340,"x_min":-28,"x_max":310,"o":"m 290 163 q 303 153 297 160 q 310 136 310 147 q 290 97 310 117 q 245 59 271 76 q 192 28 219 42 q 147 8 164 14 q 158 -19 151 -7 q 173 -39 165 -31 q 186 -52 181 -47 q 192 -57 192 -57 q 189 -62 192 -62 q 181 -58 188 -62 q 167 -47 175 -54 q 149 -26 158 -39 q 135 3 140 -14 q 104 -6 121 -1 q 68 -11 88 -11 q 30 -2 47 -11 q -1 22 13 7 q -21 56 -14 38 q -28 94 -28 75 q -22 126 -28 114 q 71 245 22 200 q 158 317 119 290 q 91 297 125 306 q 42 289 57 289 q 14 293 24 289 q -1 304 4 297 q -6 320 -6 311 q -7 338 -7 329 l -7 363 q -6 372 -7 368 q 24 364 4 368 q 67 358 43 360 q 117 354 92 356 q 163 353 142 353 q 234 360 200 353 q 292 392 268 368 q 299 369 294 381 q 304 349 301 360 q 307 328 307 339 q 304 310 307 315 q 280 289 301 301 q 227 260 258 276 q 161 223 196 243 q 97 180 126 203 q 47 133 67 157 q 26 83 26 108 q 47 44 26 56 q 92 32 68 32 q 110 33 101 32 q 128 38 118 35 q 144 100 128 75 q 183 140 160 125 q 231 160 206 154 q 272 165 256 165 q 283 164 279 164 q 290 163 288 164 m 147 44 q 176 56 157 49 q 213 75 194 64 q 244 98 231 86 q 258 122 258 110 q 253 129 258 126 q 188 106 221 128 q 147 44 156 85 z "},"'":{"ha":133,"x_min":83,"x_max":194,"o":"m 150 586 q 155 587 153 586 q 160 588 157 588 q 187 574 179 588 q 194 546 194 561 q 178 485 194 513 q 143 440 163 458 q 106 411 124 421 q 86 401 89 401 q 86 403 89 400 q 83 410 83 406 q 97 421 85 413 q 124 450 108 429 q 147 494 142 474 q 151 531 151 515 q 150 557 151 542 q 146 586 149 572 l 150 586 z "},"":{"ha":367,"x_min":-19,"x_max":388,"o":"m 381 161 q 388 156 388 157 q 378 121 388 150 q 353 58 369 92 q 312 -2 336 25 q 257 -29 288 -29 q 215 -12 236 -29 q 183 49 193 6 q 170 33 178 42 q 151 16 163 24 q 123 3 139 8 q 83 -3 107 -3 q 31 13 51 -3 q 0 50 11 28 q -15 95 -11 72 q -19 135 -19 118 q -4 216 -19 174 q 38 293 11 258 q 102 350 65 328 q 183 372 139 372 q 231 363 214 372 q 264 344 249 354 q 267 353 267 349 q 269 361 268 358 q 282 355 271 361 q 306 338 293 349 q 328 316 318 328 q 338 292 338 304 q 333 270 338 281 q 324 249 329 260 l 322 249 q 298 203 311 228 q 274 154 285 179 q 255 103 263 129 q 247 51 247 76 q 267 6 247 6 q 317 44 286 6 q 372 160 347 82 q 375 161 372 161 q 381 161 378 161 m 181 75 q 196 172 181 122 q 226 258 211 222 q 200 281 214 272 q 169 290 186 290 q 122 275 146 290 q 76 235 97 260 q 42 181 56 211 q 29 119 29 150 q 31 89 29 104 q 41 60 33 74 q 62 38 49 46 q 99 29 75 29 q 143 42 122 29 q 181 75 164 54 m 336 540 q 342 535 338 540 q 353 522 347 529 q 363 506 358 515 q 367 492 367 497 q 353 462 367 474 q 320 442 339 450 q 281 431 301 435 q 246 428 260 428 q 203 432 224 428 q 167 441 183 436 q 142 451 151 446 q 132 458 132 456 l 135 464 q 135 465 135 465 q 136 467 136 465 l 138 468 q 161 462 142 467 q 204 457 181 457 q 247 463 229 457 q 278 476 265 468 q 298 492 290 485 q 310 504 306 500 q 323 522 314 510 q 336 540 332 533 z "},"":{"ha":367,"x_min":-19,"x_max":404,"o":"m 381 161 q 388 156 388 157 q 378 121 388 150 q 353 58 369 92 q 312 -2 336 25 q 257 -29 288 -29 q 215 -12 236 -29 q 183 49 193 6 q 170 33 178 42 q 151 16 163 24 q 123 3 139 8 q 83 -3 107 -3 q 31 13 51 -3 q 0 50 11 28 q -15 95 -11 72 q -19 135 -19 118 q -4 216 -19 174 q 38 293 11 258 q 102 350 65 328 q 183 372 139 372 q 231 363 214 372 q 264 344 249 354 q 267 353 267 349 q 269 361 268 358 q 282 355 271 361 q 306 338 293 349 q 328 316 318 328 q 338 292 338 304 q 333 270 338 281 q 324 249 329 260 l 322 249 q 298 203 311 228 q 274 154 285 179 q 255 103 263 129 q 247 51 247 76 q 267 6 247 6 q 317 44 286 6 q 372 160 347 82 q 375 161 372 161 q 381 161 378 161 m 181 75 q 196 172 181 122 q 226 258 211 222 q 200 281 214 272 q 169 290 186 290 q 122 275 146 290 q 76 235 97 260 q 42 181 56 211 q 29 119 29 150 q 31 89 29 104 q 41 60 33 74 q 62 38 49 46 q 99 29 75 29 q 143 42 122 29 q 181 75 164 54 m 400 431 q 402 426 400 428 q 404 424 404 425 q 397 418 404 421 q 363 415 389 415 q 306 426 338 415 q 253 469 274 438 q 221 454 238 458 q 188 450 204 450 q 153 454 169 450 q 125 464 138 458 q 105 474 113 469 q 97 482 97 479 l 103 490 q 124 484 106 489 q 165 479 142 479 q 205 486 189 479 q 231 501 221 493 q 248 517 242 510 q 261 524 254 524 q 281 515 276 524 q 290 495 286 507 q 301 470 294 483 q 329 449 308 457 q 374 435 353 438 q 400 432 394 433 l 400 431 z "},"":{"ha":367,"x_min":-19,"x_max":388,"o":"m 381 161 q 388 156 388 157 q 378 121 388 150 q 353 58 369 92 q 312 -2 336 25 q 257 -29 288 -29 q 215 -12 236 -29 q 183 49 193 6 q 170 33 178 42 q 151 16 163 24 q 123 3 139 8 q 83 -3 107 -3 q 31 13 51 -3 q 0 50 11 28 q -15 95 -11 72 q -19 135 -19 118 q -4 216 -19 174 q 38 293 11 258 q 102 350 65 328 q 183 372 139 372 q 231 363 214 372 q 264 344 249 354 q 267 353 267 349 q 269 361 268 358 q 282 355 271 361 q 306 338 293 349 q 328 316 318 328 q 338 292 338 304 q 333 270 338 281 q 324 249 329 260 l 322 249 q 298 203 311 228 q 274 154 285 179 q 255 103 263 129 q 247 51 247 76 q 267 6 247 6 q 317 44 286 6 q 372 160 347 82 q 375 161 372 161 q 381 161 378 161 m 181 75 q 196 172 181 122 q 226 258 211 222 q 200 281 214 272 q 169 290 186 290 q 122 275 146 290 q 76 235 97 260 q 42 181 56 211 q 29 119 29 150 q 31 89 29 104 q 41 60 33 74 q 62 38 49 46 q 99 29 75 29 q 143 42 122 29 q 181 75 164 54 m 210 475 q 183 484 194 479 q 157 489 171 489 q 135 479 139 489 q 131 465 131 469 q 131 458 131 461 q 132 454 132 456 q 131 452 131 454 q 125 450 131 450 q 121 454 122 451 q 118 467 118 460 q 131 497 118 486 q 158 508 143 508 q 227 500 192 508 q 285 492 263 492 q 317 497 303 492 q 335 535 332 503 q 347 534 339 535 q 362 530 354 533 q 375 521 369 526 q 381 504 381 515 q 365 468 381 489 q 308 447 349 447 q 256 458 282 447 q 210 475 229 468 z "},"":{"ha":367,"x_min":-19,"x_max":388,"o":"m 381 161 q 388 156 388 157 q 378 121 388 150 q 353 58 369 92 q 312 -2 336 25 q 257 -29 288 -29 q 215 -12 236 -29 q 183 49 193 6 q 170 33 178 42 q 151 16 163 24 q 123 3 139 8 q 83 -3 107 -3 q 31 13 51 -3 q 0 50 11 28 q -15 95 -11 72 q -19 135 -19 118 q -4 216 -19 174 q 38 293 11 258 q 102 350 65 328 q 183 372 139 372 q 231 363 214 372 q 264 344 249 354 q 267 353 267 349 q 269 361 268 358 q 282 355 271 361 q 306 338 293 349 q 328 316 318 328 q 338 292 338 304 q 333 270 338 281 q 324 249 329 260 l 322 249 q 298 203 311 228 q 274 154 285 179 q 255 103 263 129 q 247 51 247 76 q 267 6 247 6 q 317 44 286 6 q 372 160 347 82 q 375 161 372 161 q 381 161 378 161 m 181 75 q 196 172 181 122 q 226 258 211 222 q 200 281 214 272 q 169 290 186 290 q 122 275 146 290 q 76 235 97 260 q 42 181 56 211 q 29 119 29 150 q 31 89 29 104 q 41 60 33 74 q 62 38 49 46 q 99 29 75 29 q 143 42 122 29 q 181 75 164 54 m 278 513 q 288 511 279 511 q 305 509 296 511 q 322 503 314 507 q 329 490 329 499 q 319 472 329 483 q 308 425 308 460 q 310 413 308 417 l 301 413 q 281 417 293 413 q 269 440 269 421 q 271 448 269 444 q 274 458 272 451 q 278 474 276 464 q 281 500 281 483 q 278 513 281 507 m 181 513 q 190 511 182 511 q 208 510 199 511 q 225 503 218 508 q 232 489 232 499 q 231 479 232 482 q 221 461 225 471 q 211 424 211 442 q 213 413 211 415 l 204 413 q 184 417 196 413 q 172 439 172 421 q 174 447 172 444 q 177 455 175 450 q 181 469 179 460 q 183 499 183 479 q 181 513 183 507 z "},"`":{"ha":324,"x_min":38,"x_max":271,"o":"m 67 540 q 80 522 71 533 q 93 504 89 510 q 105 492 97 500 q 125 476 113 485 q 156 463 138 468 q 199 457 174 457 q 242 462 222 457 q 265 468 261 467 l 267 468 l 267 467 q 268 464 267 464 q 271 459 271 457 q 271 458 271 461 q 261 451 271 456 q 235 441 251 446 q 199 432 219 436 q 157 428 179 428 q 122 432 142 428 q 83 444 101 436 q 51 467 64 453 q 38 500 38 481 q 42 513 38 507 q 51 526 46 519 q 67 540 57 533 z "},"":{"ha":367,"x_min":-19,"x_max":388,"o":"m 381 161 q 388 156 388 157 q 378 121 388 150 q 353 58 369 92 q 312 -2 336 25 q 257 -29 288 -29 q 215 -12 236 -29 q 183 49 193 6 q 170 33 178 42 q 151 16 163 24 q 123 3 139 8 q 83 -3 107 -3 q 31 13 51 -3 q 0 50 11 28 q -15 95 -11 72 q -19 135 -19 118 q -4 216 -19 174 q 38 293 11 258 q 102 350 65 328 q 183 372 139 372 q 231 363 214 372 q 264 344 249 354 q 267 353 267 349 q 269 361 268 358 q 282 355 271 361 q 306 338 293 349 q 328 316 318 328 q 338 292 338 304 q 333 270 338 281 q 324 249 329 260 l 322 249 q 298 203 311 228 q 274 154 285 179 q 255 103 263 129 q 247 51 247 76 q 267 6 247 6 q 317 44 286 6 q 372 160 347 82 q 375 161 372 161 q 381 161 378 161 m 181 75 q 196 172 181 122 q 226 258 211 222 q 200 281 214 272 q 169 290 186 290 q 122 275 146 290 q 76 235 97 260 q 42 181 56 211 q 29 119 29 150 q 31 89 29 104 q 41 60 33 74 q 62 38 49 46 q 99 29 75 29 q 143 42 122 29 q 181 75 164 54 m 161 540 q 174 522 165 533 q 188 504 183 510 q 199 492 192 500 q 219 476 207 485 q 250 463 232 468 q 293 457 268 457 q 336 462 317 457 q 360 468 356 467 l 361 468 l 361 467 q 363 464 361 464 q 365 459 365 457 q 365 458 365 461 q 356 451 365 456 q 330 441 346 446 q 294 432 314 436 q 251 428 274 428 q 216 432 236 428 q 177 444 196 436 q 145 467 158 453 q 132 500 132 481 q 136 513 132 507 q 146 526 140 519 q 161 540 151 533 z "},"":{"ha":296,"x_min":-17,"x_max":315,"o":"m 304 125 q 307 119 307 122 q 258 51 286 81 q 198 6 235 26 q 113 -15 161 -15 q 51 0 76 -15 q 11 38 26 15 q -10 88 -4 61 q -17 135 -17 114 q -1 226 -17 182 q 40 304 14 269 q 100 360 67 339 q 169 381 133 381 q 238 356 214 381 q 263 301 263 331 q 250 246 263 272 q 216 199 238 219 q 165 167 194 179 q 104 156 136 156 q 67 160 82 156 q 44 172 51 165 q 36 122 36 147 q 60 52 36 83 q 125 21 85 21 q 187 38 156 21 q 236 67 218 54 q 269 93 257 82 q 286 112 281 104 q 294 123 292 119 q 299 126 296 126 q 304 125 301 126 m 85 254 q 50 193 65 226 q 68 192 54 192 q 108 201 89 192 q 142 225 128 211 q 166 255 157 239 q 175 282 175 271 q 156 300 175 300 q 123 290 142 300 q 85 254 104 279 m 111 540 q 124 522 115 533 q 138 504 133 510 q 149 492 142 500 q 169 476 157 485 q 200 463 182 468 q 243 457 218 457 q 286 462 267 457 q 310 468 306 467 l 311 468 l 311 467 q 313 464 311 464 q 315 459 315 457 q 315 458 315 461 q 306 451 315 456 q 280 441 296 446 q 244 432 264 436 q 201 428 224 428 q 166 432 186 428 q 127 444 146 436 q 95 467 108 453 q 82 500 82 481 q 86 513 82 507 q 96 526 90 519 q 111 540 101 533 z "},"":{"ha":296,"x_min":-17,"x_max":317,"o":"m 304 125 q 307 119 307 122 q 258 51 286 81 q 198 6 235 26 q 113 -15 161 -15 q 51 0 76 -15 q 11 38 26 15 q -10 88 -4 61 q -17 135 -17 114 q -1 226 -17 182 q 40 304 14 269 q 100 360 67 339 q 169 381 133 381 q 238 356 214 381 q 263 301 263 331 q 250 246 263 272 q 216 199 238 219 q 165 167 194 179 q 104 156 136 156 q 67 160 82 156 q 44 172 51 165 q 36 122 36 147 q 60 52 36 83 q 125 21 85 21 q 187 38 156 21 q 236 67 218 54 q 269 93 257 82 q 286 112 281 104 q 294 123 292 119 q 299 126 296 126 q 304 125 301 126 m 85 254 q 50 193 65 226 q 68 192 54 192 q 108 201 89 192 q 142 225 128 211 q 166 255 157 239 q 175 282 175 271 q 156 300 175 300 q 123 290 142 300 q 85 254 104 279 m 286 540 q 292 535 288 540 q 303 522 297 529 q 313 506 308 515 q 317 492 317 497 q 303 462 317 474 q 270 442 289 450 q 231 431 251 435 q 196 428 210 428 q 153 432 174 428 q 117 441 133 436 q 92 451 101 446 q 82 458 82 456 l 85 464 q 85 465 85 465 q 86 467 86 465 l 88 468 q 111 462 92 467 q 154 457 131 457 q 197 463 179 457 q 228 476 215 468 q 248 492 240 485 q 260 504 256 500 q 273 522 264 510 q 286 540 282 533 z "},"":{"ha":296,"x_min":-17,"x_max":356,"o":"m 304 125 q 307 119 307 122 q 258 51 286 81 q 198 6 235 26 q 113 -15 161 -15 q 51 0 76 -15 q 11 38 26 15 q -10 88 -4 61 q -17 135 -17 114 q -1 226 -17 182 q 40 304 14 269 q 100 360 67 339 q 169 381 133 381 q 238 356 214 381 q 263 301 263 331 q 250 246 263 272 q 216 199 238 219 q 165 167 194 179 q 104 156 136 156 q 67 160 82 156 q 44 172 51 165 q 36 122 36 147 q 60 52 36 83 q 125 21 85 21 q 187 38 156 21 q 236 67 218 54 q 269 93 257 82 q 286 112 281 104 q 294 123 292 119 q 299 126 296 126 q 304 125 301 126 m 85 254 q 50 193 65 226 q 68 192 54 192 q 108 201 89 192 q 142 225 128 211 q 166 255 157 239 q 175 282 175 271 q 156 300 175 300 q 123 290 142 300 q 85 254 104 279 m 351 419 q 353 415 351 417 q 356 413 356 414 q 348 407 356 410 q 314 404 340 404 q 257 415 289 404 q 204 458 225 426 q 172 443 189 447 q 139 439 156 439 q 105 443 121 439 q 76 453 89 447 q 56 463 64 458 q 49 471 49 468 l 54 479 q 75 473 57 478 q 117 468 93 468 q 156 475 140 468 q 183 490 172 482 q 199 506 193 499 q 213 513 206 513 q 233 504 228 513 q 242 484 238 496 q 253 459 246 472 q 281 438 260 446 q 325 424 304 426 q 351 421 346 422 l 351 419 z "},"":{"ha":296,"x_min":-17,"x_max":307,"o":"m 304 125 q 307 119 307 122 q 258 51 286 81 q 198 6 235 26 q 113 -15 161 -15 q 51 0 76 -15 q 11 38 26 15 q -10 88 -4 61 q -17 135 -17 114 q -1 226 -17 182 q 40 304 14 269 q 100 360 67 339 q 169 381 133 381 q 238 356 214 381 q 263 301 263 331 q 250 246 263 272 q 216 199 238 219 q 165 167 194 179 q 104 156 136 156 q 67 160 82 156 q 44 172 51 165 q 36 122 36 147 q 60 52 36 83 q 125 21 85 21 q 187 38 156 21 q 236 67 218 54 q 269 93 257 82 q 286 112 281 104 q 294 123 292 119 q 299 126 296 126 q 304 125 301 126 m 85 254 q 50 193 65 226 q 68 192 54 192 q 108 201 89 192 q 142 225 128 211 q 166 255 157 239 q 175 282 175 271 q 156 300 175 300 q 123 290 142 300 q 85 254 104 279 m 226 513 q 236 511 228 511 q 253 509 244 511 q 270 503 263 507 q 278 490 278 499 q 267 472 278 483 q 257 425 257 460 q 258 413 257 417 l 250 413 q 230 417 242 413 q 218 440 218 421 q 219 448 218 444 q 223 458 221 451 q 227 474 225 464 q 229 500 229 483 q 226 513 229 507 m 129 513 q 139 511 131 511 q 157 510 147 511 q 174 503 167 508 q 181 489 181 499 q 179 479 181 482 q 169 461 174 471 q 160 424 160 442 q 161 413 160 415 l 153 413 q 133 417 144 413 q 121 439 121 421 q 122 447 121 444 q 126 455 124 450 q 130 469 128 460 q 132 499 132 479 q 129 513 132 507 z "},"":{"ha":171,"x_min":-25,"x_max":226,"o":"m -4 25 q 24 3 8 8 q 53 -3 39 -3 q 124 22 96 -3 q 169 77 153 47 q 192 131 186 107 q 199 154 199 156 l 196 157 q 186 161 192 161 q 183 160 183 160 q 121 67 156 96 q 63 39 86 39 q 43 49 47 39 q 39 74 39 58 q 63 168 39 118 q 111 263 88 218 l 113 263 q 126 299 126 283 q 115 333 126 319 q 92 354 104 346 q 69 367 79 363 q 60 374 58 371 q 44 331 57 360 q 15 264 31 301 q -12 183 0 226 q -25 99 -25 140 q -4 25 -25 51 m 22 540 q 35 522 26 533 q 49 504 44 510 q 60 492 53 500 q 81 476 68 485 q 111 463 93 468 q 154 457 129 457 q 197 462 178 457 q 221 468 217 467 l 222 468 l 222 467 q 224 464 222 464 q 226 459 226 457 q 226 458 226 461 q 217 451 226 456 q 191 441 207 446 q 155 432 175 436 q 113 428 135 428 q 77 432 97 428 q 38 444 57 436 q 6 467 19 453 q -7 500 -7 481 q -3 513 -7 507 q 7 526 1 519 q 22 540 13 533 z "},"":{"ha":171,"x_min":-25,"x_max":226,"o":"m -4 25 q -25 99 -25 51 q -12 183 -25 140 q 15 264 0 226 q 44 331 31 301 q 60 374 57 360 q 69 367 58 371 q 92 354 79 363 q 115 333 104 346 q 126 299 126 319 q 113 263 126 283 l 111 263 q 63 168 88 218 q 39 74 39 118 q 43 49 39 58 q 63 39 47 39 q 121 67 86 39 q 183 160 156 96 q 186 161 183 160 q 196 157 192 161 l 199 154 q 192 131 199 156 q 169 77 186 107 q 124 22 153 47 q 53 -3 96 -3 q 24 3 39 -3 q -4 25 8 8 m 196 540 q 202 535 197 540 q 213 522 207 529 q 222 506 218 515 q 226 492 226 497 q 213 462 226 474 q 180 442 199 450 q 140 431 161 435 q 106 428 119 428 q 63 432 83 428 q 27 441 43 436 q 1 451 11 446 q -8 458 -8 456 l -6 464 q -5 465 -6 465 q -4 467 -4 465 l -3 468 q 21 462 1 467 q 64 457 40 457 q 107 463 89 457 q 138 476 125 468 q 158 492 150 485 q 169 504 165 500 q 183 522 174 510 q 196 540 192 533 z "},"":{"ha":171,"x_min":-43,"x_max":264,"o":"m -4 25 q -25 99 -25 51 q -12 183 -25 140 q 15 264 0 226 q 44 331 31 301 q 60 374 57 360 q 69 367 58 371 q 92 354 79 363 q 115 333 104 346 q 126 299 126 319 q 113 263 126 283 l 111 263 q 63 168 88 218 q 39 74 39 118 q 43 49 39 58 q 63 39 47 39 q 121 67 86 39 q 183 160 156 96 q 186 161 183 160 q 196 157 192 161 l 199 154 q 192 131 199 156 q 169 77 186 107 q 124 22 153 47 q 53 -3 96 -3 q 24 3 39 -3 q -4 25 8 8 m 260 407 q 262 403 260 404 q 264 400 264 401 q 256 394 264 397 q 222 392 249 392 q 165 403 197 392 q 113 446 133 414 q 81 431 97 435 q 47 426 64 426 q 13 431 29 426 q -15 440 -3 435 q -35 451 -28 446 q -43 458 -43 456 l -37 467 q -17 460 -35 465 q 25 456 1 456 q 65 463 49 456 q 91 478 81 469 q 108 493 101 486 q 121 500 114 500 q 141 492 136 500 q 150 472 146 483 q 161 447 154 460 q 189 425 168 433 q 233 412 213 414 q 260 408 254 410 l 260 407 z "},"":{"ha":171,"x_min":-25,"x_max":199,"o":"m -4 25 q -25 99 -25 51 q -12 183 -25 140 q 15 264 0 226 q 44 331 31 301 q 60 374 57 360 q 69 367 58 371 q 92 354 79 363 q 115 333 104 346 q 126 299 126 319 q 113 263 126 283 l 111 263 q 63 168 88 218 q 39 74 39 118 q 43 49 39 58 q 63 39 47 39 q 121 67 86 39 q 183 160 156 96 q 186 161 183 160 q 196 157 192 161 l 199 154 q 192 131 199 156 q 169 77 186 107 q 124 22 153 47 q 53 -3 96 -3 q 24 3 39 -3 q -4 25 8 8 m 136 513 q 146 511 138 511 q 163 509 154 511 q 180 503 172 507 q 188 490 188 499 q 177 472 188 483 q 167 425 167 460 q 168 413 167 417 l 160 413 q 140 417 151 413 q 128 440 128 421 q 129 448 128 444 q 133 458 131 451 q 137 474 135 464 q 139 500 139 483 q 136 513 139 507 m 39 513 q 49 511 40 511 q 67 510 57 511 q 83 503 76 508 q 90 489 90 499 q 89 479 90 482 q 79 461 83 471 q 69 424 69 442 q 71 413 69 415 l 63 413 q 42 417 54 413 q 31 439 31 421 q 32 447 31 444 q 35 455 33 450 q 40 469 38 460 q 42 499 42 479 q 39 513 42 507 z "},"":{"ha":339,"x_min":-33,"x_max":364,"o":"m 181 47 q 161 121 161 75 q 169 188 161 158 q 192 256 178 218 q 160 198 179 232 q 124 128 142 164 q 91 62 106 93 q 72 15 76 31 q 69 6 72 15 q 58 -12 65 -3 q 42 -31 51 -22 q 22 -39 33 -39 q -22 -13 -11 -39 q -33 54 -33 13 q -22 144 -33 100 q 3 225 -11 189 q 29 285 17 261 q 44 315 42 310 q 61 355 53 332 q 72 388 69 378 q 88 381 76 388 q 109 363 99 374 q 128 340 119 353 q 136 317 136 328 q 119 264 136 293 q 83 201 103 235 q 46 129 63 167 q 29 50 29 92 q 31 33 29 39 q 110 178 76 121 q 169 272 144 236 q 211 327 194 307 q 238 360 228 347 q 254 384 249 374 q 264 414 260 394 q 276 408 265 414 q 297 391 286 401 q 318 369 308 381 q 328 344 328 357 q 326 329 328 340 q 318 313 324 318 q 291 263 307 289 q 260 210 275 238 q 235 153 246 182 q 225 97 225 125 q 228 72 225 82 q 244 61 232 61 q 292 90 263 61 q 350 182 322 118 q 353 183 350 182 q 361 179 357 183 l 364 176 q 355 149 364 174 q 329 96 346 125 q 288 43 313 67 q 233 19 264 19 q 207 25 221 19 q 181 47 193 31 m 153 475 q 126 484 138 479 q 100 489 114 489 q 78 479 82 489 q 74 465 74 469 q 74 458 74 461 q 75 454 75 456 q 74 452 74 454 q 68 450 74 450 q 64 454 65 451 q 61 467 61 460 q 74 497 61 486 q 101 508 86 508 q 170 500 135 508 q 228 492 206 492 q 260 497 246 492 q 278 535 275 503 q 290 534 282 535 q 305 530 297 533 q 318 521 313 526 q 324 504 324 515 q 308 468 324 489 q 251 447 292 447 q 199 458 225 447 q 153 475 172 468 z "},"":{"ha":299,"x_min":-17,"x_max":313,"o":"m 283 272 q 285 259 285 265 q 285 246 285 253 q 263 151 285 196 q 219 78 242 106 q 236 75 225 75 q 260 80 249 75 q 281 91 271 85 q 297 102 290 97 q 308 107 304 107 q 313 100 313 107 q 308 84 313 94 q 292 63 303 74 q 263 45 282 53 q 218 38 244 38 q 183 44 201 38 q 151 16 176 35 q 90 -3 125 -3 q 41 10 61 -3 q 8 42 21 22 q -10 83 -4 61 q -17 126 -17 106 q 1 223 -17 181 q 42 296 19 265 q 88 344 65 326 q 118 364 110 361 q 126 360 121 364 q 142 339 131 357 q 167 354 153 347 q 203 361 181 361 q 240 351 225 361 q 265 326 256 340 q 278 297 274 313 q 283 272 283 282 m 94 32 q 115 38 101 32 q 149 61 129 43 q 101 122 113 83 q 89 199 89 161 q 90 216 89 207 q 92 233 90 225 q 52 176 68 208 q 36 107 36 144 q 51 52 36 69 q 94 32 67 35 m 213 175 q 217 193 215 183 q 218 213 218 203 q 217 251 218 233 q 207 272 215 269 q 186 261 196 272 q 169 234 176 250 q 156 199 161 218 q 151 164 151 181 q 157 125 151 149 q 179 96 163 101 q 199 131 190 111 q 213 175 207 150 m 96 540 q 109 522 100 533 q 122 504 118 510 q 134 492 126 500 q 154 476 142 485 q 185 463 167 468 q 228 457 203 457 q 271 462 251 457 q 294 468 290 467 l 296 468 l 296 467 q 297 464 296 464 q 300 459 300 457 q 300 458 300 461 q 290 451 300 456 q 265 441 281 446 q 228 432 249 436 q 186 428 208 428 q 151 432 171 428 q 112 444 131 436 q 80 467 93 453 q 67 500 67 481 q 71 513 67 507 q 81 526 75 519 q 96 540 86 533 z "},"":{"ha":299,"x_min":-17,"x_max":313,"o":"m 283 272 q 285 259 285 265 q 285 246 285 253 q 263 151 285 196 q 219 78 242 106 q 236 75 225 75 q 260 80 249 75 q 281 91 271 85 q 297 102 290 97 q 308 107 304 107 q 313 100 313 107 q 308 84 313 94 q 292 63 303 74 q 263 45 282 53 q 218 38 244 38 q 183 44 201 38 q 151 16 176 35 q 90 -3 125 -3 q 41 10 61 -3 q 8 42 21 22 q -10 83 -4 61 q -17 126 -17 106 q 1 223 -17 181 q 42 296 19 265 q 88 344 65 326 q 118 364 110 361 q 126 360 121 364 q 142 339 131 357 q 167 354 153 347 q 203 361 181 361 q 240 351 225 361 q 265 326 256 340 q 278 297 274 313 q 283 272 283 282 m 94 32 q 115 38 101 32 q 149 61 129 43 q 101 122 113 83 q 89 199 89 161 q 90 216 89 207 q 92 233 90 225 q 52 176 68 208 q 36 107 36 144 q 51 52 36 69 q 94 32 67 35 m 213 175 q 217 193 215 183 q 218 213 218 203 q 217 251 218 233 q 207 272 215 269 q 186 261 196 272 q 169 234 176 250 q 156 199 161 218 q 151 164 151 181 q 157 125 151 149 q 179 96 163 101 q 199 131 190 111 q 213 175 207 150 m 271 540 q 277 535 272 540 q 288 522 282 529 q 297 506 293 515 q 301 492 301 497 q 288 462 301 474 q 255 442 274 450 q 215 431 236 435 q 181 428 194 428 q 138 432 158 428 q 102 441 118 436 q 76 451 86 446 q 67 458 67 456 l 69 464 q 70 465 69 465 q 71 467 71 465 l 72 468 q 96 462 76 467 q 139 457 115 457 q 182 463 164 457 q 213 476 200 468 q 233 492 225 485 q 244 504 240 500 q 258 522 249 510 q 271 540 267 533 z "},"":{"ha":299,"x_min":-17,"x_max":342,"o":"m 283 272 q 285 259 285 265 q 285 246 285 253 q 263 151 285 196 q 219 78 242 106 q 236 75 225 75 q 260 80 249 75 q 281 91 271 85 q 297 102 290 97 q 308 107 304 107 q 313 100 313 107 q 308 84 313 94 q 292 63 303 74 q 263 45 282 53 q 218 38 244 38 q 183 44 201 38 q 151 16 176 35 q 90 -3 125 -3 q 41 10 61 -3 q 8 42 21 22 q -10 83 -4 61 q -17 126 -17 106 q 1 223 -17 181 q 42 296 19 265 q 88 344 65 326 q 118 364 110 361 q 126 360 121 364 q 142 339 131 357 q 167 354 153 347 q 203 361 181 361 q 240 351 225 361 q 265 326 256 340 q 278 297 274 313 q 283 272 283 282 m 94 32 q 115 38 101 32 q 149 61 129 43 q 101 122 113 83 q 89 199 89 161 q 90 216 89 207 q 92 233 90 225 q 52 176 68 208 q 36 107 36 144 q 51 52 36 69 q 94 32 67 35 m 213 175 q 217 193 215 183 q 218 213 218 203 q 217 251 218 233 q 207 272 215 269 q 186 261 196 272 q 169 234 176 250 q 156 199 161 218 q 151 164 151 181 q 157 125 151 149 q 179 96 163 101 q 199 131 190 111 q 213 175 207 150 m 338 424 q 340 419 338 421 q 342 417 342 418 q 334 411 342 414 q 300 408 326 408 q 243 419 275 408 q 190 463 211 431 q 158 447 175 451 q 125 443 142 443 q 91 447 107 443 q 63 457 75 451 q 42 467 50 463 q 35 475 35 472 l 40 483 q 61 477 43 482 q 103 472 79 472 q 142 479 126 472 q 169 494 158 486 q 185 510 179 503 q 199 517 192 517 q 219 508 214 517 q 228 488 224 500 q 239 463 232 476 q 267 442 246 450 q 311 428 290 431 q 338 425 332 426 l 338 424 z "},"":{"ha":299,"x_min":-17,"x_max":314,"o":"m 283 272 q 285 259 285 265 q 285 246 285 253 q 263 151 285 196 q 219 78 242 106 q 236 75 225 75 q 260 80 249 75 q 281 91 271 85 q 297 102 290 97 q 308 107 304 107 q 313 100 313 107 q 308 84 313 94 q 292 63 303 74 q 263 45 282 53 q 218 38 244 38 q 183 44 201 38 q 151 16 176 35 q 90 -3 125 -3 q 41 10 61 -3 q 8 42 21 22 q -10 83 -4 61 q -17 126 -17 106 q 1 223 -17 181 q 42 296 19 265 q 88 344 65 326 q 118 364 110 361 q 126 360 121 364 q 142 339 131 357 q 167 354 153 347 q 203 361 181 361 q 240 351 225 361 q 265 326 256 340 q 278 297 274 313 q 283 272 283 282 m 94 32 q 115 38 101 32 q 149 61 129 43 q 101 122 113 83 q 89 199 89 161 q 90 216 89 207 q 92 233 90 225 q 52 176 68 208 q 36 107 36 144 q 51 52 36 69 q 94 32 67 35 m 213 175 q 217 193 215 183 q 218 213 218 203 q 217 251 218 233 q 207 272 215 269 q 186 261 196 272 q 169 234 176 250 q 156 199 161 218 q 151 164 151 181 q 157 125 151 149 q 179 96 163 101 q 199 131 190 111 q 213 175 207 150 m 143 475 q 116 484 128 479 q 90 489 104 489 q 68 479 72 489 q 64 465 64 469 q 65 458 64 461 q 65 454 65 456 q 64 452 64 454 q 58 450 64 450 q 54 454 56 451 q 51 467 51 460 q 64 497 51 486 q 92 508 76 508 q 160 500 125 508 q 218 492 196 492 q 251 497 236 492 q 268 535 265 503 q 280 534 272 535 q 295 530 288 533 q 308 521 303 526 q 314 504 314 515 q 298 468 314 489 q 242 447 282 447 q 189 458 215 447 q 143 475 163 468 z "},"":{"ha":299,"x_min":-17,"x_max":313,"o":"m 283 272 q 285 259 285 265 q 285 246 285 253 q 263 151 285 196 q 219 78 242 106 q 236 75 225 75 q 260 80 249 75 q 281 91 271 85 q 297 102 290 97 q 308 107 304 107 q 313 100 313 107 q 308 84 313 94 q 292 63 303 74 q 263 45 282 53 q 218 38 244 38 q 183 44 201 38 q 151 16 176 35 q 90 -3 125 -3 q 41 10 61 -3 q 8 42 21 22 q -10 83 -4 61 q -17 126 -17 106 q 1 223 -17 181 q 42 296 19 265 q 88 344 65 326 q 118 364 110 361 q 126 360 121 364 q 142 339 131 357 q 167 354 153 347 q 203 361 181 361 q 240 351 225 361 q 265 326 256 340 q 278 297 274 313 q 283 272 283 282 m 94 32 q 115 38 101 32 q 149 61 129 43 q 101 122 113 83 q 89 199 89 161 q 90 216 89 207 q 92 233 90 225 q 52 176 68 208 q 36 107 36 144 q 51 52 36 69 q 94 32 67 35 m 213 175 q 217 193 215 183 q 218 213 218 203 q 217 251 218 233 q 207 272 215 269 q 186 261 196 272 q 169 234 176 250 q 156 199 161 218 q 151 164 151 181 q 157 125 151 149 q 179 96 163 101 q 199 131 190 111 q 213 175 207 150 m 211 513 q 221 511 213 511 q 238 509 229 511 q 255 503 247 507 q 263 490 263 499 q 252 472 263 483 q 242 425 242 460 q 243 413 242 417 l 235 413 q 215 417 226 413 q 203 440 203 421 q 204 448 203 444 q 208 458 206 451 q 212 474 210 464 q 214 500 214 483 q 211 513 214 507 m 114 513 q 124 511 115 511 q 142 510 132 511 q 158 503 151 508 q 165 489 165 499 q 164 479 165 482 q 154 461 158 471 q 144 424 144 442 q 146 413 144 415 l 138 413 q 117 417 129 413 q 106 439 106 421 q 107 447 106 444 q 110 455 108 450 q 115 469 113 460 q 117 499 117 479 q 114 513 117 507 z "},"":{"ha":343,"x_min":-18,"x_max":371,"o":"m 364 161 q 371 156 371 157 q 362 121 371 150 q 336 58 353 92 q 295 -2 319 25 q 240 -29 271 -29 q 188 1 213 -29 q 164 79 164 31 q 144 51 156 65 q 119 24 133 36 q 89 5 106 13 q 54 -3 72 -3 q 5 24 28 -3 q -18 100 -18 50 q -9 171 -18 133 q 13 242 0 208 q 38 303 25 276 q 57 346 50 331 l 56 346 q 71 374 64 360 q 83 397 78 385 q 90 417 88 408 q 102 410 92 417 q 124 394 113 404 q 144 371 135 383 q 154 346 154 358 q 138 299 154 331 q 100 228 121 267 q 63 149 79 190 q 46 74 46 108 q 51 46 46 57 q 72 35 56 35 q 119 58 92 35 q 169 136 146 81 q 197 228 179 185 q 224 290 214 271 q 236 318 231 304 q 246 341 242 329 q 253 361 250 353 q 265 355 254 361 q 289 338 276 349 q 311 315 301 328 q 321 290 321 303 q 307 247 321 274 q 276 187 293 219 q 244 119 258 154 q 231 51 231 83 q 250 6 231 6 q 300 44 269 6 q 356 160 331 82 q 358 161 356 161 q 364 161 361 161 m 138 540 q 151 522 142 533 q 164 504 160 510 q 176 492 168 500 q 196 476 183 485 q 226 463 208 468 q 269 457 244 457 q 313 462 293 457 q 336 468 332 467 l 338 468 l 338 467 q 339 464 338 464 q 342 459 342 457 q 342 458 342 461 q 332 451 342 456 q 306 441 322 446 q 270 432 290 436 q 228 428 250 428 q 192 432 213 428 q 153 444 172 436 q 122 467 135 453 q 108 500 108 481 q 113 513 108 507 q 122 526 117 519 q 138 540 128 533 z "},"":{"ha":343,"x_min":-18,"x_max":371,"o":"m 364 161 q 371 156 371 157 q 362 121 371 150 q 336 58 353 92 q 295 -2 319 25 q 240 -29 271 -29 q 188 1 213 -29 q 164 79 164 31 q 144 51 156 65 q 119 24 133 36 q 89 5 106 13 q 54 -3 72 -3 q 5 24 28 -3 q -18 100 -18 50 q -9 171 -18 133 q 13 242 0 208 q 38 303 25 276 q 57 346 50 331 l 56 346 q 71 374 64 360 q 83 397 78 385 q 90 417 88 408 q 102 410 92 417 q 124 394 113 404 q 144 371 135 383 q 154 346 154 358 q 138 299 154 331 q 100 228 121 267 q 63 149 79 190 q 46 74 46 108 q 51 46 46 57 q 72 35 56 35 q 119 58 92 35 q 169 136 146 81 q 197 228 179 185 q 224 290 214 271 q 236 318 231 304 q 246 341 242 329 q 253 361 250 353 q 265 355 254 361 q 289 338 276 349 q 311 315 301 328 q 321 290 321 303 q 307 247 321 274 q 276 187 293 219 q 244 119 258 154 q 231 51 231 83 q 250 6 231 6 q 300 44 269 6 q 356 160 331 82 q 358 161 356 161 q 364 161 361 161 m 317 540 q 323 535 318 540 q 333 522 328 529 q 343 506 339 515 q 347 492 347 497 q 333 462 347 474 q 301 442 319 450 q 261 431 282 435 q 226 428 240 428 q 184 432 204 428 q 148 441 164 436 q 122 451 132 446 q 113 458 113 456 l 115 464 q 116 465 115 465 q 117 467 117 465 l 118 468 q 142 462 122 467 q 185 457 161 457 q 228 463 210 457 q 258 476 246 468 q 278 492 271 485 q 290 504 286 500 q 303 522 294 510 q 317 540 313 533 z "},"":{"ha":343,"x_min":-18,"x_max":379,"o":"m 364 161 q 371 156 371 157 q 362 121 371 150 q 336 58 353 92 q 295 -2 319 25 q 240 -29 271 -29 q 188 1 213 -29 q 164 79 164 31 q 144 51 156 65 q 119 24 133 36 q 89 5 106 13 q 54 -3 72 -3 q 5 24 28 -3 q -18 100 -18 50 q -9 171 -18 133 q 13 242 0 208 q 38 303 25 276 q 57 346 50 331 l 56 346 q 71 374 64 360 q 83 397 78 385 q 90 417 88 408 q 102 410 92 417 q 124 394 113 404 q 144 371 135 383 q 154 346 154 358 q 138 299 154 331 q 100 228 121 267 q 63 149 79 190 q 46 74 46 108 q 51 46 46 57 q 72 35 56 35 q 119 58 92 35 q 169 136 146 81 q 197 228 179 185 q 224 290 214 271 q 236 318 231 304 q 246 341 242 329 q 253 361 250 353 q 265 355 254 361 q 289 338 276 349 q 311 315 301 328 q 321 290 321 303 q 307 247 321 274 q 276 187 293 219 q 244 119 258 154 q 231 51 231 83 q 250 6 231 6 q 300 44 269 6 q 356 160 331 82 q 358 161 356 161 q 364 161 361 161 m 375 407 q 377 403 375 404 q 379 400 379 401 q 372 394 379 397 q 338 392 364 392 q 281 403 313 392 q 228 446 249 414 q 196 431 213 435 q 163 426 179 426 q 128 431 144 426 q 100 440 113 435 q 80 451 88 446 q 72 458 72 456 l 78 467 q 99 460 81 465 q 140 456 117 456 q 180 463 164 456 q 206 478 196 469 q 223 493 217 486 q 236 500 229 500 q 256 492 251 500 q 265 472 261 483 q 276 447 269 460 q 304 425 283 433 q 349 412 328 414 q 375 408 369 410 l 375 407 z "},"":{"ha":343,"x_min":-18,"x_max":371,"o":"m 364 161 q 371 156 371 157 q 362 121 371 150 q 336 58 353 92 q 295 -2 319 25 q 240 -29 271 -29 q 188 1 213 -29 q 164 79 164 31 q 144 51 156 65 q 119 24 133 36 q 89 5 106 13 q 54 -3 72 -3 q 5 24 28 -3 q -18 100 -18 50 q -9 171 -18 133 q 13 242 0 208 q 38 303 25 276 q 57 346 50 331 l 56 346 q 71 374 64 360 q 83 397 78 385 q 90 417 88 408 q 102 410 92 417 q 124 394 113 404 q 144 371 135 383 q 154 346 154 358 q 138 299 154 331 q 100 228 121 267 q 63 149 79 190 q 46 74 46 108 q 51 46 46 57 q 72 35 56 35 q 119 58 92 35 q 169 136 146 81 q 197 228 179 185 q 224 290 214 271 q 236 318 231 304 q 246 341 242 329 q 253 361 250 353 q 265 355 254 361 q 289 338 276 349 q 311 315 301 328 q 321 290 321 303 q 307 247 321 274 q 276 187 293 219 q 244 119 258 154 q 231 51 231 83 q 250 6 231 6 q 300 44 269 6 q 356 160 331 82 q 358 161 356 161 q 364 161 361 161 m 251 513 q 261 511 253 511 q 278 509 269 511 q 295 503 288 507 q 303 490 303 499 q 292 472 303 483 q 282 425 282 460 q 283 413 282 417 l 275 413 q 255 417 267 413 q 243 440 243 421 q 244 448 243 444 q 248 458 246 451 q 252 474 250 464 q 254 500 254 483 q 251 513 254 507 m 154 513 q 164 511 156 511 q 182 510 172 511 q 199 503 192 508 q 206 489 206 499 q 204 479 206 482 q 194 461 199 471 q 185 424 185 442 q 186 413 185 415 l 178 413 q 158 417 169 413 q 146 439 146 421 q 147 447 146 444 q 151 455 149 450 q 155 469 153 460 q 157 499 157 479 q 154 513 157 507 z "},"":{"ha":382,"x_min":-64,"x_max":401,"o":"m 396 160 q 401 154 401 156 l 401 156 q 394 131 400 156 q 373 76 389 106 q 329 22 357 47 q 257 -3 301 -3 q 227 3 242 -3 q 200 24 213 8 q 190 3 196 13 q 181 -17 185 -7 q 272 -35 231 -28 q 350 -42 314 -42 q 371 -40 364 -42 q 353 -92 371 -68 q 303 -117 336 -117 q 231 -104 274 -117 q 147 -79 189 -92 q 88 -147 119 -128 q 22 -165 56 -165 q 3 -164 17 -165 q -26 -156 -11 -162 q -52 -134 -40 -149 q -64 -93 -64 -119 q -50 -50 -64 -67 q -17 -24 -36 -33 q 19 -12 1 -15 q 46 -10 38 -10 q 66 -10 57 -10 q 85 -11 75 -11 q 118 1 113 -11 q 132 35 124 14 q 97 8 117 19 q 56 -3 78 -3 q 7 23 31 -3 q -17 99 -17 49 q -8 167 -17 131 q 12 236 0 203 q 36 297 24 269 q 57 340 49 325 l 88 413 q 100 406 89 413 q 122 390 111 400 q 143 369 133 381 q 153 344 153 357 q 137 298 153 329 q 101 228 121 267 q 65 149 81 190 q 49 75 49 108 q 53 45 49 57 q 75 33 58 33 q 132 69 99 33 q 193 194 165 106 q 215 262 206 236 q 232 303 225 288 q 243 328 239 318 q 249 346 247 338 q 290 318 268 336 q 311 272 311 300 q 301 239 311 257 q 259 158 276 194 q 242 74 242 121 q 246 48 242 57 q 265 39 250 39 q 324 67 289 39 q 388 160 360 96 q 390 161 388 160 q 396 160 393 161 m 88 -74 q 103 -72 92 -72 q 111 -73 107 -72 q 118 -74 115 -74 l 125 -74 l 90 -65 q 59 -59 75 -62 q 28 -54 43 -56 q -16 -65 4 -54 q -36 -100 -36 -75 q -22 -126 -36 -118 q 10 -135 -7 -135 q 48 -122 28 -135 q 88 -74 68 -108 m 319 540 q 326 535 321 540 q 336 522 331 529 q 346 506 342 515 q 350 492 350 497 q 336 462 350 474 q 303 442 322 450 q 264 431 285 435 q 229 428 243 428 q 187 432 207 428 q 151 441 167 436 q 125 451 135 446 q 115 458 115 456 l 118 464 q 119 465 118 465 q 119 467 119 465 l 121 468 q 144 462 125 467 q 188 457 164 457 q 231 463 213 457 q 261 476 249 468 q 281 492 274 485 q 293 504 289 500 q 306 522 297 510 q 319 540 315 533 z "},"":{"ha":382,"x_min":-64,"x_max":401,"o":"m 396 160 q 401 154 401 156 l 401 156 q 394 131 400 156 q 373 76 389 106 q 329 22 357 47 q 257 -3 301 -3 q 227 3 242 -3 q 200 24 213 8 q 190 3 196 13 q 181 -17 185 -7 q 272 -35 231 -28 q 350 -42 314 -42 q 371 -40 364 -42 q 353 -92 371 -68 q 303 -117 336 -117 q 231 -104 274 -117 q 147 -79 189 -92 q 88 -147 119 -128 q 22 -165 56 -165 q 3 -164 17 -165 q -26 -156 -11 -162 q -52 -134 -40 -149 q -64 -93 -64 -119 q -50 -50 -64 -67 q -17 -24 -36 -33 q 19 -12 1 -15 q 46 -10 38 -10 q 66 -10 57 -10 q 85 -11 75 -11 q 118 1 113 -11 q 132 35 124 14 q 97 8 117 19 q 56 -3 78 -3 q 7 23 31 -3 q -17 99 -17 49 q -8 167 -17 131 q 12 236 0 203 q 36 297 24 269 q 57 340 49 325 l 88 413 q 100 406 89 413 q 122 390 111 400 q 143 369 133 381 q 153 344 153 357 q 137 298 153 329 q 101 228 121 267 q 65 149 81 190 q 49 75 49 108 q 53 45 49 57 q 75 33 58 33 q 132 69 99 33 q 193 194 165 106 q 215 262 206 236 q 232 303 225 288 q 243 328 239 318 q 249 346 247 338 q 290 318 268 336 q 311 272 311 300 q 301 239 311 257 q 259 158 276 194 q 242 74 242 121 q 246 48 242 57 q 265 39 250 39 q 324 67 289 39 q 388 160 360 96 q 390 161 388 160 q 396 160 393 161 m 88 -74 q 103 -72 92 -72 q 111 -73 107 -72 q 118 -74 115 -74 l 125 -74 l 90 -65 q 59 -59 75 -62 q 28 -54 43 -56 q -16 -65 4 -54 q -36 -100 -36 -75 q -22 -126 -36 -118 q 10 -135 -7 -135 q 48 -122 28 -135 q 88 -74 68 -108 m 258 513 q 268 511 260 511 q 285 509 276 511 q 302 503 294 507 q 310 490 310 499 q 299 472 310 483 q 289 425 289 460 q 290 413 289 417 l 282 413 q 262 417 274 413 q 250 440 250 421 q 251 448 250 444 q 255 458 253 451 q 259 474 257 464 q 261 500 261 483 q 258 513 261 507 m 161 513 q 171 511 163 511 q 189 510 179 511 q 206 503 199 508 q 213 489 213 499 q 211 479 213 482 q 201 461 206 471 q 192 424 192 442 q 193 413 192 415 l 185 413 q 165 417 176 413 q 153 439 153 421 q 154 447 153 444 q 158 455 156 450 q 162 469 160 460 q 164 499 164 479 q 161 513 164 507 z "},"":{"ha":299,"x_min":-17,"x_max":313,"o":"m 283 272 q 285 259 285 265 q 285 246 285 253 q 263 151 285 196 q 219 78 242 106 q 236 75 225 75 q 260 80 249 75 q 281 91 271 85 q 297 102 290 97 q 308 107 304 107 q 313 100 313 107 q 308 84 313 94 q 292 63 303 74 q 263 45 282 53 q 218 38 244 38 q 183 44 201 38 q 151 16 176 35 q 90 -3 125 -3 q 41 10 61 -3 q 8 42 21 22 q -10 83 -4 61 q -17 126 -17 106 q 1 223 -17 181 q 42 296 19 265 q 88 344 65 326 q 118 364 110 361 q 126 360 121 364 q 142 339 131 357 q 167 354 153 347 q 203 361 181 361 q 240 351 225 361 q 265 326 256 340 q 278 297 274 313 q 283 272 283 282 m 94 32 q 115 38 101 32 q 149 61 129 43 q 101 122 113 83 q 89 199 89 161 q 90 216 89 207 q 92 233 90 225 q 52 176 68 208 q 36 107 36 144 q 51 52 36 69 q 94 32 67 35 m 213 175 q 217 193 215 183 q 218 213 218 203 q 217 251 218 233 q 207 272 215 269 q 186 261 196 272 q 169 234 176 250 q 156 199 161 218 q 151 164 151 181 q 157 125 151 149 q 179 96 163 101 q 199 131 190 111 q 213 175 207 150 m 196 349 q 167 266 183 308 q 135 182 151 223 q 103 104 119 141 q 76 40 88 68 q 57 -3 64 13 q 52 -19 51 -19 q 48 -18 50 -19 q 44 -16 46 -18 q 44 -14 44 -15 q 53 22 45 -7 q 71 90 61 51 q 93 175 81 130 q 115 260 105 220 q 132 329 125 300 q 140 365 139 358 q 142 385 141 373 q 143 404 143 397 q 162 397 151 399 q 184 390 174 395 q 198 376 194 385 q 196 349 202 367 z "},"":{"ha":453,"x_min":126,"x_max":332,"o":"m 296 189 q 299 183 300 188 q 294 172 297 178 q 287 164 292 167 q 278 164 282 161 q 261 174 271 165 q 241 194 251 183 q 222 217 231 206 q 211 238 214 229 q 171 197 186 213 q 147 174 156 182 q 135 164 138 167 q 132 161 132 161 q 126 165 126 161 q 143 196 126 171 q 200 271 160 221 q 186 319 190 294 q 178 374 182 344 q 184 383 179 375 q 213 390 189 390 q 234 369 235 390 q 235 317 233 347 q 272 359 251 338 q 307 407 292 381 q 319 396 314 401 q 328 385 324 390 q 332 372 332 379 q 323 347 332 360 q 300 321 314 333 q 271 295 286 308 q 243 269 256 282 q 255 226 246 250 q 283 194 264 201 l 296 189 z "},",":{"ha":294,"x_min":63,"x_max":153,"o":"m 150 50 q 151 47 150 49 q 152 44 151 46 q 153 40 153 43 q 147 17 153 36 q 132 -22 142 -1 q 108 -60 122 -43 q 76 -76 94 -76 q 63 -65 67 -76 q 96 -12 86 -42 q 106 43 106 18 q 105 51 106 47 q 104 60 104 56 q 124 58 114 60 q 139 55 131 57 q 150 50 147 53 z "},"=":{"ha":381,"x_min":44,"x_max":296,"o":"m 90 296 q 188 297 143 296 q 258 301 225 299 q 294 308 290 303 l 294 296 q 295 284 294 290 q 296 271 296 278 q 291 256 296 263 q 267 250 286 250 q 222 253 246 251 q 178 255 203 254 q 131 256 154 256 q 80 253 103 256 q 49 247 57 251 l 46 256 q 44 272 44 260 q 52 288 44 279 q 90 296 60 296 m 90 208 q 188 210 143 208 q 258 213 225 211 q 294 221 290 215 l 294 208 q 295 197 294 203 q 296 183 296 190 q 291 169 296 175 q 267 163 286 163 q 222 165 246 164 q 178 167 203 167 q 131 168 154 168 q 80 166 103 168 q 49 160 57 164 l 46 168 q 44 185 44 172 q 52 200 44 192 q 90 208 60 208 z "},"":{"ha":493,"x_min":51,"x_max":432,"o":"m 378 488 q 368 488 376 488 q 351 490 360 489 q 335 496 342 492 q 328 507 328 500 q 340 526 328 514 q 351 568 351 538 q 350 576 351 574 l 358 576 q 378 573 368 576 q 389 554 389 569 q 382 536 389 544 q 375 497 375 528 q 378 488 375 493 m 288 -96 q 225 -105 260 -105 q 157 -93 189 -105 q 101 -58 125 -80 q 65 -4 78 -35 q 51 63 51 26 q 79 163 51 118 q 144 242 107 207 q 220 306 182 278 q 278 357 258 333 q 322 419 310 394 q 337 456 333 443 q 340 475 340 469 q 349 481 340 481 q 356 478 354 481 q 357 472 357 475 q 351 445 357 465 q 333 398 346 425 q 298 340 319 371 q 244 282 276 310 q 194 236 219 261 q 149 184 169 211 q 117 129 129 157 q 104 71 104 100 q 138 -10 104 15 q 211 -36 172 -36 q 276 -21 250 -36 q 317 16 301 -5 q 338 63 332 38 q 344 108 344 88 q 326 193 344 161 q 285 244 308 225 q 293 249 285 244 q 313 260 301 254 q 339 269 325 265 q 364 274 353 274 q 381 267 371 274 q 404 239 390 261 l 404 238 q 415 224 410 238 q 424 191 419 210 q 430 154 428 172 q 432 124 432 135 q 424 56 432 90 q 398 -8 415 22 q 353 -60 381 -37 q 288 -96 326 -83 z "},"M":{"ha":989,"x_min":19,"x_max":1071,"o":"m 993 592 q 1008 585 996 590 q 1035 572 1021 581 q 1060 551 1049 564 q 1071 521 1071 538 q 1064 490 1071 506 q 1033 426 1053 469 q 992 328 1014 383 q 947 214 969 274 q 906 99 924 154 q 876 1 888 44 q 864 -65 864 -43 q 853 -63 863 -65 q 834 -55 844 -61 q 815 -37 824 -49 q 807 -8 807 -26 q 821 74 807 17 q 861 210 835 131 q 744 72 783 135 q 694 -18 704 10 q 694 -26 694 -21 q 688 -32 693 -32 q 671 -10 683 -32 q 642 47 658 11 q 611 128 626 82 q 585 222 596 174 q 583 229 583 225 q 535 118 563 174 q 468 17 507 63 q 375 -56 429 -28 q 249 -85 321 -85 q 82 -24 144 -85 q 19 163 19 38 q 44 298 19 235 q 108 408 68 361 q 197 481 147 454 q 297 511 246 508 q 383 494 353 511 q 438 451 413 476 q 432 444 438 451 q 418 431 426 438 q 399 417 410 424 q 376 411 388 411 q 361 414 368 411 q 336 432 351 421 q 289 443 321 443 q 202 420 249 443 q 124 358 156 397 q 69 270 82 314 q 56 174 56 226 q 65 96 56 133 q 94 29 74 58 q 149 -17 115 0 q 231 -35 182 -35 q 339 -12 293 -35 q 417 47 385 11 q 471 126 450 82 q 506 214 492 171 q 565 381 532 297 q 610 556 599 464 q 625 549 611 554 q 654 533 639 543 q 680 509 669 524 q 686 476 690 494 q 683 463 683 467 q 681 457 682 460 q 679 451 681 454 q 674 439 678 447 q 649 351 656 400 q 642 250 642 301 q 647 178 642 214 q 660 110 653 142 q 675 54 668 79 q 686 13 682 29 q 740 124 704 65 q 835 267 776 183 q 916 403 885 344 q 964 501 947 461 q 987 563 981 540 q 993 592 993 585 z "},"":{"ha":372,"x_min":-61,"x_max":401,"o":"m 22 -212 q 8 -214 17 -214 q -31 -204 -17 -214 q -51 -181 -44 -194 q -60 -151 -58 -167 q -61 -122 -61 -135 q -49 -21 -61 -76 q -21 90 -37 35 q 14 197 -4 146 q 44 286 32 249 q 5 351 18 331 q -8 375 -8 371 q -6 380 -8 378 q 0 382 -3 382 q 36 377 17 379 q 75 372 56 375 q 104 447 93 418 q 126 504 115 476 l 136 533 q 144 558 140 546 q 147 579 147 571 q 163 573 150 578 q 189 560 175 568 q 214 540 203 551 q 225 513 225 528 q 219 483 225 500 q 203 446 213 465 q 184 405 194 426 q 165 363 174 383 q 255 351 228 354 q 279 346 282 349 q 265 344 278 344 q 235 344 253 344 q 196 344 217 344 q 157 344 175 344 q 133 288 144 317 q 108 228 121 260 q 131 184 118 208 q 156 132 144 160 q 174 72 167 104 q 182 1 182 39 q 163 -92 182 -53 q 117 -158 143 -132 q 65 -197 92 -183 q 22 -212 38 -211 m 38 336 q 46 326 42 331 q 54 314 50 321 q 59 328 57 321 q 64 343 61 336 q 44 343 53 343 q 35 340 35 343 q 38 336 35 339 m 10 -92 q 8 -109 8 -100 q 7 -128 7 -118 q 10 -149 7 -140 q 25 -158 14 -158 q 76 -138 54 -158 q 112 -90 97 -118 q 133 -31 126 -61 q 140 21 140 0 q 126 112 140 68 q 94 192 111 156 q 44 52 68 125 q 10 -92 21 -21 m 256 -3 q 197 28 215 -3 q 178 99 178 60 q 188 179 178 140 q 212 250 199 218 q 237 307 225 282 q 251 346 249 332 q 271 348 256 350 q 301 335 286 346 q 322 307 315 325 q 314 263 329 289 q 266 168 290 218 q 242 74 242 118 q 246 49 242 58 q 265 39 250 39 q 324 67 289 39 q 386 160 358 96 q 389 161 386 160 q 399 157 394 161 l 401 154 q 395 131 401 156 q 372 77 389 107 q 327 22 356 47 q 256 -3 299 -3 m 382 415 q 361 390 375 400 q 332 381 347 381 q 304 394 313 381 q 296 426 296 408 q 309 463 296 449 q 342 476 322 476 q 374 464 361 476 q 386 433 386 451 q 382 415 386 424 z "},"":{"ha":325,"x_min":-61,"x_max":414,"o":"m 22 -212 q 8 -214 17 -214 q -31 -204 -17 -214 q -51 -181 -44 -194 q -60 -151 -58 -167 q -61 -122 -61 -135 q -49 -21 -61 -76 q -21 90 -37 35 q 14 197 -4 146 q 44 286 32 249 q 5 351 18 331 q -8 375 -8 371 q -6 380 -8 378 q 0 382 -3 382 q 36 377 17 379 q 75 372 56 375 q 104 447 93 418 q 126 504 115 476 l 136 533 q 144 558 140 546 q 147 579 147 571 q 163 573 150 578 q 189 560 175 568 q 214 540 203 551 q 225 513 225 528 q 219 483 225 500 q 203 446 213 465 q 184 405 194 426 q 165 363 174 383 q 222 358 190 360 q 280 356 253 357 q 326 352 307 354 q 344 349 344 350 q 322 344 344 344 q 269 343 300 343 q 207 344 239 343 q 157 344 175 344 q 133 288 144 317 q 108 228 121 260 q 131 184 118 208 q 156 132 144 160 q 174 72 167 104 q 182 1 182 39 q 163 -92 182 -53 q 117 -158 143 -132 q 65 -197 92 -183 q 22 -212 38 -211 m 38 336 q 46 326 42 331 q 54 314 50 321 q 59 328 57 321 q 64 343 61 336 q 44 342 57 343 q 38 336 31 342 m 10 -92 q 8 -109 8 -100 q 7 -128 7 -118 q 10 -149 7 -140 q 25 -158 14 -158 q 76 -138 54 -158 q 112 -90 97 -118 q 133 -31 126 -61 q 140 21 140 0 q 126 112 140 68 q 94 192 111 156 q 44 52 68 125 q 10 -92 21 -21 m 335 651 q 350 646 338 651 q 377 631 363 640 q 403 610 392 622 q 414 583 414 597 q 409 558 414 571 q 399 533 404 544 q 370 472 389 513 q 329 380 351 431 q 283 274 307 329 q 241 167 260 218 q 210 74 222 117 q 199 8 199 32 q 199 1 199 6 q 203 -3 200 -3 q 238 22 210 -3 q 311 119 267 47 q 326 131 322 131 q 329 124 329 129 q 313 81 329 111 q 273 19 296 50 q 226 -36 250 -12 q 186 -60 201 -60 q 173 -59 181 -60 q 158 -53 165 -58 q 144 -35 150 -47 q 139 -3 139 -24 q 148 71 139 26 q 172 167 157 115 q 205 276 186 219 q 243 388 224 333 q 281 490 263 442 q 314 575 299 539 q 324 606 318 590 q 331 631 328 618 q 335 651 335 643 z "},"":{"ha":350,"x_min":138,"x_max":233,"o":"m 214 426 q 176 431 196 425 q 138 460 156 436 q 138 469 138 463 q 143 486 139 476 q 161 498 149 496 q 188 497 174 500 q 214 486 201 493 q 232 471 226 479 q 233 465 233 469 q 222 435 233 457 q 214 426 219 429 m 199 446 q 200 448 199 447 q 201 450 201 449 q 206 464 206 460 l 206 467 q 185 478 200 474 q 167 474 171 482 q 164 461 164 467 q 181 448 171 450 q 199 446 190 446 z "},"":{"ha":367,"x_min":-19,"x_max":388,"o":"m 381 161 q 388 156 388 157 q 378 121 388 150 q 353 58 369 92 q 312 -2 336 25 q 257 -29 288 -29 q 215 -12 236 -29 q 183 49 193 6 q 170 33 178 42 q 151 16 163 24 q 123 3 139 8 q 83 -3 107 -3 q 31 13 51 -3 q 0 50 11 28 q -15 95 -11 72 q -19 135 -19 118 q -4 216 -19 174 q 38 293 11 258 q 102 350 65 328 q 183 372 139 372 q 231 363 214 372 q 264 344 249 354 q 267 353 267 349 q 269 361 268 358 q 282 355 271 361 q 306 338 293 349 q 328 316 318 328 q 338 292 338 304 q 333 270 338 281 q 324 249 329 260 l 322 249 q 298 203 311 228 q 274 154 285 179 q 255 103 263 129 q 247 51 247 76 q 267 6 247 6 q 317 44 286 6 q 372 160 347 82 q 375 161 372 161 q 381 161 378 161 m 181 75 q 196 172 181 122 q 226 258 211 222 q 200 281 214 272 q 169 290 186 290 q 122 275 146 290 q 76 235 97 260 q 42 181 56 211 q 29 119 29 150 q 31 89 29 104 q 41 60 33 74 q 62 38 49 46 q 99 29 75 29 q 143 42 122 29 q 181 75 164 54 m 297 426 q 259 431 279 425 q 221 460 239 436 q 222 469 221 463 q 226 486 222 476 q 244 498 232 496 q 271 497 257 500 q 297 486 285 493 q 315 471 310 479 q 317 465 317 469 q 306 435 317 457 q 297 426 303 429 m 282 446 q 283 448 282 447 q 285 450 285 449 q 289 464 289 460 l 289 467 q 269 478 283 474 q 250 474 254 482 q 247 461 247 467 q 264 448 254 450 q 282 446 274 446 z "},"":{"ha":299,"x_min":-78,"x_max":325,"o":"m 321 165 q 325 160 325 164 q 294 99 318 129 q 239 44 271 68 q 172 4 207 19 q 106 -11 136 -11 q 51 2 74 -11 q 13 35 28 15 q -10 81 -3 56 q -18 129 -18 106 q 22 285 -18 215 q 147 383 61 354 q 172 388 160 388 q 221 372 203 388 q 249 335 239 356 q 261 297 258 315 q 264 274 264 278 q 260 240 264 258 q 250 204 257 221 q 231 176 243 188 q 201 165 218 165 q 179 168 190 165 q 158 174 168 171 q 136 182 147 178 q 160 219 151 201 q 171 251 168 238 q 175 279 175 267 q 158 301 175 301 q 123 286 143 301 q 83 247 103 271 q 51 191 64 222 q 38 128 38 160 q 63 57 38 85 q 125 29 88 29 q 163 36 144 29 q 197 52 181 43 q 228 72 214 61 q 251 90 242 82 q 289 125 278 111 q 304 148 300 139 q 310 161 308 157 q 321 165 313 165 m 22 58 q 22 47 22 51 q 25 37 22 42 q 35 26 28 32 q 57 8 42 19 q 65 -3 64 1 q 65 -15 65 -8 q 40 -60 60 -50 q 1 -71 21 -71 q -42 -62 -26 -71 q -66 -44 -58 -54 q -76 -24 -74 -33 q -78 -14 -78 -15 q -72 2 -78 -4 q -58 11 -65 8 q -42 15 -50 14 q -32 17 -35 15 q -25 -8 -29 0 q -14 -21 -21 -17 q 1 -26 -8 -26 l 0 -26 q 17 -29 11 -29 q 33 -12 33 -29 q 29 -2 33 -8 q 19 11 25 4 q 10 25 14 18 q 6 38 6 32 q 10 55 6 49 q 14 63 14 61 q 15 61 14 61 q 17 60 17 61 q 18 60 17 60 q 22 58 19 58 z "},"":{"ha":508,"x_min":-17,"x_max":533,"o":"m 283 272 q 285 260 285 267 q 285 246 285 253 q 268 172 275 201 q 251 120 261 142 q 226 82 242 99 q 183 44 210 65 q 151 16 176 35 q 90 -3 125 -3 q 41 10 61 -3 q 8 42 21 22 q -10 83 -4 61 q -17 126 -17 106 q 1 223 -17 181 q 42 296 19 265 q 88 344 65 326 q 118 364 110 361 q 126 360 121 364 q 142 339 131 357 q 167 354 153 347 q 203 361 181 361 q 240 351 225 361 q 265 326 256 340 q 278 297 274 313 q 283 272 283 282 m 94 32 q 115 38 101 32 q 149 61 129 43 q 101 122 113 83 q 89 199 89 161 q 90 216 89 207 q 92 233 90 225 q 52 176 68 208 q 36 107 36 144 q 51 52 36 69 q 94 32 67 35 m 213 175 q 217 193 215 183 q 218 213 218 203 q 217 251 218 233 q 207 272 215 269 q 186 261 196 272 q 169 234 176 250 q 156 199 161 218 q 151 164 151 181 q 157 125 151 149 q 179 96 163 101 q 199 131 190 111 q 213 175 207 150 m 531 125 q 533 119 533 122 q 485 51 513 81 q 424 6 461 26 q 339 -15 388 -15 q 278 0 303 -15 q 238 38 253 15 q 216 88 222 61 q 210 135 210 114 q 225 226 210 182 q 267 304 240 269 q 326 360 293 339 q 396 381 360 381 q 465 356 440 381 q 489 301 489 331 q 476 246 489 272 q 442 199 464 219 q 392 167 421 179 q 331 156 363 156 q 293 160 308 156 q 271 172 278 165 q 263 122 263 147 q 287 52 263 83 q 351 21 311 21 q 413 38 382 21 q 463 67 444 54 q 495 93 483 82 q 513 112 507 104 q 520 123 518 119 q 525 126 522 126 q 531 125 528 126 m 311 254 q 276 193 292 226 q 294 192 281 192 q 335 201 315 192 q 369 225 354 211 q 392 255 383 239 q 401 282 401 271 q 382 300 401 300 q 349 290 368 300 q 311 254 331 279 z "},"(":{"ha":224,"x_min":63,"x_max":247,"o":"m 214 536 q 156 377 181 465 q 122 206 131 289 q 126 58 114 124 q 176 -32 138 -7 q 206 -68 213 -57 q 163 -53 200 -79 q 102 18 124 -26 q 72 117 81 63 q 67 233 63 172 q 84 353 71 294 q 118 467 97 413 q 165 561 139 521 q 204 618 189 600 q 236 625 219 636 q 240 600 247 619 q 214 536 233 581 z "},")":{"ha":136,"x_min":-53,"x_max":132,"o":"m -19 536 q -46 600 -39 581 q -42 625 -53 619 q -10 618 -25 636 q 29 561 6 600 q 76 467 56 521 q 110 353 97 413 q 128 233 124 294 q 123 117 132 172 q 92 18 114 63 q 32 -53 71 -26 q -12 -68 -6 -79 q 18 -32 -18 -57 q 69 58 57 -7 q 72 206 81 124 q 39 377 64 289 q -19 536 14 465 z "},"*":{"ha":183,"x_min":81,"x_max":238,"o":"m 178 514 q 190 544 188 539 q 193 553 193 549 q 182 574 193 572 q 169 578 171 575 q 164 552 169 569 q 150 514 158 535 q 108 512 121 513 q 92 510 96 511 q 88 508 88 510 q 83 504 88 507 q 81 493 81 501 l 81 485 q 82 482 81 482 q 103 486 88 485 q 138 488 118 488 q 125 458 129 467 q 119 446 121 449 q 118 443 118 443 q 118 442 118 443 q 131 424 118 428 q 149 418 144 419 q 154 442 149 422 q 168 486 160 463 q 190 485 181 486 q 207 485 200 485 q 221 483 214 483 q 235 488 232 483 q 238 497 238 492 l 238 521 q 217 517 235 518 q 178 514 200 515 m 133 497 q 101 520 115 510 q 82 529 88 531 q 88 535 85 531 q 92 541 90 538 q 97 547 94 544 q 105 553 100 551 q 119 549 110 556 q 128 539 122 544 q 158 511 135 529 q 196 538 179 526 q 215 553 213 550 q 226 539 218 550 q 224 517 235 528 q 224 515 224 515 q 222 514 225 515 q 210 508 219 513 q 181 493 201 504 q 209 472 196 481 q 228 463 222 464 q 226 458 228 460 q 222 453 225 456 q 213 446 215 446 q 208 445 208 446 q 203 447 207 444 q 188 456 199 449 q 154 481 178 464 q 120 459 135 469 q 99 442 106 449 q 97 446 100 443 q 92 453 94 449 q 90 463 90 457 q 97 476 90 469 q 105 482 100 479 q 133 497 110 485 z "},"":{"ha":822,"x_min":22,"x_max":935,"o":"m 128 -8 q 51 79 79 25 q 22 189 22 133 q 38 261 22 231 q 81 314 54 292 q 139 349 107 336 q 204 365 171 361 q 333 376 250 371 q 517 382 417 382 q 594 482 553 440 q 677 551 636 524 q 753 591 718 578 q 808 604 788 604 q 835 595 825 604 q 844 550 844 586 q 834 519 844 539 q 808 474 824 499 q 776 424 793 450 q 746 372 758 397 q 803 369 782 372 q 836 359 825 365 q 851 345 847 353 q 854 329 854 338 q 853 306 854 318 q 851 285 853 294 q 850 263 850 274 q 818 276 836 272 q 781 282 800 281 q 742 283 761 283 q 704 285 722 283 q 666 191 685 242 q 647 101 647 140 q 664 52 647 74 q 717 31 681 31 q 745 35 732 31 q 769 42 758 39 q 829 72 817 61 q 844 83 842 83 q 851 81 847 83 q 854 75 854 78 l 854 76 q 847 67 853 76 q 826 46 840 58 q 786 20 811 33 q 724 0 761 7 q 707 -3 713 -3 q 672 5 690 -3 q 639 25 654 13 q 613 55 624 38 q 603 93 603 72 q 613 197 603 149 q 638 290 624 246 q 597 294 621 290 q 547 300 572 297 q 490 208 519 254 q 435 115 461 161 q 397 61 419 89 q 345 11 374 33 q 284 -26 317 -11 q 217 -40 251 -40 q 128 -8 169 -40 m 715 490 q 604 381 658 451 q 637 379 621 379 q 668 378 653 379 q 692 438 679 410 q 715 490 704 467 m 167 322 q 92 276 118 315 q 65 190 65 236 q 79 124 65 156 q 115 69 93 93 q 163 30 136 44 q 217 15 190 15 q 296 45 260 15 q 363 119 332 75 q 422 214 394 163 q 474 308 449 265 q 363 321 418 315 q 249 326 307 326 q 167 322 208 326 m 731 757 q 744 738 735 750 q 757 721 753 726 q 769 709 761 717 q 789 693 776 701 q 819 679 801 685 q 863 674 838 674 q 906 678 886 674 q 929 685 925 683 l 931 685 l 931 683 q 932 681 931 681 q 935 676 935 674 q 935 675 935 678 q 925 667 935 672 q 899 658 915 663 q 863 649 883 653 q 821 644 843 644 q 785 649 806 644 q 747 661 765 653 q 715 683 728 669 q 701 717 701 697 q 706 730 701 724 q 715 743 710 736 q 731 757 721 750 z "},"":{"ha":822,"x_min":22,"x_max":911,"o":"m 128 -8 q 51 79 79 25 q 22 189 22 133 q 38 261 22 231 q 81 314 54 292 q 139 349 107 336 q 204 365 171 361 q 333 376 250 371 q 517 382 417 382 q 594 482 553 440 q 677 551 636 524 q 753 591 718 578 q 808 604 788 604 q 835 595 825 604 q 844 550 844 586 q 834 519 844 539 q 808 474 824 499 q 776 424 793 450 q 746 372 758 397 q 803 369 782 372 q 836 359 825 365 q 851 345 847 353 q 854 329 854 338 q 853 306 854 318 q 851 285 853 294 q 850 263 850 274 q 818 276 836 272 q 781 282 800 281 q 742 283 761 283 q 704 285 722 283 q 666 191 685 242 q 647 101 647 140 q 664 52 647 74 q 717 31 681 31 q 745 35 732 31 q 769 42 758 39 q 829 72 817 61 q 844 83 842 83 q 851 81 847 83 q 854 75 854 78 l 854 76 q 847 67 853 76 q 826 46 840 58 q 786 20 811 33 q 724 0 761 7 q 707 -3 713 -3 q 672 5 690 -3 q 639 25 654 13 q 613 55 624 38 q 603 93 603 72 q 613 197 603 149 q 638 290 624 246 q 597 294 621 290 q 547 300 572 297 q 490 208 519 254 q 435 115 461 161 q 397 61 419 89 q 345 11 374 33 q 284 -26 317 -11 q 217 -40 251 -40 q 128 -8 169 -40 m 715 490 q 604 381 658 451 q 637 379 621 379 q 668 378 653 379 q 692 438 679 410 q 715 490 704 467 m 167 322 q 92 276 118 315 q 65 190 65 236 q 79 124 65 156 q 115 69 93 93 q 163 30 136 44 q 217 15 190 15 q 296 45 260 15 q 363 119 332 75 q 422 214 394 163 q 474 308 449 265 q 363 321 418 315 q 249 326 307 326 q 167 322 208 326 m 881 757 q 887 751 882 757 q 897 739 892 746 q 907 723 903 732 q 911 708 911 714 q 897 678 911 690 q 865 659 883 667 q 825 648 846 651 q 790 644 804 644 q 748 649 768 644 q 712 658 728 653 q 686 667 696 663 q 676 675 676 672 l 679 681 q 680 682 679 682 q 681 683 681 682 l 682 685 q 706 678 686 683 q 749 674 725 674 q 792 679 774 674 q 822 693 810 685 q 842 709 835 701 q 854 721 850 717 q 867 738 858 726 q 881 757 876 750 z "},"":{"ha":822,"x_min":22,"x_max":963,"o":"m 128 -8 q 51 79 79 25 q 22 189 22 133 q 38 261 22 231 q 81 314 54 292 q 139 349 107 336 q 204 365 171 361 q 333 376 250 371 q 517 382 417 382 q 594 482 553 440 q 677 551 636 524 q 753 591 718 578 q 808 604 788 604 q 835 595 825 604 q 844 550 844 586 q 834 519 844 539 q 808 474 824 499 q 776 424 793 450 q 746 372 758 397 q 803 369 782 372 q 836 359 825 365 q 851 345 847 353 q 854 329 854 338 q 853 306 854 318 q 851 285 853 294 q 850 263 850 274 q 818 276 836 272 q 781 282 800 281 q 742 283 761 283 q 704 285 722 283 q 666 191 685 242 q 647 101 647 140 q 664 52 647 74 q 717 31 681 31 q 745 35 732 31 q 769 42 758 39 q 829 72 817 61 q 844 83 842 83 q 851 81 847 83 q 854 75 854 78 l 854 76 q 847 67 853 76 q 826 46 840 58 q 786 20 811 33 q 724 0 761 7 q 707 -3 713 -3 q 672 5 690 -3 q 639 25 654 13 q 613 55 624 38 q 603 93 603 72 q 613 197 603 149 q 638 290 624 246 q 597 294 621 290 q 547 300 572 297 q 490 208 519 254 q 435 115 461 161 q 397 61 419 89 q 345 11 374 33 q 284 -26 317 -11 q 217 -40 251 -40 q 128 -8 169 -40 m 715 490 q 604 381 658 451 q 637 379 621 379 q 668 378 653 379 q 692 438 679 410 q 715 490 704 467 m 167 322 q 92 276 118 315 q 65 190 65 236 q 79 124 65 156 q 115 69 93 93 q 163 30 136 44 q 217 15 190 15 q 296 45 260 15 q 363 119 332 75 q 422 214 394 163 q 474 308 449 265 q 363 321 418 315 q 249 326 307 326 q 167 322 208 326 m 958 640 q 960 636 958 638 q 963 633 963 635 q 955 628 963 631 q 921 625 947 625 q 864 636 896 625 q 811 679 832 647 q 779 664 796 668 q 746 660 763 660 q 712 664 728 660 q 683 674 696 668 q 663 684 671 679 q 656 692 656 689 l 661 700 q 682 694 664 699 q 724 689 700 689 q 763 696 747 689 q 790 711 779 703 q 806 726 800 719 q 819 733 813 733 q 840 725 835 733 q 849 705 844 717 q 860 680 853 693 q 888 658 867 667 q 932 645 911 647 q 958 642 953 643 l 958 640 z "},"":{"ha":822,"x_min":22,"x_max":936,"o":"m 128 -8 q 51 79 79 25 q 22 189 22 133 q 38 261 22 231 q 81 314 54 292 q 139 349 107 336 q 204 365 171 361 q 333 376 250 371 q 517 382 417 382 q 594 482 553 440 q 677 551 636 524 q 753 591 718 578 q 808 604 788 604 q 835 595 825 604 q 844 550 844 586 q 834 519 844 539 q 808 474 824 499 q 776 424 793 450 q 746 372 758 397 q 803 369 782 372 q 836 359 825 365 q 851 345 847 353 q 854 329 854 338 q 853 306 854 318 q 851 285 853 294 q 850 263 850 274 q 818 276 836 272 q 781 282 800 281 q 742 283 761 283 q 704 285 722 283 q 666 191 685 242 q 647 101 647 140 q 664 52 647 74 q 717 31 681 31 q 745 35 732 31 q 769 42 758 39 q 829 72 817 61 q 844 83 842 83 q 851 81 847 83 q 854 75 854 78 l 854 76 q 847 67 853 76 q 826 46 840 58 q 786 20 811 33 q 724 0 761 7 q 707 -3 713 -3 q 672 5 690 -3 q 639 25 654 13 q 613 55 624 38 q 603 93 603 72 q 613 197 603 149 q 638 290 624 246 q 597 294 621 290 q 547 300 572 297 q 490 208 519 254 q 435 115 461 161 q 397 61 419 89 q 345 11 374 33 q 284 -26 317 -11 q 217 -40 251 -40 q 128 -8 169 -40 m 715 490 q 604 381 658 451 q 637 379 621 379 q 668 378 653 379 q 692 438 679 410 q 715 490 704 467 m 167 322 q 92 276 118 315 q 65 190 65 236 q 79 124 65 156 q 115 69 93 93 q 163 30 136 44 q 217 15 190 15 q 296 45 260 15 q 363 119 332 75 q 422 214 394 163 q 474 308 449 265 q 363 321 418 315 q 249 326 307 326 q 167 322 208 326 m 765 692 q 738 701 750 696 q 713 706 726 706 q 690 696 694 706 q 686 682 686 686 q 687 675 686 678 q 688 671 688 672 q 686 669 686 671 q 681 667 686 667 q 676 671 678 668 q 674 683 674 676 q 686 714 674 703 q 714 725 699 725 q 783 717 747 725 q 840 708 818 708 q 873 714 858 708 q 890 751 888 719 q 902 751 894 751 q 917 747 910 750 q 931 738 925 743 q 936 721 936 732 q 920 685 936 706 q 864 664 904 664 q 811 674 838 664 q 765 692 785 685 z "},"":{"ha":822,"x_min":22,"x_max":892,"o":"m 128 -8 q 51 79 79 25 q 22 189 22 133 q 38 261 22 231 q 81 314 54 292 q 139 349 107 336 q 204 365 171 361 q 333 376 250 371 q 517 382 417 382 q 594 482 553 440 q 677 551 636 524 q 753 591 718 578 q 808 604 788 604 q 835 595 825 604 q 844 550 844 586 q 834 519 844 539 q 808 474 824 499 q 776 424 793 450 q 746 372 758 397 q 803 369 782 372 q 836 359 825 365 q 851 345 847 353 q 854 329 854 338 q 853 306 854 318 q 851 285 853 294 q 850 263 850 274 q 818 276 836 272 q 781 282 800 281 q 742 283 761 283 q 704 285 722 283 q 666 191 685 242 q 647 101 647 140 q 664 52 647 74 q 717 31 681 31 q 745 35 732 31 q 769 42 758 39 q 829 72 817 61 q 844 83 842 83 q 851 81 847 83 q 854 75 854 78 l 854 76 q 847 67 853 76 q 826 46 840 58 q 786 20 811 33 q 724 0 761 7 q 707 -3 713 -3 q 672 5 690 -3 q 639 25 654 13 q 613 55 624 38 q 603 93 603 72 q 613 197 603 149 q 638 290 624 246 q 597 294 621 290 q 547 300 572 297 q 490 208 519 254 q 435 115 461 161 q 397 61 419 89 q 345 11 374 33 q 284 -26 317 -11 q 217 -40 251 -40 q 128 -8 169 -40 m 715 490 q 604 381 658 451 q 637 379 621 379 q 668 378 653 379 q 692 438 679 410 q 715 490 704 467 m 167 322 q 92 276 118 315 q 65 190 65 236 q 79 124 65 156 q 115 69 93 93 q 163 30 136 44 q 217 15 190 15 q 296 45 260 15 q 363 119 332 75 q 422 214 394 163 q 474 308 449 265 q 363 321 418 315 q 249 326 307 326 q 167 322 208 326 m 840 729 q 850 728 842 728 q 867 726 858 728 q 884 719 876 724 q 892 707 892 715 q 881 688 892 700 q 871 642 871 676 q 872 629 871 633 l 864 629 q 844 633 856 629 q 832 657 832 638 q 833 665 832 661 q 837 674 835 668 q 841 690 839 681 q 843 717 843 700 q 840 729 843 724 m 743 729 q 753 728 744 728 q 771 726 761 728 q 788 720 781 725 q 794 706 794 715 q 793 696 794 699 q 783 678 788 688 q 774 640 774 658 q 775 629 774 632 l 767 629 q 747 633 758 629 q 735 656 735 638 q 736 664 735 661 q 740 672 738 667 q 744 686 742 676 q 746 715 746 696 q 743 729 746 724 z "},"":{"ha":822,"x_min":22,"x_max":885,"o":"m 128 -8 q 51 79 79 25 q 22 189 22 133 q 38 261 22 231 q 81 314 54 292 q 139 349 107 336 q 204 365 171 361 q 333 376 250 371 q 517 382 417 382 q 594 482 553 440 q 677 551 636 524 q 753 591 718 578 q 808 604 788 604 q 835 595 825 604 q 844 550 844 586 q 834 519 844 539 q 808 474 824 499 q 776 424 793 450 q 746 372 758 397 q 803 369 782 372 q 836 359 825 365 q 851 345 847 353 q 854 329 854 338 q 853 306 854 318 q 851 285 853 294 q 850 263 850 274 q 818 276 836 272 q 781 282 800 281 q 742 283 761 283 q 704 285 722 283 q 666 191 685 242 q 647 101 647 140 q 664 52 647 74 q 717 31 681 31 q 745 35 732 31 q 769 42 758 39 q 829 72 817 61 q 844 83 842 83 q 851 81 847 83 q 854 75 854 78 l 854 76 q 847 67 853 76 q 826 46 840 58 q 786 20 811 33 q 724 0 761 7 q 707 -3 713 -3 q 672 5 690 -3 q 639 25 654 13 q 613 55 624 38 q 603 93 603 72 q 613 197 603 149 q 638 290 624 246 q 597 294 621 290 q 547 300 572 297 q 490 208 519 254 q 435 115 461 161 q 397 61 419 89 q 345 11 374 33 q 284 -26 317 -11 q 217 -40 251 -40 q 128 -8 169 -40 m 715 490 q 604 381 658 451 q 637 379 621 379 q 668 378 653 379 q 692 438 679 410 q 715 490 704 467 m 167 322 q 92 276 118 315 q 65 190 65 236 q 79 124 65 156 q 115 69 93 93 q 163 30 136 44 q 217 15 190 15 q 296 45 260 15 q 363 119 332 75 q 422 214 394 163 q 474 308 449 265 q 363 321 418 315 q 249 326 307 326 q 167 322 208 326 m 865 643 q 827 647 847 642 q 789 676 807 653 q 790 686 789 679 q 794 703 790 693 q 813 715 800 713 q 839 713 825 717 q 865 703 853 710 q 883 688 878 696 q 885 682 885 686 q 874 651 885 674 q 865 643 871 646 m 850 663 q 851 665 850 664 q 853 667 853 665 q 857 681 857 676 l 857 683 q 837 694 851 690 q 818 690 822 699 q 815 678 815 683 q 832 665 822 667 q 850 663 842 663 z "},"":{"ha":497,"x_min":-18,"x_max":596,"o":"m 182 -68 q 115 -53 146 -68 q 63 -12 85 -37 q 29 49 42 14 q 17 125 17 85 q 49 292 15 207 q 140 444 83 376 q 274 556 197 513 q 433 599 350 599 q 553 575 513 599 q 596 524 593 551 q 594 515 596 518 q 549 431 564 467 q 528 370 535 394 q 521 333 522 346 q 515 315 519 319 l 513 314 q 463 328 481 317 q 438 354 446 340 q 425 390 428 369 q 434 431 425 401 q 468 504 443 461 q 432 508 451 508 q 315 475 376 508 q 202 388 254 442 q 116 263 150 333 q 82 119 82 193 q 87 64 82 90 q 104 19 92 38 q 139 -11 117 0 q 196 -22 161 -22 q 265 -12 231 -22 q 332 14 300 -3 q 391 52 364 31 q 438 97 418 74 q 488 166 472 139 q 509 209 503 193 q 517 231 515 225 q 529 236 519 236 q 535 233 533 236 q 536 228 536 231 q 528 194 536 218 q 503 141 521 171 q 458 76 486 111 q 389 11 429 42 q 349 -15 372 -1 q 300 -41 326 -29 q 243 -60 274 -53 q 182 -68 213 -68 m 82 -1 q 82 -13 82 -8 q 85 -23 82 -18 q 94 -34 88 -28 q 117 -51 101 -40 q 124 -63 124 -58 q 125 -75 125 -68 q 100 -120 119 -110 q 61 -131 81 -131 q 17 -122 33 -131 q -6 -103 1 -114 q -16 -84 -14 -93 q -18 -74 -18 -75 q -12 -58 -18 -64 q 2 -49 -6 -51 q 17 -45 10 -46 q 28 -43 25 -44 q 35 -68 31 -60 q 46 -81 39 -76 q 61 -86 51 -86 l 60 -86 q 76 -89 71 -89 q 93 -72 93 -89 q 89 -62 93 -68 q 79 -49 85 -56 q 69 -35 74 -42 q 65 -22 65 -28 q 69 -5 65 -11 q 74 3 74 1 q 75 1 74 1 q 76 1 76 1 q 78 0 76 0 q 82 -1 79 -1 z "},"":{"ha":824,"x_min":17,"x_max":936,"o":"m 921 608 q 936 556 936 579 q 931 528 936 540 q 921 510 926 517 q 907 494 915 501 q 858 477 897 488 q 753 467 819 467 q 688 470 722 467 q 617 479 653 474 q 619 470 618 474 q 619 464 619 467 q 574 442 596 453 q 535 420 554 432 q 504 397 517 408 q 572 383 538 390 q 632 369 606 376 q 675 358 658 363 q 692 351 692 353 l 693 351 q 696 343 696 349 q 692 333 696 338 l 689 332 l 689 333 q 667 331 686 332 q 608 331 649 331 q 530 331 572 331 q 447 332 488 332 q 397 246 419 296 q 375 143 375 196 q 406 35 375 83 q 504 -19 438 -14 q 612 2 564 -17 q 697 47 660 21 q 760 104 733 74 q 803 162 786 135 q 827 207 819 189 q 835 228 835 225 q 836 231 835 229 q 843 233 839 233 q 851 226 851 233 q 837 163 851 197 q 798 96 822 129 q 740 32 774 63 q 669 -22 707 1 q 592 -59 632 -46 q 515 -72 553 -72 q 428 -53 467 -72 q 362 -1 389 -33 q 320 72 335 31 q 306 160 306 114 q 319 252 306 208 q 351 333 332 296 q 315 347 321 333 q 308 376 308 361 l 308 406 q 310 419 308 413 q 326 413 315 415 q 347 409 336 411 q 368 406 358 407 q 382 406 378 406 l 382 404 q 388 405 385 404 q 393 406 390 406 q 440 463 415 438 q 488 504 464 488 q 414 517 451 513 q 339 522 376 522 q 234 508 285 522 q 144 462 183 493 q 80 381 104 431 q 56 261 56 331 q 71 173 56 211 q 110 110 86 135 q 166 72 135 85 q 231 58 197 58 q 260 61 249 58 q 274 64 271 64 q 278 63 272 64 q 283 56 283 63 q 270 46 283 53 q 213 39 257 39 q 153 49 188 39 q 90 87 119 60 q 38 160 60 114 q 17 279 17 207 q 47 417 17 349 q 144 533 76 485 q 258 579 201 567 q 369 592 315 592 q 467 585 421 592 q 553 574 513 579 q 640 563 601 567 q 707 560 679 560 q 804 568 765 560 q 868 585 843 576 q 905 602 893 594 q 921 608 917 610 m 585 757 q 598 738 589 750 q 611 721 607 726 q 623 709 615 717 q 643 693 631 701 q 674 679 656 685 q 717 674 692 674 q 760 678 740 674 q 783 685 779 683 l 785 685 l 785 683 q 786 681 785 681 q 789 676 789 674 q 789 675 789 678 q 779 667 789 672 q 753 658 769 663 q 717 649 738 653 q 675 644 697 644 q 640 649 660 644 q 601 661 619 653 q 569 683 582 669 q 556 717 556 697 q 560 730 556 724 q 569 743 564 736 q 585 757 575 750 z "},"":{"ha":824,"x_min":17,"x_max":936,"o":"m 921 608 q 936 556 936 579 q 931 528 936 540 q 921 510 926 517 q 907 494 915 501 q 858 477 897 488 q 753 467 819 467 q 688 470 722 467 q 617 479 653 474 q 619 470 618 474 q 619 464 619 467 q 574 442 596 453 q 535 420 554 432 q 504 397 517 408 q 572 383 538 390 q 632 369 606 376 q 675 358 658 363 q 692 351 692 353 l 693 351 q 696 343 696 349 q 692 333 696 338 l 689 332 l 689 333 q 667 331 686 332 q 608 331 649 331 q 530 331 572 331 q 447 332 488 332 q 397 246 419 296 q 375 143 375 196 q 406 35 375 83 q 504 -19 438 -14 q 612 2 564 -17 q 697 47 660 21 q 760 104 733 74 q 803 162 786 135 q 827 207 819 189 q 835 228 835 225 q 836 231 835 229 q 843 233 839 233 q 851 226 851 233 q 837 163 851 197 q 798 96 822 129 q 740 32 774 63 q 669 -22 707 1 q 592 -59 632 -46 q 515 -72 553 -72 q 428 -53 467 -72 q 362 -1 389 -33 q 320 72 335 31 q 306 160 306 114 q 319 252 306 208 q 351 333 332 296 q 315 347 321 333 q 308 376 308 361 l 308 406 q 310 419 308 413 q 326 413 315 415 q 347 409 336 411 q 368 406 358 407 q 382 406 378 406 l 382 404 q 388 405 385 404 q 393 406 390 406 q 440 463 415 438 q 488 504 464 488 q 414 517 451 513 q 339 522 376 522 q 234 508 285 522 q 144 462 183 493 q 80 381 104 431 q 56 261 56 331 q 71 173 56 211 q 110 110 86 135 q 166 72 135 85 q 231 58 197 58 q 260 61 249 58 q 274 64 271 64 q 278 63 272 64 q 283 56 283 63 q 270 46 283 53 q 213 39 257 39 q 153 49 188 39 q 90 87 119 60 q 38 160 60 114 q 17 279 17 207 q 47 417 17 349 q 144 533 76 485 q 258 579 201 567 q 369 592 315 592 q 467 585 421 592 q 553 574 513 579 q 640 563 601 567 q 707 560 679 560 q 804 568 765 560 q 868 585 843 576 q 905 602 893 594 q 921 608 917 610 m 761 757 q 767 751 763 757 q 778 739 772 746 q 788 723 783 732 q 792 708 792 714 q 778 678 792 690 q 745 659 764 667 q 706 648 726 651 q 671 644 685 644 q 628 649 649 644 q 592 658 608 653 q 567 667 576 663 q 557 675 557 672 l 560 681 q 560 682 560 682 q 561 683 561 682 l 563 685 q 586 678 567 683 q 629 674 606 674 q 672 679 654 674 q 703 693 690 685 q 723 709 715 701 q 735 721 731 717 q 748 738 739 726 q 761 757 757 750 z "},"":{"ha":824,"x_min":17,"x_max":936,"o":"m 921 608 q 936 556 936 579 q 931 528 936 540 q 921 510 926 517 q 907 494 915 501 q 858 477 897 488 q 753 467 819 467 q 688 470 722 467 q 617 479 653 474 q 619 470 618 474 q 619 464 619 467 q 574 442 596 453 q 535 420 554 432 q 504 397 517 408 q 572 383 538 390 q 632 369 606 376 q 675 358 658 363 q 692 351 692 353 l 693 351 q 696 343 696 349 q 692 333 696 338 l 689 332 l 689 333 q 667 331 686 332 q 608 331 649 331 q 530 331 572 331 q 447 332 488 332 q 397 246 419 296 q 375 143 375 196 q 406 35 375 83 q 504 -19 438 -14 q 612 2 564 -17 q 697 47 660 21 q 760 104 733 74 q 803 162 786 135 q 827 207 819 189 q 835 228 835 225 q 836 231 835 229 q 843 233 839 233 q 851 226 851 233 q 837 163 851 197 q 798 96 822 129 q 740 32 774 63 q 669 -22 707 1 q 592 -59 632 -46 q 515 -72 553 -72 q 428 -53 467 -72 q 362 -1 389 -33 q 320 72 335 31 q 306 160 306 114 q 319 252 306 208 q 351 333 332 296 q 315 347 321 333 q 308 376 308 361 l 308 406 q 310 419 308 413 q 326 413 315 415 q 347 409 336 411 q 368 406 358 407 q 382 406 378 406 l 382 404 q 388 405 385 404 q 393 406 390 406 q 440 463 415 438 q 488 504 464 488 q 414 517 451 513 q 339 522 376 522 q 234 508 285 522 q 144 462 183 493 q 80 381 104 431 q 56 261 56 331 q 71 173 56 211 q 110 110 86 135 q 166 72 135 85 q 231 58 197 58 q 260 61 249 58 q 274 64 271 64 q 278 63 272 64 q 283 56 283 63 q 270 46 283 53 q 213 39 257 39 q 153 49 188 39 q 90 87 119 60 q 38 160 60 114 q 17 279 17 207 q 47 417 17 349 q 144 533 76 485 q 258 579 201 567 q 369 592 315 592 q 467 585 421 592 q 553 574 513 579 q 640 563 601 567 q 707 560 679 560 q 804 568 765 560 q 868 585 843 576 q 905 602 893 594 q 921 608 917 610 m 821 624 q 823 619 821 621 q 825 617 825 618 q 817 611 825 614 q 783 608 810 608 q 726 619 758 608 q 674 663 694 631 q 642 647 658 651 q 608 643 625 643 q 574 647 590 643 q 546 657 558 651 q 526 667 533 663 q 518 675 518 672 l 524 683 q 544 677 526 682 q 586 672 563 672 q 626 679 610 672 q 652 694 642 686 q 669 710 663 703 q 682 717 675 717 q 702 708 697 717 q 711 688 707 700 q 722 663 715 676 q 750 642 729 650 q 794 628 774 631 q 821 625 815 626 l 821 624 z "},"":{"ha":824,"x_min":17,"x_max":936,"o":"m 921 608 q 936 556 936 579 q 931 528 936 540 q 921 510 926 517 q 907 494 915 501 q 858 477 897 488 q 753 467 819 467 q 688 470 722 467 q 617 479 653 474 q 619 470 618 474 q 619 464 619 467 q 574 442 596 453 q 535 420 554 432 q 504 397 517 408 q 572 383 538 390 q 632 369 606 376 q 675 358 658 363 q 692 351 692 353 l 693 351 q 696 343 696 349 q 692 333 696 338 l 689 332 l 689 333 q 667 331 686 332 q 608 331 649 331 q 530 331 572 331 q 447 332 488 332 q 397 246 419 296 q 375 143 375 196 q 406 35 375 83 q 504 -19 438 -14 q 612 2 564 -17 q 697 47 660 21 q 760 104 733 74 q 803 162 786 135 q 827 207 819 189 q 835 228 835 225 q 836 231 835 229 q 843 233 839 233 q 851 226 851 233 q 837 163 851 197 q 798 96 822 129 q 740 32 774 63 q 669 -22 707 1 q 592 -59 632 -46 q 515 -72 553 -72 q 428 -53 467 -72 q 362 -1 389 -33 q 320 72 335 31 q 306 160 306 114 q 319 252 306 208 q 351 333 332 296 q 315 347 321 333 q 308 376 308 361 l 308 406 q 310 419 308 413 q 326 413 315 415 q 347 409 336 411 q 368 406 358 407 q 382 406 378 406 l 382 404 q 388 405 385 404 q 393 406 390 406 q 440 463 415 438 q 488 504 464 488 q 414 517 451 513 q 339 522 376 522 q 234 508 285 522 q 144 462 183 493 q 80 381 104 431 q 56 261 56 331 q 71 173 56 211 q 110 110 86 135 q 166 72 135 85 q 231 58 197 58 q 260 61 249 58 q 274 64 271 64 q 278 63 272 64 q 283 56 283 63 q 270 46 283 53 q 213 39 257 39 q 153 49 188 39 q 90 87 119 60 q 38 160 60 114 q 17 279 17 207 q 47 417 17 349 q 144 533 76 485 q 258 579 201 567 q 369 592 315 592 q 467 585 421 592 q 553 574 513 579 q 640 563 601 567 q 707 560 679 560 q 804 568 765 560 q 868 585 843 576 q 905 602 893 594 q 921 608 917 610 m 699 729 q 708 728 700 728 q 726 726 717 728 q 742 719 735 724 q 750 707 750 715 q 740 688 750 700 q 729 642 729 676 q 731 629 729 633 l 722 629 q 702 633 714 629 q 690 657 690 638 q 692 665 690 661 q 695 674 693 668 q 699 690 697 681 q 701 717 701 700 q 699 729 701 724 m 601 729 q 611 728 603 728 q 629 726 619 728 q 646 720 639 725 q 653 706 653 715 q 651 696 653 699 q 642 678 646 688 q 632 640 632 658 q 633 629 632 632 l 625 629 q 605 633 617 629 q 593 656 593 638 q 594 664 593 661 q 598 672 596 667 q 602 686 600 676 q 604 715 604 696 q 601 729 604 724 z "},"":{"ha":583,"x_min":19,"x_max":832,"o":"m 817 596 q 832 544 832 569 q 827 517 832 529 q 817 499 822 506 q 803 483 811 489 q 751 466 792 476 q 640 456 711 456 q 629 456 635 456 q 618 457 624 456 q 629 446 625 450 q 633 419 633 442 q 626 388 633 403 q 598 330 614 364 q 565 257 582 296 q 530 176 547 218 q 499 98 513 135 q 476 32 485 61 q 465 -14 467 3 q 540 -34 508 -21 q 579 -51 572 -47 q 574 -72 579 -58 q 562 -100 568 -86 q 550 -125 556 -114 q 543 -136 544 -136 q 472 -90 518 -108 q 378 -61 426 -72 q 288 -45 331 -50 q 226 -40 246 -40 q 214 -42 214 -40 q 211 -40 213 -42 q 208 -29 208 -37 q 226 -21 208 -25 q 274 -13 244 -17 q 339 -8 303 -10 q 413 -6 375 -6 q 410 -3 411 -3 q 409 -1 410 -3 q 408 8 408 1 q 408 26 408 14 q 411 49 408 36 q 418 81 414 63 q 453 193 433 139 q 492 296 474 247 q 527 387 511 344 q 551 465 543 429 q 438 485 493 472 q 321 499 382 499 q 229 488 276 499 q 144 455 182 478 q 81 397 106 432 q 57 311 57 361 q 90 228 57 257 q 181 199 122 199 q 215 202 203 199 q 231 206 228 206 q 234 204 229 206 q 239 196 239 203 q 222 185 239 192 q 169 176 206 179 q 129 181 154 176 q 80 201 104 186 q 38 244 56 217 q 19 319 19 272 q 52 433 19 386 q 135 510 85 481 q 247 552 186 539 q 365 565 308 565 q 433 563 390 565 q 524 559 475 561 q 624 557 574 557 q 716 560 674 557 q 785 572 758 564 q 817 596 813 581 m 496 757 q 509 738 500 750 q 522 721 518 726 q 534 709 526 717 q 554 693 542 701 q 585 679 567 685 q 628 674 603 674 q 671 678 651 674 q 694 685 690 683 l 696 685 l 696 683 q 697 681 696 681 q 700 676 700 674 q 700 675 700 678 q 690 667 700 672 q 665 658 681 663 q 628 649 649 653 q 586 644 608 644 q 551 649 571 644 q 512 661 531 653 q 480 683 493 669 q 467 717 467 697 q 471 730 467 724 q 481 743 475 736 q 496 757 486 750 z "},"":{"ha":583,"x_min":19,"x_max":832,"o":"m 817 596 q 832 544 832 569 q 827 517 832 529 q 817 499 822 506 q 803 483 811 489 q 751 466 792 476 q 640 456 711 456 q 629 456 635 456 q 618 457 624 456 q 629 446 625 450 q 633 419 633 442 q 626 388 633 403 q 598 330 614 364 q 565 257 582 296 q 530 176 547 218 q 499 98 513 135 q 476 32 485 61 q 465 -14 467 3 q 540 -34 508 -21 q 579 -51 572 -47 q 574 -72 579 -58 q 562 -100 568 -86 q 550 -125 556 -114 q 543 -136 544 -136 q 472 -90 518 -108 q 378 -61 426 -72 q 288 -45 331 -50 q 226 -40 246 -40 q 214 -42 214 -40 q 211 -40 213 -42 q 208 -29 208 -37 q 226 -21 208 -25 q 274 -13 244 -17 q 339 -8 303 -10 q 413 -6 375 -6 q 410 -3 411 -3 q 409 -1 410 -3 q 408 8 408 1 q 408 26 408 14 q 411 49 408 36 q 418 81 414 63 q 453 193 433 139 q 492 296 474 247 q 527 387 511 344 q 551 465 543 429 q 438 485 493 472 q 321 499 382 499 q 229 488 276 499 q 144 455 182 478 q 81 397 106 432 q 57 311 57 361 q 90 228 57 257 q 181 199 122 199 q 215 202 203 199 q 231 206 228 206 q 234 204 229 206 q 239 196 239 203 q 222 185 239 192 q 169 176 206 179 q 129 181 154 176 q 80 201 104 186 q 38 244 56 217 q 19 319 19 272 q 52 433 19 386 q 135 510 85 481 q 247 552 186 539 q 365 565 308 565 q 433 563 390 565 q 524 559 475 561 q 624 557 574 557 q 716 560 674 557 q 785 572 758 564 q 817 596 813 581 m 671 757 q 677 751 672 757 q 688 739 682 746 q 697 723 693 732 q 701 708 701 714 q 688 678 701 690 q 655 659 674 667 q 615 648 636 651 q 581 644 594 644 q 538 649 558 644 q 502 658 518 653 q 476 667 486 663 q 467 675 467 672 l 469 681 q 470 682 469 682 q 471 683 471 682 l 472 685 q 496 678 476 683 q 539 674 515 674 q 582 679 564 674 q 613 693 600 685 q 633 709 625 701 q 644 721 640 717 q 658 738 649 726 q 671 757 667 750 z "},"":{"ha":583,"x_min":19,"x_max":832,"o":"m 817 596 q 832 544 832 569 q 827 517 832 529 q 817 499 822 506 q 803 483 811 489 q 751 466 792 476 q 640 456 711 456 q 629 456 635 456 q 618 457 624 456 q 629 446 625 450 q 633 419 633 442 q 626 388 633 403 q 598 330 614 364 q 565 257 582 296 q 530 176 547 218 q 499 98 513 135 q 476 32 485 61 q 465 -14 467 3 q 540 -34 508 -21 q 579 -51 572 -47 q 574 -72 579 -58 q 562 -100 568 -86 q 550 -125 556 -114 q 543 -136 544 -136 q 472 -90 518 -108 q 378 -61 426 -72 q 288 -45 331 -50 q 226 -40 246 -40 q 214 -42 214 -40 q 211 -40 213 -42 q 208 -29 208 -37 q 226 -21 208 -25 q 274 -13 244 -17 q 339 -8 303 -10 q 413 -6 375 -6 q 410 -3 411 -3 q 409 -1 410 -3 q 408 8 408 1 q 408 26 408 14 q 411 49 408 36 q 418 81 414 63 q 453 193 433 139 q 492 296 474 247 q 527 387 511 344 q 551 465 543 429 q 438 485 493 472 q 321 499 382 499 q 229 488 276 499 q 144 455 182 478 q 81 397 106 432 q 57 311 57 361 q 90 228 57 257 q 181 199 122 199 q 215 202 203 199 q 231 206 228 206 q 234 204 229 206 q 239 196 239 203 q 222 185 239 192 q 169 176 206 179 q 129 181 154 176 q 80 201 104 186 q 38 244 56 217 q 19 319 19 272 q 52 433 19 386 q 135 510 85 481 q 247 552 186 539 q 365 565 308 565 q 433 563 390 565 q 524 559 475 561 q 624 557 574 557 q 716 560 674 557 q 785 572 758 564 q 817 596 813 581 m 733 624 q 735 619 733 621 q 738 617 738 618 q 730 611 738 614 q 696 608 722 608 q 639 619 671 608 q 586 663 607 631 q 554 647 571 651 q 521 643 538 643 q 487 647 503 643 q 458 657 471 651 q 438 667 446 663 q 431 675 431 672 l 436 683 q 457 677 439 682 q 499 672 475 672 q 538 679 522 672 q 565 694 554 686 q 581 710 575 703 q 594 717 588 717 q 615 708 610 717 q 624 688 619 700 q 635 663 628 676 q 663 642 642 650 q 707 628 686 631 q 733 625 728 626 l 733 624 z "},"":{"ha":583,"x_min":19,"x_max":832,"o":"m 817 596 q 832 544 832 569 q 827 517 832 529 q 817 499 822 506 q 803 483 811 489 q 751 466 792 476 q 640 456 711 456 q 629 456 635 456 q 618 457 624 456 q 629 446 625 450 q 633 419 633 442 q 626 388 633 403 q 598 330 614 364 q 565 257 582 296 q 530 176 547 218 q 499 98 513 135 q 476 32 485 61 q 465 -14 467 3 q 540 -34 508 -21 q 579 -51 572 -47 q 574 -72 579 -58 q 562 -100 568 -86 q 550 -125 556 -114 q 543 -136 544 -136 q 472 -90 518 -108 q 378 -61 426 -72 q 288 -45 331 -50 q 226 -40 246 -40 q 214 -42 214 -40 q 211 -40 213 -42 q 208 -29 208 -37 q 226 -21 208 -25 q 274 -13 244 -17 q 339 -8 303 -10 q 413 -6 375 -6 q 410 -3 411 -3 q 409 -1 410 -3 q 408 8 408 1 q 408 26 408 14 q 411 49 408 36 q 418 81 414 63 q 453 193 433 139 q 492 296 474 247 q 527 387 511 344 q 551 465 543 429 q 438 485 493 472 q 321 499 382 499 q 229 488 276 499 q 144 455 182 478 q 81 397 106 432 q 57 311 57 361 q 90 228 57 257 q 181 199 122 199 q 215 202 203 199 q 231 206 228 206 q 234 204 229 206 q 239 196 239 203 q 222 185 239 192 q 169 176 206 179 q 129 181 154 176 q 80 201 104 186 q 38 244 56 217 q 19 319 19 272 q 52 433 19 386 q 135 510 85 481 q 247 552 186 539 q 365 565 308 565 q 433 563 390 565 q 524 559 475 561 q 624 557 574 557 q 716 560 674 557 q 785 572 758 564 q 817 596 813 581 m 611 729 q 621 728 613 728 q 638 726 629 728 q 655 719 647 724 q 663 707 663 715 q 652 688 663 700 q 642 642 642 676 q 643 629 642 633 l 635 629 q 615 633 626 629 q 603 657 603 638 q 604 665 603 661 q 608 674 606 668 q 612 690 610 681 q 614 717 614 700 q 611 729 614 724 m 514 729 q 524 728 515 728 q 542 726 532 728 q 558 720 551 725 q 565 706 565 715 q 564 696 565 699 q 554 678 558 688 q 544 640 544 658 q 546 629 544 632 l 538 629 q 517 633 529 629 q 506 656 506 638 q 507 664 506 661 q 510 672 508 667 q 515 686 513 676 q 517 715 517 696 q 514 729 517 724 z "},"":{"ha":844,"x_min":13,"x_max":931,"o":"m 924 540 q 928 515 931 529 q 921 488 926 500 q 889 424 908 467 q 847 326 869 381 q 803 210 825 271 q 762 95 781 150 q 732 -3 743 40 q 721 -68 721 -47 q 617 -2 658 -67 q 553 172 575 63 q 499 66 528 114 q 432 -16 469 18 q 347 -69 394 -50 q 240 -87 300 -87 q 75 -26 138 -87 q 13 160 13 36 q 34 288 13 226 q 93 398 56 350 q 181 476 131 446 q 290 508 232 506 q 339 501 318 508 q 376 485 360 494 q 405 465 392 475 q 431 449 418 454 q 420 430 431 438 q 395 417 410 422 q 366 410 381 413 q 344 406 351 407 q 282 440 326 440 q 194 417 242 440 q 115 356 147 394 q 61 266 75 307 q 47 171 47 225 q 57 93 47 131 q 88 26 67 56 q 142 -20 108 -3 q 224 -37 175 -37 q 335 -13 289 -37 q 415 49 382 11 q 468 135 447 88 q 504 228 489 182 q 528 302 517 265 q 549 370 539 339 q 568 426 560 401 q 581 465 576 451 l 581 467 q 589 500 585 485 q 594 528 592 514 q 599 553 597 543 q 613 546 599 553 q 642 529 626 539 q 670 509 657 519 q 683 493 683 499 q 678 472 683 485 q 671 449 674 458 q 672 447 672 449 q 628 328 649 399 q 607 183 607 258 q 624 70 607 117 q 664 -8 640 24 q 676 58 664 11 q 708 165 689 106 q 749 286 726 224 q 789 401 771 349 q 819 485 807 453 q 829 514 831 517 l 839 543 q 850 589 847 569 q 882 575 867 582 q 907 560 894 568 q 924 540 919 551 m 728 692 q 701 701 713 696 q 675 706 689 706 q 653 696 657 706 q 649 682 649 686 q 649 675 649 678 q 650 671 650 672 q 649 669 649 671 q 643 667 649 667 q 639 671 640 668 q 636 683 636 676 q 649 714 636 703 q 676 725 661 725 q 745 717 710 725 q 803 708 781 708 q 835 714 821 708 q 853 751 850 719 q 865 751 857 751 q 880 747 872 750 q 893 738 888 743 q 899 721 899 732 q 883 685 899 706 q 826 664 867 664 q 774 674 800 664 q 728 692 747 685 z "},"":{"ha":614,"x_min":6,"x_max":643,"o":"m 178 -47 q 52 31 93 -31 q 8 175 11 92 q 23 292 6 233 q 71 404 40 351 q 141 499 101 457 q 222 567 181 542 q 250 583 236 575 q 272 597 261 590 q 288 610 282 604 q 292 601 288 610 q 302 579 297 592 q 310 553 307 567 q 313 529 314 539 q 307 517 313 525 q 286 497 301 508 q 213 451 250 482 q 144 377 175 419 q 92 284 114 335 q 67 178 71 233 q 74 91 63 128 q 106 30 85 54 q 155 -7 126 6 q 215 -22 183 -19 q 311 -13 268 -26 q 393 40 354 0 l 376 49 q 319 94 340 65 q 285 157 297 124 q 271 226 274 190 q 271 294 268 263 q 290 390 275 340 q 330 480 304 439 q 392 546 356 521 q 474 567 428 571 q 532 541 510 564 q 565 485 554 518 q 579 416 576 453 q 581 349 582 379 q 565 267 576 307 q 537 189 553 226 q 501 120 521 151 q 464 67 482 89 q 526 76 501 64 q 572 107 551 88 q 604 142 593 128 q 621 167 615 157 q 628 181 626 176 q 635 185 631 185 q 642 181 640 185 q 643 176 643 178 q 633 147 643 172 q 599 94 622 122 q 539 44 576 65 q 444 28 501 24 q 428 31 439 28 q 376 -9 403 8 q 319 -37 350 -26 q 254 -51 289 -49 q 178 -47 219 -54 m 329 254 q 344 149 324 200 q 421 75 365 99 q 448 122 433 94 q 475 180 463 149 q 496 243 488 211 q 507 304 504 275 q 507 392 511 357 q 494 447 503 426 q 476 475 486 467 q 458 483 467 483 q 416 463 438 485 q 376 407 394 442 q 344 331 357 372 q 329 254 332 290 m 357 757 q 370 738 361 750 q 383 721 379 726 q 395 709 388 717 q 415 693 403 701 q 446 679 428 685 q 489 674 464 674 q 532 678 513 674 q 556 685 551 683 l 557 685 l 557 683 q 558 681 557 681 q 561 676 561 674 q 561 675 561 678 q 551 667 561 672 q 526 658 542 663 q 490 649 510 653 q 447 644 469 644 q 412 649 432 644 q 373 661 392 653 q 341 683 354 669 q 328 717 328 697 q 332 730 328 724 q 342 743 336 736 q 357 757 347 750 z "},"":{"ha":614,"x_min":6,"x_max":643,"o":"m 178 -47 q 52 31 93 -31 q 8 175 11 92 q 23 292 6 233 q 71 404 40 351 q 141 499 101 457 q 222 567 181 542 q 250 583 236 575 q 272 597 261 590 q 288 610 282 604 q 292 601 288 610 q 302 579 297 592 q 310 553 307 567 q 313 529 314 539 q 307 517 313 525 q 286 497 301 508 q 213 451 250 482 q 144 377 175 419 q 92 284 114 335 q 67 178 71 233 q 74 91 63 128 q 106 30 85 54 q 155 -7 126 6 q 215 -22 183 -19 q 311 -13 268 -26 q 393 40 354 0 l 376 49 q 319 94 340 65 q 285 157 297 124 q 271 226 274 190 q 271 294 268 263 q 290 390 275 340 q 330 480 304 439 q 392 546 356 521 q 474 567 428 571 q 532 541 510 564 q 565 485 554 518 q 579 416 576 453 q 581 349 582 379 q 565 267 576 307 q 537 189 553 226 q 501 120 521 151 q 464 67 482 89 q 526 76 501 64 q 572 107 551 88 q 604 142 593 128 q 621 167 615 157 q 628 181 626 176 q 635 185 631 185 q 642 181 640 185 q 643 176 643 178 q 633 147 643 172 q 599 94 622 122 q 539 44 576 65 q 444 28 501 24 q 428 31 439 28 q 376 -9 403 8 q 319 -37 350 -26 q 254 -51 289 -49 q 178 -47 219 -54 m 329 254 q 344 149 324 200 q 421 75 365 99 q 448 122 433 94 q 475 180 463 149 q 496 243 488 211 q 507 304 504 275 q 507 392 511 357 q 494 447 503 426 q 476 475 486 467 q 458 483 467 483 q 416 463 438 485 q 376 407 394 442 q 344 331 357 372 q 329 254 332 290 m 529 757 q 535 751 531 757 q 546 739 540 746 q 556 723 551 732 q 560 708 560 714 q 546 678 560 690 q 513 659 532 667 q 474 648 494 651 q 439 644 453 644 q 397 649 417 644 q 360 658 376 653 q 335 667 344 663 q 325 675 325 672 l 328 681 q 328 682 328 682 q 329 683 329 682 l 331 685 q 354 678 335 683 q 397 674 374 674 q 440 679 422 674 q 471 693 458 685 q 491 709 483 701 q 503 721 499 717 q 516 738 507 726 q 529 757 525 750 z "},"":{"ha":614,"x_min":6,"x_max":643,"o":"m 178 -47 q 52 31 93 -31 q 8 175 11 92 q 23 292 6 233 q 71 404 40 351 q 141 499 101 457 q 222 567 181 542 q 250 583 236 575 q 272 597 261 590 q 288 610 282 604 q 292 601 288 610 q 302 579 297 592 q 310 553 307 567 q 313 529 314 539 q 307 517 313 525 q 286 497 301 508 q 213 451 250 482 q 144 377 175 419 q 92 284 114 335 q 67 178 71 233 q 74 91 63 128 q 106 30 85 54 q 155 -7 126 6 q 215 -22 183 -19 q 311 -13 268 -26 q 393 40 354 0 l 376 49 q 319 94 340 65 q 285 157 297 124 q 271 226 274 190 q 271 294 268 263 q 290 390 275 340 q 330 480 304 439 q 392 546 356 521 q 474 567 428 571 q 532 541 510 564 q 565 485 554 518 q 579 416 576 453 q 581 349 582 379 q 565 267 576 307 q 537 189 553 226 q 501 120 521 151 q 464 67 482 89 q 526 76 501 64 q 572 107 551 88 q 604 142 593 128 q 621 167 615 157 q 628 181 626 176 q 635 185 631 185 q 642 181 640 185 q 643 176 643 178 q 633 147 643 172 q 599 94 622 122 q 539 44 576 65 q 444 28 501 24 q 428 31 439 28 q 376 -9 403 8 q 319 -37 350 -26 q 254 -51 289 -49 q 178 -47 219 -54 m 329 254 q 344 149 324 200 q 421 75 365 99 q 448 122 433 94 q 475 180 463 149 q 496 243 488 211 q 507 304 504 275 q 507 392 511 357 q 494 447 503 426 q 476 475 486 467 q 458 483 467 483 q 416 463 438 485 q 376 407 394 442 q 344 331 357 372 q 329 254 332 290 m 599 624 q 601 619 599 621 q 603 617 603 618 q 595 611 603 614 q 561 608 588 608 q 504 619 536 608 q 451 663 472 631 q 419 647 436 651 q 386 643 403 643 q 352 647 368 643 q 324 657 336 651 q 303 667 311 663 q 296 675 296 672 l 301 683 q 322 677 304 682 q 364 672 340 672 q 403 679 388 672 q 430 694 419 686 q 447 710 440 703 q 460 717 453 717 q 480 708 475 717 q 489 688 485 700 q 500 663 493 676 q 528 642 507 650 q 572 628 551 631 q 599 625 593 626 l 599 624 z "},"":{"ha":614,"x_min":6,"x_max":643,"o":"m 178 -47 q 52 31 93 -31 q 8 175 11 92 q 23 292 6 233 q 71 404 40 351 q 141 499 101 457 q 222 567 181 542 q 250 583 236 575 q 272 597 261 590 q 288 610 282 604 q 292 601 288 610 q 302 579 297 592 q 310 553 307 567 q 313 529 314 539 q 307 517 313 525 q 286 497 301 508 q 213 451 250 482 q 144 377 175 419 q 92 284 114 335 q 67 178 71 233 q 74 91 63 128 q 106 30 85 54 q 155 -7 126 6 q 215 -22 183 -19 q 311 -13 268 -26 q 393 40 354 0 l 376 49 q 319 94 340 65 q 285 157 297 124 q 271 226 274 190 q 271 294 268 263 q 290 390 275 340 q 330 480 304 439 q 392 546 356 521 q 474 567 428 571 q 532 541 510 564 q 565 485 554 518 q 579 416 576 453 q 581 349 582 379 q 565 267 576 307 q 537 189 553 226 q 501 120 521 151 q 464 67 482 89 q 526 76 501 64 q 572 107 551 88 q 604 142 593 128 q 621 167 615 157 q 628 181 626 176 q 635 185 631 185 q 642 181 640 185 q 643 176 643 178 q 633 147 643 172 q 599 94 622 122 q 539 44 576 65 q 444 28 501 24 q 428 31 439 28 q 376 -9 403 8 q 319 -37 350 -26 q 254 -51 289 -49 q 178 -47 219 -54 m 329 254 q 344 149 324 200 q 421 75 365 99 q 448 122 433 94 q 475 180 463 149 q 496 243 488 211 q 507 304 504 275 q 507 392 511 357 q 494 447 503 426 q 476 475 486 467 q 458 483 467 483 q 416 463 438 485 q 376 407 394 442 q 344 331 357 372 q 329 254 332 290 m 407 692 q 380 701 392 696 q 354 706 368 706 q 332 696 336 706 q 328 682 328 686 q 328 675 328 678 q 329 671 329 672 q 328 669 328 671 q 322 667 328 667 q 318 671 319 668 q 315 683 315 676 q 328 714 315 703 q 356 725 340 725 q 424 717 389 725 q 482 708 460 708 q 515 714 500 708 q 532 751 529 719 q 544 751 536 751 q 559 747 551 750 q 572 738 567 743 q 578 721 578 732 q 562 685 578 706 q 506 664 546 664 q 453 674 479 664 q 407 692 426 685 z "},"":{"ha":614,"x_min":6,"x_max":643,"o":"m 178 -47 q 52 31 93 -31 q 8 175 11 92 q 23 292 6 233 q 71 404 40 351 q 141 499 101 457 q 222 567 181 542 q 250 583 236 575 q 272 597 261 590 q 288 610 282 604 q 292 601 288 610 q 302 579 297 592 q 310 553 307 567 q 313 529 314 539 q 307 517 313 525 q 286 497 301 508 q 213 451 250 482 q 144 377 175 419 q 92 284 114 335 q 67 178 71 233 q 74 91 63 128 q 106 30 85 54 q 155 -7 126 6 q 215 -22 183 -19 q 311 -13 268 -26 q 393 40 354 0 l 376 49 q 319 94 340 65 q 285 157 297 124 q 271 226 274 190 q 271 294 268 263 q 290 390 275 340 q 330 480 304 439 q 392 546 356 521 q 474 567 428 571 q 532 541 510 564 q 565 485 554 518 q 579 416 576 453 q 581 349 582 379 q 565 267 576 307 q 537 189 553 226 q 501 120 521 151 q 464 67 482 89 q 526 76 501 64 q 572 107 551 88 q 604 142 593 128 q 621 167 615 157 q 628 181 626 176 q 635 185 631 185 q 642 181 640 185 q 643 176 643 178 q 633 147 643 172 q 599 94 622 122 q 539 44 576 65 q 444 28 501 24 q 428 31 439 28 q 376 -9 403 8 q 319 -37 350 -26 q 254 -51 289 -49 q 178 -47 219 -54 m 329 254 q 344 149 324 200 q 421 75 365 99 q 448 122 433 94 q 475 180 463 149 q 496 243 488 211 q 507 304 504 275 q 507 392 511 357 q 494 447 503 426 q 476 475 486 467 q 458 483 467 483 q 416 463 438 485 q 376 407 394 442 q 344 331 357 372 q 329 254 332 290 m 468 729 q 478 728 469 728 q 495 726 486 728 q 512 719 504 724 q 519 707 519 715 q 509 688 519 700 q 499 642 499 676 q 500 629 499 633 l 492 629 q 472 633 483 629 q 460 657 460 638 q 461 665 460 661 q 465 674 463 668 q 469 690 467 681 q 471 717 471 700 q 468 729 471 724 m 371 729 q 381 728 372 728 q 399 726 389 728 q 415 720 408 725 q 422 706 422 715 q 421 696 422 699 q 411 678 415 688 q 401 640 401 658 q 403 629 401 632 l 394 629 q 374 633 386 629 q 363 656 363 638 q 364 664 363 661 q 367 672 365 667 q 372 686 369 676 q 374 715 374 696 q 371 729 374 724 z "},"":{"ha":614,"x_min":6,"x_max":643,"o":"m 178 -47 q 52 31 93 -31 q 8 175 11 92 q 23 292 6 233 q 71 404 40 351 q 141 499 101 457 q 222 567 181 542 q 250 583 236 575 q 272 597 261 590 q 288 610 282 604 q 292 601 288 610 q 302 579 297 592 q 310 553 307 567 q 313 529 314 539 q 307 517 313 525 q 286 497 301 508 q 213 451 250 482 q 144 377 175 419 q 92 284 114 335 q 67 178 71 233 q 74 91 63 128 q 106 30 85 54 q 155 -7 126 6 q 215 -22 183 -19 q 311 -13 268 -26 q 393 40 354 0 l 376 49 q 319 94 340 65 q 285 157 297 124 q 271 226 274 190 q 271 294 268 263 q 290 390 275 340 q 330 480 304 439 q 392 546 356 521 q 474 567 428 571 q 532 541 510 564 q 565 485 554 518 q 579 416 576 453 q 581 349 582 379 q 565 267 576 307 q 537 189 553 226 q 501 120 521 151 q 464 67 482 89 q 526 76 501 64 q 572 107 551 88 q 604 142 593 128 q 621 167 615 157 q 628 181 626 176 q 635 185 631 185 q 642 181 640 185 q 643 176 643 178 q 633 147 643 172 q 599 94 622 122 q 539 44 576 65 q 444 28 501 24 q 428 31 439 28 q 376 -9 403 8 q 319 -37 350 -26 q 254 -51 289 -49 q 178 -47 219 -54 m 329 254 q 344 149 324 200 q 421 75 365 99 q 448 122 433 94 q 475 180 463 149 q 496 243 488 211 q 507 304 504 275 q 507 392 511 357 q 494 447 503 426 q 476 475 486 467 q 458 483 467 483 q 416 463 438 485 q 376 407 394 442 q 344 331 357 372 q 329 254 332 290 m 428 570 q 377 422 406 497 q 321 274 349 346 q 266 137 293 201 q 218 24 239 72 q 185 -52 197 -24 q 175 -80 173 -80 q 168 -79 171 -80 q 162 -75 165 -79 q 160 -72 160 -74 q 177 -9 164 -60 q 208 113 190 43 q 248 262 226 183 q 286 412 269 342 q 316 534 304 483 q 330 598 329 585 q 333 633 332 612 q 335 666 335 653 q 370 654 349 658 q 407 641 390 650 q 432 617 425 633 q 428 570 439 601 z "},"":{"ha":744,"x_min":8,"x_max":775,"o":"m 718 64 q 702 44 711 56 q 681 23 693 33 q 651 6 668 13 q 614 -1 635 -1 q 579 6 594 -1 q 549 38 564 14 q 476 -21 521 1 q 378 -43 432 -43 q 307 -31 343 -43 q 242 6 271 -18 q 194 65 213 31 q 176 144 176 100 q 194 254 176 206 q 224 339 213 303 q 148 314 186 322 q 79 306 110 306 q 24 309 39 306 q 8 319 8 313 q 22 326 8 325 q 59 331 36 328 q 111 340 82 333 q 169 367 140 347 q 219 399 199 381 q 255 435 240 418 q 276 465 269 453 q 285 482 283 478 q 288 491 285 482 q 296 512 292 500 q 303 535 300 524 q 306 556 306 547 q 320 550 308 554 q 346 538 332 546 q 370 517 360 529 q 381 489 381 506 q 379 474 381 482 q 375 456 378 465 q 338 383 358 422 q 299 301 318 343 q 267 213 281 258 q 251 121 253 167 q 264 81 251 100 q 297 47 276 61 q 343 24 318 32 q 393 15 368 15 q 478 44 439 15 q 542 113 518 72 q 543 117 542 115 q 567 232 549 168 q 608 356 586 296 q 649 460 629 415 q 675 518 668 506 q 685 549 679 533 q 692 574 689 561 q 696 594 696 586 q 711 588 699 593 q 738 575 724 583 q 764 554 753 567 q 775 525 775 542 q 768 492 775 507 q 746 447 761 476 q 712 378 731 417 q 673 294 693 339 q 637 208 653 250 q 610 129 621 165 q 600 69 600 93 q 624 40 600 40 q 682 69 647 40 q 744 161 717 97 q 747 163 744 161 q 757 160 754 163 q 760 156 760 157 q 751 124 760 151 q 718 64 742 97 m 453 757 q 466 738 457 750 q 479 721 475 726 q 491 709 483 717 q 511 693 499 701 q 542 679 524 685 q 585 674 560 674 q 628 678 608 674 q 651 685 647 683 l 653 685 l 653 683 q 654 681 653 681 q 657 676 657 674 q 657 675 657 678 q 647 667 657 672 q 622 658 638 663 q 585 649 606 653 q 543 644 565 644 q 508 649 528 644 q 469 661 488 653 q 437 683 450 669 q 424 717 424 697 q 428 730 424 724 q 438 743 432 736 q 453 757 443 750 z "},"":{"ha":744,"x_min":8,"x_max":775,"o":"m 718 64 q 702 44 711 56 q 681 23 693 33 q 651 6 668 13 q 614 -1 635 -1 q 579 6 594 -1 q 549 38 564 14 q 476 -21 521 1 q 378 -43 432 -43 q 307 -31 343 -43 q 242 6 271 -18 q 194 65 213 31 q 176 144 176 100 q 194 254 176 206 q 224 339 213 303 q 148 314 186 322 q 79 306 110 306 q 24 309 39 306 q 8 319 8 313 q 22 326 8 325 q 59 331 36 328 q 111 340 82 333 q 169 367 140 347 q 219 399 199 381 q 255 435 240 418 q 276 465 269 453 q 285 482 283 478 q 288 491 285 482 q 296 512 292 500 q 303 535 300 524 q 306 556 306 547 q 320 550 308 554 q 346 538 332 546 q 370 517 360 529 q 381 489 381 506 q 379 474 381 482 q 375 456 378 465 q 338 383 358 422 q 299 301 318 343 q 267 213 281 258 q 251 121 253 167 q 264 81 251 100 q 297 47 276 61 q 343 24 318 32 q 393 15 368 15 q 478 44 439 15 q 542 113 518 72 q 543 117 542 115 q 567 232 549 168 q 608 356 586 296 q 649 460 629 415 q 675 518 668 506 q 685 549 679 533 q 692 574 689 561 q 696 594 696 586 q 711 588 699 593 q 738 575 724 583 q 764 554 753 567 q 775 525 775 542 q 768 492 775 507 q 746 447 761 476 q 712 378 731 417 q 673 294 693 339 q 637 208 653 250 q 610 129 621 165 q 600 69 600 93 q 624 40 600 40 q 682 69 647 40 q 744 161 717 97 q 747 163 744 161 q 757 160 754 163 q 760 156 760 157 q 751 124 760 151 q 718 64 742 97 m 606 757 q 612 751 607 757 q 622 739 617 746 q 632 723 628 732 q 636 708 636 714 q 622 678 636 690 q 590 659 608 667 q 550 648 571 651 q 515 644 529 644 q 473 649 493 644 q 437 658 453 653 q 411 667 421 663 q 401 675 401 672 l 404 681 q 405 682 404 682 q 406 683 406 682 l 407 685 q 431 678 411 683 q 474 674 450 674 q 517 679 499 674 q 547 693 535 685 q 567 709 560 701 q 579 721 575 717 q 592 738 583 726 q 606 757 601 750 z "},"":{"ha":744,"x_min":8,"x_max":775,"o":"m 718 64 q 702 44 711 56 q 681 23 693 33 q 651 6 668 13 q 614 -1 635 -1 q 579 6 594 -1 q 549 38 564 14 q 476 -21 521 1 q 378 -43 432 -43 q 307 -31 343 -43 q 242 6 271 -18 q 194 65 213 31 q 176 144 176 100 q 194 254 176 206 q 224 339 213 303 q 148 314 186 322 q 79 306 110 306 q 24 309 39 306 q 8 319 8 313 q 22 326 8 325 q 59 331 36 328 q 111 340 82 333 q 169 367 140 347 q 219 399 199 381 q 255 435 240 418 q 276 465 269 453 q 285 482 283 478 q 288 491 285 482 q 296 512 292 500 q 303 535 300 524 q 306 556 306 547 q 320 550 308 554 q 346 538 332 546 q 370 517 360 529 q 381 489 381 506 q 379 474 381 482 q 375 456 378 465 q 338 383 358 422 q 299 301 318 343 q 267 213 281 258 q 251 121 253 167 q 264 81 251 100 q 297 47 276 61 q 343 24 318 32 q 393 15 368 15 q 478 44 439 15 q 542 113 518 72 q 543 117 542 115 q 567 232 549 168 q 608 356 586 296 q 649 460 629 415 q 675 518 668 506 q 685 549 679 533 q 692 574 689 561 q 696 594 696 586 q 711 588 699 593 q 738 575 724 583 q 764 554 753 567 q 775 525 775 542 q 768 492 775 507 q 746 447 761 476 q 712 378 731 417 q 673 294 693 339 q 637 208 653 250 q 610 129 621 165 q 600 69 600 93 q 624 40 600 40 q 682 69 647 40 q 744 161 717 97 q 747 163 744 161 q 757 160 754 163 q 760 156 760 157 q 751 124 760 151 q 718 64 742 97 m 679 624 q 681 619 679 621 q 683 617 683 618 q 676 611 683 614 q 642 608 668 608 q 585 619 617 608 q 532 663 553 631 q 500 647 517 651 q 467 643 483 643 q 433 647 449 643 q 404 657 417 651 q 384 667 392 663 q 376 675 376 672 l 382 683 q 403 677 385 682 q 444 672 421 672 q 484 679 468 672 q 510 694 500 686 q 527 710 521 703 q 540 717 533 717 q 560 708 556 717 q 569 688 565 700 q 581 663 574 676 q 608 642 588 650 q 653 628 632 631 q 679 625 674 626 l 679 624 z "},"":{"ha":744,"x_min":8,"x_max":775,"o":"m 718 64 q 702 44 711 56 q 681 23 693 33 q 651 6 668 13 q 614 -1 635 -1 q 579 6 594 -1 q 549 38 564 14 q 476 -21 521 1 q 378 -43 432 -43 q 307 -31 343 -43 q 242 6 271 -18 q 194 65 213 31 q 176 144 176 100 q 194 254 176 206 q 224 339 213 303 q 148 314 186 322 q 79 306 110 306 q 24 309 39 306 q 8 319 8 313 q 22 326 8 325 q 59 331 36 328 q 111 340 82 333 q 169 367 140 347 q 219 399 199 381 q 255 435 240 418 q 276 465 269 453 q 285 482 283 478 q 288 491 285 482 q 296 512 292 500 q 303 535 300 524 q 306 556 306 547 q 320 550 308 554 q 346 538 332 546 q 370 517 360 529 q 381 489 381 506 q 379 474 381 482 q 375 456 378 465 q 338 383 358 422 q 299 301 318 343 q 267 213 281 258 q 251 121 253 167 q 264 81 251 100 q 297 47 276 61 q 343 24 318 32 q 393 15 368 15 q 478 44 439 15 q 542 113 518 72 q 543 117 542 115 q 567 232 549 168 q 608 356 586 296 q 649 460 629 415 q 675 518 668 506 q 685 549 679 533 q 692 574 689 561 q 696 594 696 586 q 711 588 699 593 q 738 575 724 583 q 764 554 753 567 q 775 525 775 542 q 768 492 775 507 q 746 447 761 476 q 712 378 731 417 q 673 294 693 339 q 637 208 653 250 q 610 129 621 165 q 600 69 600 93 q 624 40 600 40 q 682 69 647 40 q 744 161 717 97 q 747 163 744 161 q 757 160 754 163 q 760 156 760 157 q 751 124 760 151 q 718 64 742 97 m 569 729 q 579 728 571 728 q 597 726 588 728 q 613 719 606 724 q 621 707 621 715 q 610 688 621 700 q 600 642 600 676 q 601 629 600 633 l 593 629 q 573 633 585 629 q 561 657 561 638 q 563 665 561 661 q 566 674 564 668 q 570 690 568 681 q 572 717 572 700 q 569 729 572 724 m 472 729 q 482 728 474 728 q 500 726 490 728 q 517 720 510 725 q 524 706 524 715 q 522 696 524 699 q 513 678 517 688 q 503 640 503 658 q 504 629 503 632 l 496 629 q 476 633 488 629 q 464 656 464 638 q 465 664 464 661 q 469 672 467 667 q 473 686 471 676 q 475 715 475 696 q 472 729 475 724 z "},"":{"ha":607,"x_min":17,"x_max":801,"o":"m 739 -33 q 753 -43 743 -33 q 774 -64 764 -53 q 793 -86 785 -75 q 801 -99 801 -97 l 800 -100 l 800 -101 q 694 -153 756 -137 q 568 -168 633 -168 q 456 -158 510 -168 q 356 -135 403 -147 q 299 -192 328 -175 q 238 -210 269 -210 q 219 -209 233 -210 q 190 -202 206 -208 q 161 -182 174 -196 q 149 -143 149 -168 q 158 -106 149 -121 q 178 -82 167 -90 q 203 -70 190 -74 q 222 -65 215 -67 q 272 -68 249 -62 q 319 -81 294 -74 q 338 -37 328 -61 q 354 11 347 -12 q 293 -29 329 -15 q 217 -43 257 -43 q 135 -31 172 -43 q 72 7 99 -18 q 31 69 46 32 q 18 154 17 106 q 30 231 18 186 q 58 324 42 276 q 94 417 75 372 q 125 492 113 461 l 135 521 q 142 546 139 533 q 146 567 146 558 q 164 560 150 565 q 192 544 178 554 q 217 521 206 535 q 228 489 228 507 l 228 488 q 209 452 219 472 q 189 414 199 432 q 154 349 174 385 q 118 274 135 313 q 90 199 101 236 q 79 129 79 161 q 92 76 79 100 q 125 34 104 51 q 174 8 146 17 q 231 -1 201 -1 q 316 20 282 -1 q 371 73 350 42 q 403 138 392 104 q 425 194 415 171 q 442 251 433 226 q 456 298 450 276 q 467 341 463 319 q 472 388 471 363 q 487 382 475 388 q 512 368 499 376 q 535 347 525 360 q 546 321 546 335 q 544 306 546 314 q 539 286 543 297 q 529 262 539 285 q 507 207 519 239 q 484 138 494 175 q 474 74 474 101 q 478 49 474 58 q 497 39 482 39 q 556 67 521 39 q 619 160 592 96 l 621 160 q 624 161 621 160 q 633 156 633 161 l 633 158 q 626 133 632 158 q 606 78 621 108 q 562 22 590 47 q 488 -3 533 -3 q 461 2 475 -3 q 435 21 447 7 q 381 -90 408 -39 q 444 -100 413 -96 q 507 -104 476 -104 q 592 -95 553 -104 q 662 -75 632 -86 q 711 -52 692 -64 q 736 -33 731 -40 l 739 -33 m 178 -142 q 192 -168 178 -160 q 225 -176 207 -176 q 263 -164 243 -176 q 303 -117 283 -151 q 267 -105 283 -110 q 232 -100 250 -100 q 196 -109 214 -100 q 178 -142 178 -118 m 508 688 q 515 682 510 688 q 525 669 519 676 q 535 653 531 663 q 539 639 539 644 q 525 609 539 621 q 492 590 511 597 q 453 578 474 582 q 418 575 432 575 q 376 579 396 575 q 340 588 356 583 q 314 598 324 593 q 304 606 304 603 l 307 611 q 308 613 307 613 q 308 614 308 613 l 310 615 q 333 609 314 614 q 376 604 353 604 q 419 610 401 604 q 450 624 438 615 q 470 640 463 632 q 482 651 478 647 q 495 669 486 657 q 508 688 504 681 z "},":":{"ha":254,"x_min":86,"x_max":182,"o":"m 143 135 q 144 132 143 133 q 145 129 144 131 q 146 125 146 128 q 135 108 146 118 q 125 67 125 97 q 126 57 125 60 l 118 57 q 99 59 111 57 q 86 79 86 61 q 93 97 86 89 q 100 135 100 106 q 97 144 100 139 q 117 143 107 144 q 132 140 124 142 q 143 135 140 138 m 179 290 q 181 288 179 289 q 181 285 181 286 q 182 281 182 283 q 172 263 182 274 q 161 222 161 253 q 163 213 161 215 l 154 213 q 135 215 147 213 q 122 235 122 217 q 129 253 122 244 q 136 290 136 261 q 133 300 136 294 q 153 299 143 300 q 168 295 160 297 q 179 290 176 293 z "},"":{"ha":133,"x_min":83,"x_max":194,"o":"m 150 586 q 155 587 153 586 q 160 588 157 588 q 187 574 179 588 q 194 546 194 561 q 178 485 194 513 q 143 440 163 458 q 106 411 124 421 q 86 401 89 401 q 86 403 89 400 q 83 410 83 406 q 97 421 85 413 q 124 450 108 429 q 147 494 142 474 q 151 531 151 515 q 150 557 151 542 q 146 586 149 572 l 150 586 z "}}}
